<?xml version="1.0" encoding="UTF-8" standalone="no"?>
<svg
   xmlns:dc="http://purl.org/dc/elements/1.1/"
   xmlns:cc="http://creativecommons.org/ns#"
   xmlns:rdf="http://www.w3.org/1999/02/22-rdf-syntax-ns#"
   xmlns:svg="http://www.w3.org/2000/svg"
   xmlns="http://www.w3.org/2000/svg"
   xmlns:sodipodi="http://sodipodi.sourceforge.net/DTD/sodipodi-0.dtd"
   xmlns:inkscape="http://www.inkscape.org/namespaces/inkscape"
   width="75"
   height="380"
   viewBox="0 0 74.999999 380.00001"
   id="svg14650"
   version="1.1"
   inkscape:version="1.0beta1 (fe3e306, 2019-09-17)"
   sodipodi:docname="MentalLogic.svg">
  <defs
     id="defs14652" />
  <sodipodi:namedview
     id="base"
     pagecolor="#ffffff"
     bordercolor="#666666"
     borderopacity="1.0"
     inkscape:pageopacity="0.0"
     inkscape:pageshadow="2"
     inkscape:zoom="2.7492247"
     inkscape:cx="100.26202"
     inkscape:cy="94.222837"
     inkscape:document-units="px"
     inkscape:current-layer="layer10"
     showgrid="true"
     units="px"
     objecttolerance="2"
     inkscape:window-width="1600"
     inkscape:window-height="853"
     inkscape:window-x="153"
     inkscape:window-y="1076"
     inkscape:window-maximized="1"
     inkscape:snap-global="false"
     inkscape:document-rotation="0">
    <inkscape:grid
       type="xygrid"
       id="grid15198"
       spacingx="4.9999999"
       spacingy="5.0000001"
       empspacing="3" />
  </sodipodi:namedview>
  <metadata
     id="metadata14655">
    <rdf:RDF>
      <cc:Work
         rdf:about="">
        <dc:format>image/svg+xml</dc:format>
        <dc:type
           rdf:resource="http://purl.org/dc/dcmitype/StillImage" />
        <dc:title />
      </cc:Work>
    </rdf:RDF>
  </metadata>
  <g
     inkscape:groupmode="layer"
     id="layer8"
     inkscape:label="Background"
     sodipodi:insensitive="true">
    <rect
       transform="translate(0,-672.36216)"
       style="fill:#000000;fill-opacity:1;stroke:none;stroke-width:3.89764;stroke-linejoin:round;stroke-miterlimit:4;stroke-dasharray:none;stroke-opacity:1"
       id="rect15200"
       width="75"
       height="380"
       x="0"
       y="672.36218" />
  </g>
  <g
     inkscape:groupmode="layer"
     id="layer9"
     inkscape:label="Logo"
     sodipodi:insensitive="true">
    <g
       id="g2426"
       transform="translate(-0.007329,-672.36216)">
      <path
         d="m 29.603022,1043.1442 -1.933764,4.7354 -2.005788,-4.7354 v 4.6021 h -1.105522 v -6.8744 h 1.739308 l 1.609671,3.6011 1.548452,-3.6011 h 1.710501 v 6.8744 h -1.562858 z"
         style="font-style:normal;font-variant:normal;font-weight:normal;font-stretch:normal;font-size:medium;line-height:6.61458px;font-family:LilyUPC;-inkscape-font-specification:LilyUPC;letter-spacing:0px;word-spacing:0px;fill:#ffffff;fill-opacity:1;stroke:none;stroke-width:0.230467"
         id="path1948"
         inkscape:connector-curvature="0" />
      <path
         d="m 33.13925,1045.5353 q 0.0324,0.3889 0.26648,0.9831 0.23407,0.5941 0.85345,0.623 0.75622,0 1.18475,-0.1909 0.42852,-0.1944 0.55816,-0.324 l -0.20886,0.8534 q 0,0.076 -0.42853,0.2016 -0.42852,0.1225 -1.09111,0.1225 -0.26288,0 -0.41052,-0.014 -1.07312,-0.08 -1.57366,-0.6159 -0.49695,-0.54 -0.50775,-1.7285 0,-1.3611 0.56536,-1.9949 0.56897,-0.6338 1.66369,-0.6447 1.31438,0 1.78252,0.6915 0.39972,0.5726 0.39972,1.5485 0,0.1836 -0.0108,0.3133 -0.0108,0.126 -0.018,0.1764 z m 1.0047,-2.1102 q -1.0047,0.032 -1.0047,1.4584 h 2.13903 q 0,-1.4584 -1.13433,-1.4584 z"
         style="font-style:normal;font-variant:normal;font-weight:normal;font-stretch:normal;font-size:medium;line-height:6.61458px;font-family:LilyUPC;-inkscape-font-specification:LilyUPC;letter-spacing:0px;word-spacing:0px;fill:#ffffff;fill-opacity:1;stroke:none;stroke-width:0.230467"
         id="path1950"
         inkscape:connector-curvature="0" />
      <path
         d="m 40.85991,1043.9688 v 3.7775 h -1.0335 v -3.5974 q 0,-0.6194 -0.94348,-0.6194 -0.46093,0.054 -0.66259,0.2882 -0.19806,0.2304 -0.23767,0.3744 v 3.5542 h -1.3864 v -4.9118 h 1.3864 v 0.3997 q 0.0288,-0.019 0.19446,-0.1296 0.16925,-0.1117 0.47534,-0.2053 0.30969,-0.093 0.71661,-0.093 0.76702,0 1.12713,0.3528 0.3637,0.3493 0.3637,0.8102 z"
         style="font-style:normal;font-variant:normal;font-weight:normal;font-stretch:normal;font-size:medium;line-height:6.61458px;font-family:LilyUPC;-inkscape-font-specification:LilyUPC;letter-spacing:0px;word-spacing:0px;fill:#ffffff;fill-opacity:1;stroke:none;stroke-width:0.230467"
         id="path1952"
         inkscape:connector-curvature="0" />
      <path
         sodipodi:nodetypes="ccccccccc"
         d="m 41.74937,1041.729 h -9.86289 v -0.8571 h 16.53924 v 0.8571 h -5.11349 v 6.0173 h -1.56286 z"
         style="font-style:normal;font-variant:normal;font-weight:normal;font-stretch:normal;font-size:medium;line-height:6.61458px;font-family:LilyUPC;-inkscape-font-specification:LilyUPC;letter-spacing:0px;word-spacing:0px;fill:#ffffff;fill-opacity:1;stroke:none;stroke-width:0.230467"
         id="path1954"
         inkscape:connector-curvature="0" />
      <path
         d="m 47.10773,1047.7463 v -0.515 q -0.0576,0.1333 -0.38891,0.3314 -0.32769,0.1981 -1.11633,0.1981 -0.67339,-0.025 -1.11992,-0.3457 -0.44653,-0.3205 -0.45734,-1.0119 0,-0.7419 0.52936,-1.1128 0.53295,-0.3709 1.59526,-0.4501 0.48975,-0.04 0.75263,-0.2484 0.26647,-0.2125 0.26647,-0.4753 0,-0.2666 -0.24487,-0.4574 -0.24127,-0.1909 -0.65539,-0.1909 -0.85345,0 -1.32879,0.3169 -0.47174,0.3133 -0.61938,0.5257 l 0.20526,-0.9759 q 0,-0.025 0.22327,-0.1548 0.22686,-0.1296 0.63018,-0.2413 0.40332,-0.1151 0.96148,-0.1188 1.13793,0 1.64568,0.3889 0.50775,0.3853 0.50775,1.0119 v 3.5254 z m -0.67699,-0.7669 q 0.67699,-0.1838 0.67699,-0.5906 v -1.1199 q -0.004,0.011 -0.0504,0.1044 -0.0468,0.09 -0.21246,0.1801 -0.16565,0.09 -0.50415,0.1296 -0.57616,0.079 -0.87865,0.2592 -0.30249,0.1764 -0.30249,0.6086 0.0468,0.5005 0.79943,0.5005 0.22687,0 0.47174,-0.071 z"
         style="font-style:normal;font-variant:normal;font-weight:normal;font-stretch:normal;font-size:medium;line-height:6.61458px;font-family:LilyUPC;-inkscape-font-specification:LilyUPC;letter-spacing:0px;word-spacing:0px;fill:#ffffff;fill-opacity:1;stroke:none;stroke-width:0.230467"
         id="path1956"
         inkscape:connector-curvature="0" />
      <path
         d="m 49.09912,1047.7463 v -6.8744 h 1.35759 v 6.8744 z"
         style="font-style:normal;font-variant:normal;font-weight:normal;font-stretch:normal;font-size:medium;line-height:6.61458px;font-family:LilyUPC;-inkscape-font-specification:LilyUPC;letter-spacing:0px;word-spacing:0px;fill:#ffffff;fill-opacity:1;stroke:none;stroke-width:0.230467"
         id="path1958"
         inkscape:connector-curvature="0" />
    </g>
  </g>
  <g
     inkscape:groupmode="layer"
     id="layer10"
     inkscape:label="Name"
     style="display:inline">
    <g
       style="font-size:16px;line-height:21px;font-family:LilyUPC;-inkscape-font-specification:LilyUPC;letter-spacing:0px;word-spacing:0px;fill:#ffffff;fill-opacity:1"
       id="text2495"
       aria-label="Logic">
      <path
         id="path3851"
         style=""
         d="m 27.6875,9.2298203 h 3.617187 v 0.9296877 h -5.3125 V 2.7024765 H 27.6875 Z" />
      <path
         id="path3853"
         style=""
         d="m 34.0625,4.8001328 q 0.929687,0 1.484375,0.3007812 0.558594,0.3007813 0.800781,0.890625 0.242188,0.5898438 0.242188,1.4960938 0,1.4179687 -0.601563,2.078125 Q 35.386719,10.222008 34.027344,10.222008 32.738281,10.210289 32.125,9.5618515 31.515625,8.913414 31.515625,7.5032578 31.539062,4.8001328 34.0625,4.8001328 Z m -1.058594,2.6875 q 0.02734,0.6914062 0.07813,1.0507812 0.05469,0.3554688 0.285156,0.6445313 0.230469,0.2890625 0.710938,0.2890625 0.671875,0 0.847656,-0.5078125 0.175781,-0.5117188 0.175781,-1.4453125 0,-0.9179688 -0.179687,-1.4492188 -0.175781,-0.5351562 -0.84375,-0.5351562 -0.6875,0.019531 -0.882813,0.5351562 -0.191406,0.5117188 -0.191406,1.4179688 z" />
      <path
         id="path3855"
         style=""
         d="m 39.144531,11.343102 q 1.234375,0 1.234375,-0.734375 V 9.9212265 Q 39.808594,10.206383 38.984375,10.206383 38.382812,10.182945 37.957031,10.01107 37.535156,9.835289 37.234375,9.2376328 36.9375,8.6360703 36.9375,7.4720078 q 0.03125,-1.203125 0.382812,-1.7890625 0.351563,-0.5898438 0.792969,-0.734375 0.445313,-0.1484375 1.015625,-0.1484375 0.316406,0.015625 0.578125,0.1054687 0.265625,0.089844 0.472656,0.1992188 0.199219,0.1054687 0.199219,0.109375 0,0 0,0 V 4.8313828 h 1.488281 v 5.5351562 q 0,1.621094 -2.386718,1.664063 -0.855469,0 -1.414063,-0.144532 -0.554687,-0.144531 -0.632812,-0.222656 l -0.113282,-0.832031 q 0.175782,0.117187 0.667969,0.300781 0.492188,0.183594 1.15625,0.210938 z m 1.234375,-5.3750005 q 0,-0.042969 -0.269531,-0.2070312 Q 39.839844,5.5931015 39.5,5.5345078 q -0.507813,0 -0.808594,0.2109375 -0.296875,0.2070312 -0.425781,0.6328125 -0.125,0.421875 -0.144531,1.125 0,0.9492187 0.277343,1.484375 0.277344,0.53125 1.050782,0.53125 0.410156,-0.027344 0.636718,-0.1328125 0.226563,-0.109375 0.292969,-0.171875 z" />
      <path
         id="path3857"
         style=""
         d="M 42.628906,10.159508 V 4.8313828 h 1.488281 v 5.3281252 z m 0.753906,-7.4726565 q 0.398438,0 0.621094,0.25 0.226563,0.25 0.226563,0.5976563 0,0.3554687 -0.230469,0.609375 -0.226563,0.2539062 -0.632813,0.2539062 -0.390625,0 -0.621093,-0.2539062 -0.230469,-0.2578125 -0.230469,-0.59375 0,-0.34375 0.230469,-0.6015625 0.230468,-0.2617188 0.636718,-0.2617188 z" />
      <path
         id="path3859"
         style=""
         d="m 48.914062,9.9368515 q 0,0.03125 -0.453125,0.1250005 -0.449218,0.09375 -1.148437,0.113281 -0.976563,0 -1.546875,-0.2734377 -0.570313,-0.2734375 -0.824219,-0.890625 -0.25,-0.6210938 -0.25,-1.6992188 0.03125,-0.859375 0.273438,-1.40625 0.246093,-0.546875 0.777343,-0.8164062 0.535157,-0.2734375 1.425782,-0.2734375 0.566406,0.011719 1.015625,0.097656 0.453125,0.085937 0.648437,0.140625 l 0.160156,0.7695313 q -0.144531,-0.074219 -0.53125,-0.1835938 -0.386718,-0.109375 -0.972656,-0.1210937 -0.769531,0 -1.023437,0.5078125 -0.253907,0.5078125 -0.253907,1.2851562 0,0.9375 0.207032,1.5273438 0.210937,0.5859375 0.863281,0.6328125 0.519531,0 0.894531,-0.089844 0.375,-0.089844 0.601563,-0.1953125 0.230468,-0.109375 0.230468,-0.1328125 z" />
    </g>
  </g>
  <g
     sodipodi:insensitive="true"
     inkscape:label="Panel Text"
     inkscape:groupmode="layer"
     id="layer1"
     transform="translate(0,-672.36216)">
    <g
       id="g2491">
      <path
         d="m 10.589355,685.29797 v 6.99097 H 9 v -6.99097 z"
         style="font-style:normal;font-variant:normal;font-weight:normal;font-stretch:normal;font-size:medium;line-height:125%;font-family:LilyUPC;-inkscape-font-specification:'LilyUPC, Normal';text-align:start;letter-spacing:0px;word-spacing:0px;writing-mode:lr-tb;text-anchor:start;fill:#ffffff;fill-opacity:1;stroke:none;stroke-width:1px;stroke-linecap:butt;stroke-linejoin:miter;stroke-opacity:1"
         id="path7486"
         inkscape:connector-curvature="0" />
      <path
         d="m 15.646729,688.44739 v 3.84155 h -1.051026 v -3.65845 q 0,-0.62988 -0.959473,-0.62988 -0.46875,0.0549 -0.673828,0.29297 -0.201416,0.23437 -0.241699,0.38086 v 3.6145 h -1.409912 v -4.99512 h 1.409912 v 0.4065 q 0.0293,-0.0183 0.197754,-0.13184 0.172119,-0.11352 0.483398,-0.20874 0.314942,-0.0952 0.72876,-0.0952 0.78003,0 1.14624,0.35888 0.369874,0.35523 0.369874,0.82398 z"
         style="font-style:normal;font-variant:normal;font-weight:normal;font-stretch:normal;font-size:medium;line-height:125%;font-family:LilyUPC;-inkscape-font-specification:'LilyUPC, Normal';text-align:start;letter-spacing:0px;word-spacing:0px;writing-mode:lr-tb;text-anchor:start;fill:#ffffff;fill-opacity:1;stroke:none;stroke-width:1px;stroke-linecap:butt;stroke-linejoin:miter;stroke-opacity:1"
         id="path7488"
         inkscape:connector-curvature="0" />
      <path
         d="m 17.50708,688.50964 q 0,0.28931 0.512695,0.43579 0.516358,0.14283 1.05835,0.271 0.541992,0.12451 0.9375,0.42481 0.39917,0.29663 0.41748,0.92285 0,0.91552 -0.494384,1.31469 -0.490723,0.39917 -1.428223,0.46875 -0.117187,0.0146 -0.358887,0.0146 -0.637207,0 -1.098632,-0.0989 -0.461426,-0.10254 -0.64087,-0.16846 l -0.194091,-0.87158 q 0.164794,0.11352 0.604248,0.28564 0.439453,0.17212 1.058349,0.17944 0.65918,0 0.893555,-0.19775 0.238037,-0.20142 0.249023,-0.62622 0,-0.49072 -0.333252,-0.64819 -0.329589,-0.15747 -1.072998,-0.30396 -0.739746,-0.14648 -1.116943,-0.42114 -0.373535,-0.27466 -0.373535,-0.9668 0.05493,-1.20483 1.904297,-1.28906 0.06226,0 0.172119,-0.007 0.109863,-0.007 0.157471,-0.007 0.670166,0 1.080322,0.0952 0.410156,0.0952 0.55664,0.15747 l 0.238038,0.80932 q -0.142823,-0.0915 -0.560303,-0.22339 -0.417481,-0.13549 -1.131592,-0.13549 -0.483398,0 -0.754395,0.11352 -0.270996,0.10986 -0.281982,0.47241 z"
         style="font-style:normal;font-variant:normal;font-weight:normal;font-stretch:normal;font-size:medium;line-height:125%;font-family:LilyUPC;-inkscape-font-specification:'LilyUPC, Normal';text-align:start;letter-spacing:0px;word-spacing:0px;writing-mode:lr-tb;text-anchor:start;fill:#ffffff;fill-opacity:1;stroke:none;stroke-width:1px;stroke-linecap:butt;stroke-linejoin:miter;stroke-opacity:1"
         id="path7490"
         inkscape:connector-curvature="0" />
    </g>
    <g
       id="g2503">
      <path
         d="m 45.755615,685.26868 q 1.094971,0 1.765137,0.3955 0.670166,0.39185 0.959473,1.16456 0.289306,0.7727 0.289306,1.9519 0,1.21216 -0.318603,2.00684 -0.318604,0.79101 -0.98877,1.17553 -0.666504,0.38452 -1.721191,0.38452 -1.014405,0 -1.66626,-0.37719 -0.651855,-0.3772 -0.963135,-1.16822 -0.311279,-0.79101 -0.311279,-2.02148 0.01099,-1.75781 0.736084,-2.62939 0.72876,-0.87159 2.219238,-0.88257 z m -1.307373,3.51196 q 0.04028,1.22681 0.26001,1.9043 0.219727,0.67749 1.032715,0.68847 0.600586,0 0.893554,-0.36255 0.296631,-0.36621 0.373536,-0.90087 0.08057,-0.53833 0.08057,-1.30005 0,-0.78003 -0.06958,-1.29273 -0.06592,-0.51269 -0.355225,-0.88989 -0.289306,-0.38086 -0.878906,-0.38452 -0.838623,0 -1.087646,0.68481 -0.249024,0.68482 -0.249024,1.85303 z"
         style="font-style:normal;font-variant:normal;font-weight:normal;font-stretch:normal;font-size:medium;line-height:125%;font-family:LilyUPC;-inkscape-font-specification:'LilyUPC, Normal';text-align:start;letter-spacing:0px;word-spacing:0px;writing-mode:lr-tb;text-anchor:start;fill:#ffffff;fill-opacity:1;stroke:none;stroke-width:1px;stroke-linecap:butt;stroke-linejoin:miter;stroke-opacity:1"
         id="path7477"
         inkscape:connector-curvature="0" />
      <path
         d="m 50.72876,690.87903 q 0,0.31128 0.227051,0.51636 0.230712,0.20507 0.567626,0.20507 0.556641,-0.0146 0.794678,-0.26367 0.238037,-0.24902 0.285645,-0.41382 v -3.62915 h 1.051025 v 4.99512 H 52.60376 v -0.46509 q -0.142823,0.12085 -0.618897,0.3003 -0.476074,0.17944 -1.314697,0.17944 -0.622559,-0.022 -0.98877,-0.3772 -0.362548,-0.35522 -0.362548,-1.00342 v -3.62915 h 1.409912 z"
         style="font-style:normal;font-variant:normal;font-weight:normal;font-stretch:normal;font-size:medium;line-height:125%;font-family:LilyUPC;-inkscape-font-specification:'LilyUPC, Normal';text-align:start;letter-spacing:0px;word-spacing:0px;writing-mode:lr-tb;text-anchor:start;fill:#ffffff;fill-opacity:1;stroke:none;stroke-width:1px;stroke-linecap:butt;stroke-linejoin:miter;stroke-opacity:1"
         id="path7479"
         inkscape:connector-curvature="0" />
      <path
         d="m 56.427002,687.92371 v 2.89672 q 0,0.43213 0.256348,0.61524 0.183105,0.14648 0.692138,0.14648 v 0.70679 q -0.04394,0.004 -0.15747,0.007 -0.117188,0.007 -0.263672,0.007 -0.963135,0 -1.409912,-0.32959 -0.527344,-0.35889 -0.527344,-1.21582 v -2.83447 h -0.944824 v -0.62989 h 0.944824 v -1.99585 h 1.409912 v 1.99585 h 0.948486 v 0.62989 h -0.948486 z"
         style="font-style:normal;font-variant:normal;font-weight:normal;font-stretch:normal;font-size:medium;line-height:125%;font-family:LilyUPC;-inkscape-font-specification:'LilyUPC, Normal';text-align:start;letter-spacing:0px;word-spacing:0px;writing-mode:lr-tb;text-anchor:start;fill:#ffffff;fill-opacity:1;stroke:none;stroke-width:1px;stroke-linecap:butt;stroke-linejoin:miter;stroke-opacity:1"
         id="path7481"
         inkscape:connector-curvature="0" />
      <path
         d="m 58.942871,688.50964 q 0,0.28931 0.512695,0.43579 0.516358,0.14283 1.05835,0.271 0.541992,0.12451 0.9375,0.42481 0.39917,0.29663 0.41748,0.92285 0,0.91552 -0.494384,1.31469 -0.490723,0.39917 -1.428223,0.46875 -0.117187,0.0146 -0.358887,0.0146 -0.637207,0 -1.098632,-0.0989 -0.461426,-0.10254 -0.64087,-0.16846 l -0.194091,-0.87158 q 0.164795,0.11352 0.604248,0.28564 0.439453,0.17212 1.058349,0.17944 0.65918,0 0.893555,-0.19775 0.238037,-0.20142 0.249023,-0.62622 0,-0.49072 -0.333252,-0.64819 -0.329589,-0.15747 -1.072998,-0.30396 -0.739746,-0.14648 -1.116943,-0.42114 -0.373535,-0.27466 -0.373535,-0.9668 0.05493,-1.20483 1.904297,-1.28906 0.06226,0 0.172119,-0.007 0.109863,-0.007 0.157471,-0.007 0.670166,0 1.080322,0.0952 0.410156,0.0952 0.55664,0.15747 l 0.238038,0.80932 q -0.142823,-0.0915 -0.560303,-0.22339 -0.417481,-0.13549 -1.131592,-0.13549 -0.483398,0 -0.754394,0.11352 -0.270997,0.10986 -0.281983,0.47241 z"
         style="font-style:normal;font-variant:normal;font-weight:normal;font-stretch:normal;font-size:medium;line-height:125%;font-family:LilyUPC;-inkscape-font-specification:'LilyUPC, Normal';text-align:start;letter-spacing:0px;word-spacing:0px;writing-mode:lr-tb;text-anchor:start;fill:#ffffff;fill-opacity:1;stroke:none;stroke-width:1px;stroke-linecap:butt;stroke-linejoin:miter;stroke-opacity:1"
         id="path7483"
         inkscape:connector-curvature="0" />
    </g>
    <g
       id="g2468"
       transform="translate(-0.2565555)">
      <path
         d="m 23.843592,809.36241 v 5.8258 h -1.324463 v -5.8258 z"
         style="font-style:normal;font-variant:normal;font-weight:normal;font-stretch:normal;font-size:medium;line-height:125%;font-family:LilyUPC;-inkscape-font-specification:'LilyUPC, Normal';text-align:start;letter-spacing:0px;word-spacing:0px;writing-mode:lr-tb;text-anchor:start;fill:#ffffff;fill-opacity:1;stroke:none;stroke-width:1px;stroke-linecap:butt;stroke-linejoin:miter;stroke-opacity:1"
         id="path8163"
         inkscape:connector-curvature="0" />
      <path
         d="m 28.058069,811.98692 v 3.20129 h -0.875854 v -3.0487 q 0,-0.52491 -0.799561,-0.52491 -0.390625,0.0458 -0.561523,0.24414 -0.167847,0.19532 -0.201416,0.31739 v 3.01208 h -1.174927 v -4.1626 h 1.174927 v 0.33875 q 0.02441,-0.0153 0.164795,-0.10986 0.143432,-0.0946 0.402832,-0.17395 0.262451,-0.0794 0.607299,-0.0794 0.650025,0 0.955201,0.29907 0.308227,0.29602 0.308227,0.68665 z"
         style="font-style:normal;font-variant:normal;font-weight:normal;font-stretch:normal;font-size:medium;line-height:125%;font-family:LilyUPC;-inkscape-font-specification:'LilyUPC, Normal';text-align:start;letter-spacing:0px;word-spacing:0px;writing-mode:lr-tb;text-anchor:start;fill:#ffffff;fill-opacity:1;stroke:none;stroke-width:1px;stroke-linecap:butt;stroke-linejoin:miter;stroke-opacity:1"
         id="path8165"
         inkscape:connector-curvature="0" />
      <path
         d="m 30.209558,815.36216 -1.925659,-4.33655 h 1.138306 l 0.997925,2.23694 0.988769,-2.23694 h 0.71106 z"
         style="font-style:normal;font-variant:normal;font-weight:normal;font-stretch:normal;font-size:medium;line-height:125%;font-family:LilyUPC;-inkscape-font-specification:'LilyUPC, Normal';text-align:start;letter-spacing:0px;word-spacing:0px;writing-mode:lr-tb;text-anchor:start;fill:#ffffff;fill-opacity:1;stroke:none;stroke-width:1px;stroke-linecap:butt;stroke-linejoin:miter;stroke-opacity:1"
         id="path8167"
         inkscape:connector-curvature="0" />
      <path
         d="m 33.404749,813.31443 q 0.02747,0.32959 0.22583,0.83313 0.198364,0.50354 0.723267,0.52796 0.640869,0 1.004028,-0.16175 0.363159,-0.16479 0.473022,-0.27466 l -0.177002,0.72327 q 0,0.0641 -0.363159,0.1709 -0.363159,0.10376 -0.924682,0.10376 -0.222779,0 -0.347901,-0.0122 -0.909424,-0.0671 -1.333618,-0.52185 -0.421143,-0.45776 -0.430298,-1.46484 0,-1.15357 0.479126,-1.69068 0.482178,-0.5371 1.409912,-0.54626 1.113892,0 1.51062,0.58594 0.338746,0.48523 0.338746,1.31225 0,0.15564 -0.0092,0.26551 -0.0092,0.10681 -0.01526,0.14953 h -2.563476 z m 0.85144,-1.78833 q -0.85144,0.0275 -0.85144,1.23596 h 1.812744 q 0,-1.23596 -0.961304,-1.23596 z"
         style="font-style:normal;font-variant:normal;font-weight:normal;font-stretch:normal;font-size:medium;line-height:125%;font-family:LilyUPC;-inkscape-font-specification:'LilyUPC, Normal';text-align:start;letter-spacing:0px;word-spacing:0px;writing-mode:lr-tb;text-anchor:start;fill:#ffffff;fill-opacity:1;stroke:none;stroke-width:1px;stroke-linecap:butt;stroke-linejoin:miter;stroke-opacity:1"
         id="path8169"
         inkscape:connector-curvature="0" />
      <path
         d="m 36.334436,815.18821 v -4.1626 h 1.174927 v 0.5127 q 0.0061,-0.006 0.07019,-0.0854 0.06714,-0.0824 0.198364,-0.1709 0.131225,-0.0885 0.357056,-0.16785 0.241088,-0.1007 0.613403,-0.1007 0.286865,0 0.360107,0.0244 l 0.100708,0.6012 q -0.213623,-0.0519 -0.39978,-0.0519 -0.405884,0 -0.674438,0.15259 -0.302124,0.14953 -0.463868,0.40893 -0.161743,0.2594 -0.161743,0.47607 v 2.56348 h -1.174927 z"
         style="font-style:normal;font-variant:normal;font-weight:normal;font-stretch:normal;font-size:medium;line-height:125%;font-family:LilyUPC;-inkscape-font-specification:'LilyUPC, Normal';text-align:start;letter-spacing:0px;word-spacing:0px;writing-mode:lr-tb;text-anchor:start;fill:#ffffff;fill-opacity:1;stroke:none;stroke-width:1px;stroke-linecap:butt;stroke-linejoin:miter;stroke-opacity:1"
         id="path8171"
         inkscape:connector-curvature="0" />
      <path
         d="m 41.281336,811.55052 v 2.41394 q 0,0.3601 0.213623,0.51269 0.152588,0.12207 0.576782,0.12207 v 0.58899 q -0.03662,0.003 -0.131225,0.006 -0.09766,0.006 -0.219727,0.006 -0.802612,0 -1.174927,-0.27466 -0.439453,-0.29907 -0.439453,-1.01318 v -2.36206 h -0.787353 v -0.52491 h 0.787353 v -1.6632 h 1.174927 v 1.6632 h 0.790405 v 0.52491 h -0.790405 z"
         style="font-style:normal;font-variant:normal;font-weight:normal;font-stretch:normal;font-size:medium;line-height:125%;font-family:LilyUPC;-inkscape-font-specification:'LilyUPC, Normal';text-align:start;letter-spacing:0px;word-spacing:0px;writing-mode:lr-tb;text-anchor:start;fill:#ffffff;fill-opacity:1;stroke:none;stroke-width:1px;stroke-linecap:butt;stroke-linejoin:miter;stroke-opacity:1"
         id="path8173"
         inkscape:connector-curvature="0" />
      <path
         d="m 43.3901,813.31443 q 0.02747,0.32959 0.225831,0.83313 0.198364,0.50354 0.723266,0.52796 0.640869,0 1.004028,-0.16175 0.36316,-0.16479 0.473023,-0.27466 l -0.177002,0.72327 q 0,0.0641 -0.363159,0.1709 -0.363159,0.10376 -0.924683,0.10376 -0.222778,0 -0.3479,-0.0122 -0.909424,-0.0671 -1.333618,-0.52185 -0.421143,-0.45776 -0.430298,-1.46484 0,-1.15357 0.479126,-1.69068 0.482177,-0.5371 1.409912,-0.54626 1.113891,0 1.51062,0.58594 0.338745,0.48523 0.338745,1.31225 0,0.15564 -0.0092,0.26551 -0.0092,0.10681 -0.01526,0.14953 h -2.563477 z m 0.851441,-1.78833 q -0.851441,0.0275 -0.851441,1.23596 h 1.812745 q 0,-1.23596 -0.961304,-1.23596 z"
         style="font-style:normal;font-variant:normal;font-weight:normal;font-stretch:normal;font-size:medium;line-height:125%;font-family:LilyUPC;-inkscape-font-specification:'LilyUPC, Normal';text-align:start;letter-spacing:0px;word-spacing:0px;writing-mode:lr-tb;text-anchor:start;fill:#ffffff;fill-opacity:1;stroke:none;stroke-width:1px;stroke-linecap:butt;stroke-linejoin:miter;stroke-opacity:1"
         id="path8175"
         inkscape:connector-curvature="0" />
      <path
         d="m 46.319788,815.18821 v -4.1626 h 1.174927 v 0.5127 q 0.0061,-0.006 0.07019,-0.0854 0.06714,-0.0824 0.198364,-0.1709 0.131226,-0.0885 0.357056,-0.16785 0.241089,-0.1007 0.613403,-0.1007 0.286866,0 0.360108,0.0244 l 0.100708,0.6012 q -0.213623,-0.0519 -0.39978,-0.0519 -0.405884,0 -0.674439,0.15259 -0.302124,0.14953 -0.463867,0.40893 -0.161743,0.2594 -0.161743,0.47607 v 2.56348 h -1.174927 z"
         style="font-style:normal;font-variant:normal;font-weight:normal;font-stretch:normal;font-size:medium;line-height:125%;font-family:LilyUPC;-inkscape-font-specification:'LilyUPC, Normal';text-align:start;letter-spacing:0px;word-spacing:0px;writing-mode:lr-tb;text-anchor:start;fill:#ffffff;fill-opacity:1;stroke:none;stroke-width:1px;stroke-linecap:butt;stroke-linejoin:miter;stroke-opacity:1"
         id="path8177"
         inkscape:connector-curvature="0" />
      <path
         d="m 50.555628,812.0388 q 0,0.24109 0.427246,0.36316 0.430298,0.11902 0.881958,0.22583 0.45166,0.10376 0.78125,0.354 0.332642,0.24719 0.3479,0.76904 0,0.76294 -0.411987,1.09558 -0.408936,0.33265 -1.190186,0.39063 -0.09766,0.0122 -0.299072,0.0122 -0.531006,0 -0.915527,-0.0824 -0.384522,-0.0855 -0.534058,-0.14038 l -0.161743,-0.72632 q 0.137329,0.0946 0.50354,0.23804 0.366211,0.14343 0.881958,0.14953 0.549317,0 0.744629,-0.16479 0.198364,-0.16785 0.20752,-0.52185 0,-0.40894 -0.27771,-0.54016 -0.274659,-0.13123 -0.894165,-0.2533 -0.616456,-0.12207 -0.930787,-0.35095 -0.311279,-0.22888 -0.311279,-0.80567 0.04578,-1.00402 1.586914,-1.07421 0.05188,0 0.143433,-0.006 0.09155,-0.006 0.131225,-0.006 0.558472,0 0.900269,0.0793 0.341797,0.0793 0.463867,0.13123 l 0.198364,0.67444 q -0.119018,-0.0763 -0.466919,-0.18616 -0.3479,-0.11291 -0.942993,-0.11291 -0.402832,0 -0.628662,0.0946 -0.22583,0.0916 -0.234985,0.39368 z"
         style="font-style:normal;font-variant:normal;font-weight:normal;font-stretch:normal;font-size:medium;line-height:125%;font-family:LilyUPC;-inkscape-font-specification:'LilyUPC, Normal';text-align:start;letter-spacing:0px;word-spacing:0px;writing-mode:lr-tb;text-anchor:start;fill:#ffffff;fill-opacity:1;stroke:none;stroke-width:1px;stroke-linecap:butt;stroke-linejoin:miter;stroke-opacity:1"
         id="path8179"
         inkscape:connector-curvature="0" />
    </g>
    <g
       id="g2486">
      <path
         d="m 52.48439,699.94922 -0.476074,1.38855 H 51.09584 l 2.014161,-5.82581 h 1.486206 l 2.050781,5.82581 h -1.324463 l -0.512695,-1.38855 z m 2.050782,-0.84839 -0.888062,-2.48718 -0.85144,2.48718 z"
         style="font-style:normal;font-variant:normal;font-weight:normal;font-stretch:normal;font-size:medium;line-height:125%;font-family:LilyUPC;-inkscape-font-specification:'LilyUPC, Normal';text-align:start;letter-spacing:0px;word-spacing:0px;writing-mode:lr-tb;text-anchor:start;fill:#ffffff;fill-opacity:1;stroke:none;stroke-width:1px;stroke-linecap:butt;stroke-linejoin:miter;stroke-opacity:1"
         id="path8153"
         inkscape:connector-curvature="0" />
      <path
         d="m 60.464737,698.13647 v 3.2013 h -0.875855 v -3.04871 q 0,-0.5249 -0.79956,-0.5249 -0.390625,0.0458 -0.561524,0.24414 -0.167846,0.19531 -0.201416,0.31738 v 3.01209 h -1.174926 v -4.1626 h 1.174926 v 0.33875 q 0.02442,-0.0153 0.164795,-0.10987 0.143433,-0.0946 0.402832,-0.17395 0.262452,-0.0793 0.6073,-0.0793 0.650025,0 0.9552,0.29907 0.308228,0.29602 0.308228,0.68664 z"
         style="font-style:normal;font-variant:normal;font-weight:normal;font-stretch:normal;font-size:medium;line-height:125%;font-family:LilyUPC;-inkscape-font-specification:'LilyUPC, Normal';text-align:start;letter-spacing:0px;word-spacing:0px;writing-mode:lr-tb;text-anchor:start;fill:#ffffff;fill-opacity:1;stroke:none;stroke-width:1px;stroke-linecap:butt;stroke-linejoin:miter;stroke-opacity:1"
         id="path8155"
         inkscape:connector-curvature="0" />
      <path
         d="m 64.703629,695.51196 v 5.82581 h -1.16272 v -0.25025 q -0.06409,0.0671 -0.292969,0.1709 -0.228882,0.10376 -0.646973,0.10376 -0.479126,-0.006 -0.863647,-0.16479 -0.38147,-0.16175 -0.634766,-0.64697 -0.250244,-0.48523 -0.250244,-1.40076 0.01526,-1.21765 0.463867,-1.60828 0.451661,-0.39062 1.147461,-0.39062 0.656128,0 1.077271,0.21057 v -1.84937 z m -1.16272,4.93775 v -2.52381 q 0,-0.0366 -0.189209,-0.12512 -0.189209,-0.0885 -0.524903,-0.11291 -0.616455,0 -0.827026,0.37536 -0.210571,0.37232 -0.210571,1.07422 0,0.55847 0.09766,0.92163 0.100708,0.36011 0.335693,0.54627 0.234986,0.1831 0.628663,0.1831 0.286865,-0.0275 0.488281,-0.15869 0.201416,-0.13428 0.201416,-0.18005 z"
         style="font-style:normal;font-variant:normal;font-weight:normal;font-stretch:normal;font-size:medium;line-height:125%;font-family:LilyUPC;-inkscape-font-specification:'LilyUPC, Normal';text-align:start;letter-spacing:0px;word-spacing:0px;writing-mode:lr-tb;text-anchor:start;fill:#ffffff;fill-opacity:1;stroke:none;stroke-width:1px;stroke-linecap:butt;stroke-linejoin:miter;stroke-opacity:1"
         id="path8157"
         inkscape:connector-curvature="0" />
    </g>
    <g
       id="g2481">
      <path
         d="m 57.212782,720.46316 q 0.912482,0 1.470957,0.32959 0.558476,0.32653 0.799566,0.97045 0.241091,0.64391 0.241091,1.62658 0,1.01012 -0.265505,1.67235 -0.265505,0.65917 -0.82398,0.9796 -0.555424,0.32044 -1.434336,0.32044 -0.845343,0 -1.38856,-0.31433 -0.543217,-0.31433 -0.802617,-0.9735 -0.259401,-0.65918 -0.259401,-1.68456 0.0092,-1.46484 0.613407,-2.19116 0.607304,-0.7263 1.849378,-0.73546 z m -1.089485,2.92662 q 0.03357,1.02233 0.216676,1.5869 0.183107,0.56457 0.860602,0.57372 0.500491,0 0.744634,-0.30211 0.247194,-0.30518 0.311281,-0.75074 0.06714,-0.4486 0.06714,-1.08336 0,-0.65002 -0.05798,-1.07726 -0.05493,-0.42725 -0.296023,-0.74158 -0.241091,-0.31738 -0.732427,-0.32043 -0.698857,0 -0.906378,0.57068 -0.207521,0.57067 -0.207521,1.54418 z"
         style="font-style:normal;font-variant:normal;font-weight:normal;font-stretch:normal;font-size:medium;line-height:125%;font-family:LilyUPC;-inkscape-font-specification:'LilyUPC, Normal';text-align:start;letter-spacing:0px;word-spacing:0px;writing-mode:lr-tb;text-anchor:start;fill:#ffffff;fill-opacity:1;stroke:none;stroke-width:1px;stroke-linecap:butt;stroke-linejoin:miter;stroke-opacity:1"
         id="path8191"
         inkscape:connector-curvature="0" />
      <path
         d="m 60.182162,726.31334 v -4.16257 h 1.174935 v 0.51269 q 0.0061,-0.006 0.07019,-0.0854 0.06714,-0.0824 0.198365,-0.1709 0.131226,-0.0885 0.357059,-0.16784 0.241089,-0.1007 0.613407,-0.1007 0.286867,0 0.360109,0.0244 l 0.100709,0.60119 q -0.213624,-0.0519 -0.399783,-0.0519 -0.405886,0 -0.674442,0.15258 -0.302126,0.14954 -0.463872,0.40894 -0.161744,0.2594 -0.161744,0.47607 v 2.56346 H 60.18216 Z"
         style="font-style:normal;font-variant:normal;font-weight:normal;font-stretch:normal;font-size:medium;line-height:125%;font-family:LilyUPC;-inkscape-font-specification:'LilyUPC, Normal';text-align:start;letter-spacing:0px;word-spacing:0px;writing-mode:lr-tb;text-anchor:start;fill:#ffffff;fill-opacity:1;stroke:none;stroke-width:1px;stroke-linecap:butt;stroke-linejoin:miter;stroke-opacity:1"
         id="path8193"
         inkscape:connector-curvature="0" />
    </g>
    <g
       id="g2457"
       transform="translate(-0.0106085)">
      <path
         d="m 35.819924,871.5703 q 0.912482,0 1.470957,0.32959 0.558476,0.32653 0.799566,0.97045 0.241091,0.64391 0.241091,1.62658 0,1.01012 -0.265505,1.67235 -0.265505,0.65917 -0.82398,0.9796 -0.555424,0.32044 -1.434336,0.32044 -0.845343,0 -1.38856,-0.31433 -0.543217,-0.31433 -0.802617,-0.9735 -0.259401,-0.65918 -0.259401,-1.68456 0.0092,-1.46484 0.613407,-2.19116 0.607304,-0.7263 1.849378,-0.73546 z m -1.089485,2.92662 q 0.03357,1.02233 0.216676,1.5869 0.183107,0.56457 0.860602,0.57372 0.500491,0 0.744634,-0.30211 0.247194,-0.30518 0.311281,-0.75074 0.06714,-0.4486 0.06714,-1.08336 0,-0.65002 -0.05798,-1.07726 -0.05493,-0.42725 -0.296023,-0.74158 -0.241091,-0.31738 -0.732427,-0.32043 -0.698857,0 -0.906378,0.57068 -0.207521,0.57067 -0.207521,1.54418 z"
         style="font-style:normal;font-variant:normal;font-weight:normal;font-stretch:normal;font-size:medium;line-height:125%;font-family:LilyUPC;-inkscape-font-specification:'LilyUPC, Normal';text-align:start;letter-spacing:0px;word-spacing:0px;writing-mode:lr-tb;text-anchor:start;fill:#ffffff;fill-opacity:1;stroke:none;stroke-width:1px;stroke-linecap:butt;stroke-linejoin:miter;stroke-opacity:1"
         id="path8191-7"
         inkscape:connector-curvature="0" />
      <path
         d="m 38.789304,877.42048 v -4.16257 h 1.174935 v 0.51269 q 0.0061,-0.006 0.07019,-0.0854 0.06714,-0.0824 0.198365,-0.1709 0.131226,-0.0885 0.357059,-0.16784 0.241089,-0.1007 0.613407,-0.1007 0.286867,0 0.360109,0.0244 l 0.100709,0.60119 q -0.213624,-0.0519 -0.399783,-0.0519 -0.405886,0 -0.674442,0.15258 -0.302126,0.14954 -0.463872,0.40894 -0.161744,0.2594 -0.161744,0.47607 v 2.56346 h -1.174935 z"
         style="font-style:normal;font-variant:normal;font-weight:normal;font-stretch:normal;font-size:medium;line-height:125%;font-family:LilyUPC;-inkscape-font-specification:'LilyUPC, Normal';text-align:start;letter-spacing:0px;word-spacing:0px;writing-mode:lr-tb;text-anchor:start;fill:#ffffff;fill-opacity:1;stroke:none;stroke-width:1px;stroke-linecap:butt;stroke-linejoin:miter;stroke-opacity:1"
         id="path8193-1"
         inkscape:connector-curvature="0" />
    </g>
    <g
       id="g2477">
      <path
         d="m 52.48439,759.94922 -0.476074,1.38855 H 51.09584 l 2.014161,-5.82581 h 1.486206 l 2.050781,5.82581 h -1.324463 l -0.512695,-1.38855 z m 2.050782,-0.84839 -0.888062,-2.48718 -0.85144,2.48718 z"
         style="font-style:normal;font-variant:normal;font-weight:normal;font-stretch:normal;font-size:medium;line-height:125%;font-family:LilyUPC;-inkscape-font-specification:'LilyUPC, Normal';text-align:start;letter-spacing:0px;word-spacing:0px;writing-mode:lr-tb;text-anchor:start;fill:#ffffff;fill-opacity:1;stroke:none;stroke-width:1px;stroke-linecap:butt;stroke-linejoin:miter;stroke-opacity:1"
         id="path8153-4"
         inkscape:connector-curvature="0" />
      <path
         d="m 60.464737,758.13647 v 3.2013 h -0.875855 v -3.04871 q 0,-0.5249 -0.79956,-0.5249 -0.390625,0.0458 -0.561524,0.24414 -0.167846,0.19531 -0.201416,0.31738 v 3.01209 h -1.174926 v -4.1626 h 1.174926 v 0.33875 q 0.02442,-0.0153 0.164795,-0.10987 0.143433,-0.0946 0.402832,-0.17395 0.262452,-0.0793 0.6073,-0.0793 0.650025,0 0.9552,0.29907 0.308228,0.29602 0.308228,0.68664 z"
         style="font-style:normal;font-variant:normal;font-weight:normal;font-stretch:normal;font-size:medium;line-height:125%;font-family:LilyUPC;-inkscape-font-specification:'LilyUPC, Normal';text-align:start;letter-spacing:0px;word-spacing:0px;writing-mode:lr-tb;text-anchor:start;fill:#ffffff;fill-opacity:1;stroke:none;stroke-width:1px;stroke-linecap:butt;stroke-linejoin:miter;stroke-opacity:1"
         id="path8155-0"
         inkscape:connector-curvature="0" />
      <path
         d="m 64.703629,755.51196 v 5.82581 h -1.16272 v -0.25025 q -0.06409,0.0671 -0.292969,0.1709 -0.228882,0.10376 -0.646973,0.10376 -0.479126,-0.006 -0.863647,-0.16479 -0.38147,-0.16175 -0.634766,-0.64697 -0.250244,-0.48523 -0.250244,-1.40076 0.01526,-1.21765 0.463867,-1.60828 0.451661,-0.39062 1.147461,-0.39062 0.656128,0 1.077271,0.21057 v -1.84937 z m -1.16272,4.93775 v -2.52381 q 0,-0.0366 -0.189209,-0.12512 -0.189209,-0.0885 -0.524903,-0.11291 -0.616455,0 -0.827026,0.37536 -0.210571,0.37232 -0.210571,1.07422 0,0.55847 0.09766,0.92163 0.100708,0.36011 0.335693,0.54627 0.234986,0.1831 0.628663,0.1831 0.286865,-0.0275 0.488281,-0.15869 0.201416,-0.13428 0.201416,-0.18005 z"
         style="font-style:normal;font-variant:normal;font-weight:normal;font-stretch:normal;font-size:medium;line-height:125%;font-family:LilyUPC;-inkscape-font-specification:'LilyUPC, Normal';text-align:start;letter-spacing:0px;word-spacing:0px;writing-mode:lr-tb;text-anchor:start;fill:#ffffff;fill-opacity:1;stroke:none;stroke-width:1px;stroke-linecap:butt;stroke-linejoin:miter;stroke-opacity:1"
         id="path8157-3"
         inkscape:connector-curvature="0" />
    </g>
    <g
       id="g2472">
      <path
         d="m 57.212782,780.46316 q 0.912482,0 1.470957,0.32959 0.558476,0.32653 0.799566,0.97045 0.241091,0.64391 0.241091,1.62658 0,1.01012 -0.265505,1.67235 -0.265505,0.65917 -0.82398,0.9796 -0.555424,0.32044 -1.434336,0.32044 -0.845343,0 -1.38856,-0.31433 -0.543217,-0.31433 -0.802617,-0.9735 -0.259401,-0.65918 -0.259401,-1.68456 0.0092,-1.46484 0.613407,-2.19116 0.607304,-0.7263 1.849378,-0.73546 z m -1.089485,2.92662 q 0.03357,1.02233 0.216676,1.5869 0.183107,0.56457 0.860602,0.57372 0.500491,0 0.744634,-0.30211 0.247194,-0.30518 0.311281,-0.75074 0.06714,-0.4486 0.06714,-1.08336 0,-0.65002 -0.05798,-1.07726 -0.05493,-0.42725 -0.296023,-0.74158 -0.241091,-0.31738 -0.732427,-0.32043 -0.698857,0 -0.906378,0.57068 -0.207521,0.57067 -0.207521,1.54418 z"
         style="font-style:normal;font-variant:normal;font-weight:normal;font-stretch:normal;font-size:medium;line-height:125%;font-family:LilyUPC;-inkscape-font-specification:'LilyUPC, Normal';text-align:start;letter-spacing:0px;word-spacing:0px;writing-mode:lr-tb;text-anchor:start;fill:#ffffff;fill-opacity:1;stroke:none;stroke-width:1px;stroke-linecap:butt;stroke-linejoin:miter;stroke-opacity:1"
         id="path8191-2"
         inkscape:connector-curvature="0" />
      <path
         d="m 60.182162,786.31334 v -4.16257 h 1.174935 v 0.51269 q 0.0061,-0.006 0.07019,-0.0854 0.06714,-0.0824 0.198365,-0.1709 0.131226,-0.0885 0.357059,-0.16784 0.241089,-0.1007 0.613407,-0.1007 0.286867,0 0.360109,0.0244 l 0.100709,0.60119 q -0.213624,-0.0519 -0.399783,-0.0519 -0.405886,0 -0.674442,0.15258 -0.302126,0.14954 -0.463872,0.40894 -0.161744,0.2594 -0.161744,0.47607 v 2.56346 H 60.18216 Z"
         style="font-style:normal;font-variant:normal;font-weight:normal;font-stretch:normal;font-size:medium;line-height:125%;font-family:LilyUPC;-inkscape-font-specification:'LilyUPC, Normal';text-align:start;letter-spacing:0px;word-spacing:0px;writing-mode:lr-tb;text-anchor:start;fill:#ffffff;fill-opacity:1;stroke:none;stroke-width:1px;stroke-linecap:butt;stroke-linejoin:miter;stroke-opacity:1"
         id="path8193-3"
         inkscape:connector-curvature="0" />
    </g>
  </g>
</svg>
