<?xml version="1.0" encoding="utf-8"?>
<svg width="450" height="380" viewBox="0 0 102.02350616455078 107.24446868896484" version="1.1" id="svg4541" xmlns="http://www.w3.org/2000/svg">
  <g id="layer1" transform="matrix(0.802814, 0, 0, 1, 4.463446, -92.265503)" style="display: inline; opacity: 1;">
    <path id="path25069" d="m -5.5597548,92.265503 127.0000448,0 0,107.244467 -127.0000448,0 z m 0,0" style="fill-opacity: 1; fill-rule: nonzero; stroke: none; stroke-width: 0.809245; fill: rgb(255, 213, 88);"/>
  </g>
  <g id="layer4" style="display: none;">
    <path id="path25479" d="m 122.49252,10.362765 c 0,-0.6082879 -0.35258,-1.1052831 -0.78279,-1.1052831 l -6.00999,0 c -0.43021,0 -0.78278,0.4969952 -0.78278,1.1052831 l 0,13.467727 c 0,0.60829 0.35257,1.105286 0.78278,1.105286 l 6.00999,0 c 0.43021,0 0.78279,-0.496996 0.78279,-1.105286 z m 0,0" style="fill:#212121;fill-opacity:1;fill-rule:nonzero;stroke:none;stroke-width:0.80924457"/>
    <g style="stroke-width:0.80924457" id="layer1-3" transform="translate(-0.12021117,-45.823558)">
      <g transform="matrix(0.26458333,0,0,0.26458333,-271.16296,-21.64884)" clip-path="url(#clip444)" id="g31387" style="clip-rule:nonzero"/>
    </g>
    <path id="path25515" d="m 122.70919,36.69708 c 0,-0.31407 -0.35258,-0.570679 -0.78279,-0.570679 l -6.00998,0 c -0.43021,0 -0.78279,0.256609 -0.78279,0.570679 l 0,6.953616 c 0,0.314073 0.35258,0.570678 0.78279,0.570678 l 6.00998,0 c 0.43021,0 0.78279,-0.256605 0.78279,-0.570678 z m 0,0" style="opacity:0.98000004;fill:#212121;fill-opacity:1;fill-rule:nonzero;stroke:none;stroke-width:0.80924457"/>
    <path id="path25479-2" d="m 122.52675,53.034413 c 0,-0.298584 -0.35258,-0.542541 -0.78279,-0.542541 l -6.00998,0 c -0.43021,0 -0.78279,0.243957 -0.78279,0.542541 l 0,6.610767 c 0,0.298585 0.35258,0.54254 0.78279,0.54254 l 6.00998,0 c 0.43021,0 0.78279,-0.243955 0.78279,-0.54254 z m 0,0" style="opacity:0.98000004;fill:#212121;fill-opacity:1;fill-rule:nonzero;stroke:none;stroke-width:0.80924457"/>
  </g>
  <g style="display:inline" id="g9658">
    <path id="path10734" style="font-style:normal;font-variant:normal;font-weight:normal;font-stretch:normal;font-size:medium;line-height:125%;font-family:LilyUPC;-inkscape-font-specification:'LilyUPC, Normal';text-align:start;letter-spacing:0px;word-spacing:0px;writing-mode:lr-tb;text-anchor:start;fill:#000000;fill-opacity:1;stroke:none;stroke-width:1px;stroke-linecap:butt;stroke-linejoin:miter;stroke-opacity:1" d="M 4.154 57.473 C 4.154 57.608 4.127 57.712 4.072 57.785 C 4.018 57.857 3.948 57.905 3.862 57.928 C 3.777 57.952 3.675 57.964 3.557 57.964 L 3.219 57.964 L 3.219 58.641 L 2.845 58.641 L 2.845 56.997 L 3.6 56.997 C 3.773 56.997 3.908 57.031 4.004 57.101 C 4.101 57.17 4.151 57.294 4.154 57.473 Z M 3.801 57.462 C 3.799 57.379 3.776 57.315 3.731 57.27 C 3.687 57.224 3.629 57.202 3.557 57.202 L 3.219 57.202 L 3.219 57.762 L 3.547 57.762 C 3.631 57.762 3.694 57.741 3.736 57.698 C 3.78 57.655 3.801 57.576 3.801 57.462 Z"/>
    <path id="path10736" style="font-style:normal;font-variant:normal;font-weight:normal;font-stretch:normal;font-size:medium;line-height:125%;font-family:LilyUPC;-inkscape-font-specification:'LilyUPC, Normal';text-align:start;letter-spacing:0px;word-spacing:0px;writing-mode:lr-tb;text-anchor:start;fill:#000000;fill-opacity:1;stroke:none;stroke-width:1px;stroke-linecap:butt;stroke-linejoin:miter;stroke-opacity:1" d="M 4.948 58.641 L 4.948 58.518 C 4.939 58.539 4.908 58.565 4.855 58.597 C 4.803 58.628 4.714 58.644 4.588 58.644 C 4.481 58.64 4.392 58.613 4.32 58.561 C 4.249 58.51 4.213 58.43 4.211 58.319 C 4.211 58.201 4.253 58.112 4.338 58.053 C 4.423 57.994 4.55 57.958 4.719 57.946 C 4.797 57.939 4.857 57.92 4.899 57.886 C 4.942 57.852 4.963 57.814 4.963 57.773 C 4.963 57.73 4.943 57.694 4.904 57.663 C 4.866 57.633 4.814 57.618 4.748 57.618 C 4.611 57.618 4.506 57.643 4.43 57.693 C 4.355 57.743 4.305 57.785 4.282 57.819 L 4.331 57.586 C 4.331 57.582 4.349 57.569 4.384 57.549 C 4.42 57.528 4.471 57.509 4.535 57.491 C 4.599 57.473 4.676 57.463 4.765 57.462 C 4.946 57.462 5.077 57.493 5.158 57.556 C 5.239 57.617 5.28 57.698 5.28 57.798 L 5.28 58.641 L 4.948 58.641 Z M 4.786 58.457 C 4.894 58.428 4.948 58.381 4.948 58.316 L 4.948 58.048 C 4.948 58.05 4.944 58.058 4.936 58.073 C 4.929 58.087 4.912 58.102 4.885 58.116 C 4.859 58.131 4.819 58.141 4.765 58.147 C 4.673 58.16 4.603 58.181 4.555 58.209 C 4.506 58.237 4.482 58.286 4.482 58.355 C 4.49 58.435 4.554 58.474 4.674 58.474 C 4.71 58.474 4.747 58.469 4.786 58.457 Z"/>
    <path id="path10738" style="font-style:normal;font-variant:normal;font-weight:normal;font-stretch:normal;font-size:medium;line-height:125%;font-family:LilyUPC;-inkscape-font-specification:'LilyUPC, Normal';text-align:start;letter-spacing:0px;word-spacing:0px;writing-mode:lr-tb;text-anchor:start;fill:#000000;fill-opacity:1;stroke:none;stroke-width:1px;stroke-linecap:butt;stroke-linejoin:miter;stroke-opacity:1" d="M 6.437 57.737 L 6.437 58.641 L 6.19 58.641 L 6.19 57.78 C 6.19 57.682 6.115 57.632 5.965 57.632 C 5.891 57.641 5.838 57.664 5.806 57.701 C 5.775 57.738 5.756 57.768 5.749 57.791 L 5.749 58.641 L 5.418 58.641 L 5.418 57.466 L 5.749 57.466 L 5.749 57.562 C 5.754 57.559 5.769 57.548 5.796 57.531 C 5.823 57.513 5.861 57.496 5.909 57.481 C 5.959 57.467 6.016 57.459 6.081 57.459 C 6.203 57.459 6.293 57.487 6.35 57.543 C 6.408 57.599 6.437 57.664 6.437 57.737 Z"/>
    <path id="path10725" style="font-style:normal;font-variant:normal;font-weight:normal;font-stretch:normal;font-size:medium;line-height:125%;font-family:LilyUPC;-inkscape-font-specification:'LilyUPC, Normal';text-align:start;letter-spacing:0px;word-spacing:0px;writing-mode:lr-tb;text-anchor:start;fill:#000000;fill-opacity:1;stroke:none;stroke-width:1px;stroke-linecap:butt;stroke-linejoin:miter;stroke-opacity:1" d="m 2.062218,82.24384 -0.1343588,0.391879 -0.2575209,0 0.5684409,-1.644172 0.4194405,0 0.5787761,1.644172 -0.3737929,0 -0.1446941,-0.391879 -0.6562908,0 z m 0.5787762,-0.239435 -0.2506308,-0.701938 -0.2402955,0.701938 0.4909263,0 z"/>
    <path id="path10727" style="font-style:normal;font-variant:normal;font-weight:normal;font-stretch:normal;font-size:medium;line-height:125%;font-family:LilyUPC;-inkscape-font-specification:'LilyUPC, Normal';text-align:start;letter-spacing:0px;word-spacing:0px;writing-mode:lr-tb;text-anchor:start;fill:#000000;fill-opacity:1;stroke:none;stroke-width:1px;stroke-linecap:butt;stroke-linejoin:miter;stroke-opacity:1" d="m 3.6262917,82.304129 q 0,0.07321 0.053399,0.121439 0.05426,0.04823 0.1334975,0.04823 0.1309136,-0.0034 0.1868964,-0.06201 0.055983,-0.05857 0.067179,-0.09732 l 0,-0.853523 0.2471857,0 0,1.174778 -0.2471857,0 0,-0.109382 q -0.03359,0.02842 -0.1455553,0.07063 -0.1119656,0.0422 -0.3091974,0.0422 -0.1464166,-0.0052 -0.232544,-0.08871 -0.085266,-0.08354 -0.085266,-0.235989 l 0,-0.853523 0.3315905,0 0,0.843188 z"/>
    <path id="path10729" style="font-style:normal;font-variant:normal;font-weight:normal;font-stretch:normal;font-size:medium;line-height:125%;font-family:LilyUPC;-inkscape-font-specification:'LilyUPC, Normal';text-align:start;letter-spacing:0px;word-spacing:0px;writing-mode:lr-tb;text-anchor:start;fill:#000000;fill-opacity:1;stroke:none;stroke-width:1px;stroke-linecap:butt;stroke-linejoin:miter;stroke-opacity:1" d="m 4.4625888,81.460941 0.377238,0 0.2084283,0.331591 0.2256539,-0.331591 0.2290989,0 -0.3453709,0.497817 0.4194404,0.676961 -0.3806831,0 -0.2437406,-0.391879 -0.2713013,0.391879 -0.2437406,0 0.3987699,-0.567579 -0.3737929,-0.607199 z"/>
    <path id="path10731" style="font-style:normal;font-variant:normal;font-weight:normal;font-stretch:normal;font-size:medium;line-height:125%;font-family:LilyUPC;-inkscape-font-specification:'LilyUPC, Normal';text-align:start;letter-spacing:0px;word-spacing:0px;writing-mode:lr-tb;text-anchor:start;fill:#000000;fill-opacity:1;stroke:none;stroke-width:1px;stroke-linecap:butt;stroke-linejoin:miter;stroke-opacity:1" d="m 7.8051935,82.416956 0,0.218763 -1.3056915,0 0,-0.208428 q 0,-0.03531 0.043064,-0.12144 0.043925,-0.08699 0.1567519,-0.204983 0.1136881,-0.117994 0.3117812,-0.237712 0.1860352,-0.110243 0.2721626,-0.171393 0.086989,-0.06201 0.125746,-0.123162 0.039619,-0.06201 0.039619,-0.146417 -0.00689,-0.231683 -0.3178101,-0.235989 -0.2463244,0 -0.402215,0.106798 -0.1558906,0.106798 -0.2110122,0.178284 l 0,-0.299724 q 0,-0.0052 0.037896,-0.03617 0.038757,-0.03187 0.1102431,-0.06804 0.071486,-0.03704 0.1868964,-0.06459 0.1154108,-0.02756 0.2713014,-0.02842 0.2334053,0 0.3892959,0.06029 0.1567518,0.06029 0.2342665,0.1757 0.078376,0.11541 0.078376,0.275607 -0.010335,0.08441 -0.042203,0.149001 -0.031006,0.06373 -0.1171333,0.137804 -0.085266,0.07407 -0.2394341,0.157613 -0.3867121,0.211012 -0.5253772,0.444417 l -0.024977,0.0422 0.9284535,0 z"/>
    <path id="path10718" style="font-style:normal;font-variant:normal;font-weight:normal;font-stretch:normal;font-size:medium;line-height:125%;font-family:LilyUPC;-inkscape-font-specification:'LilyUPC, Normal';text-align:start;letter-spacing:0px;word-spacing:0px;writing-mode:lr-tb;text-anchor:start;fill:#000000;fill-opacity:1;stroke:none;stroke-width:1px;stroke-linecap:butt;stroke-linejoin:miter;stroke-opacity:1" d="M 3.626 42.787 L 2.847 41.126 L 3.235 41.126 L 3.69 42.085 L 4.053 41.126 L 4.286 41.126 L 3.626 42.787 Z"/>
    <path id="path10720" style="font-style:normal;font-variant:normal;font-weight:normal;font-stretch:normal;font-size:medium;line-height:125%;font-family:LilyUPC;-inkscape-font-specification:'LilyUPC, Normal';text-align:start;letter-spacing:0px;word-spacing:0px;writing-mode:lr-tb;text-anchor:start;fill:#000000;fill-opacity:1;stroke:none;stroke-width:1px;stroke-linecap:butt;stroke-linejoin:miter;stroke-opacity:1" d="M 4.894 41.589 C 5.031 41.589 5.14 41.611 5.221 41.655 C 5.303 41.699 5.362 41.765 5.398 41.851 C 5.433 41.938 5.451 42.048 5.451 42.181 C 5.451 42.39 5.407 42.542 5.319 42.639 C 5.23 42.736 5.086 42.784 4.886 42.784 C 4.697 42.782 4.557 42.734 4.467 42.638 C 4.377 42.543 4.332 42.392 4.332 42.185 C 4.336 41.787 4.523 41.589 4.894 41.589 Z M 4.661 42.181 C 4.665 42.283 4.67 42.36 4.678 42.413 C 4.686 42.465 4.707 42.512 4.741 42.555 C 4.774 42.597 4.827 42.619 4.897 42.619 C 4.996 42.619 5.058 42.581 5.084 42.507 C 5.11 42.431 5.123 42.325 5.123 42.188 C 5.123 42.053 5.11 41.947 5.083 41.868 C 5.058 41.79 4.996 41.75 4.897 41.75 C 4.796 41.753 4.731 41.793 4.703 41.868 C 4.675 41.944 4.661 42.048 4.661 42.181 Z"/>
    <path id="path10722" style="font-style:normal;font-variant:normal;font-weight:normal;font-stretch:normal;font-size:medium;line-height:125%;font-family:LilyUPC;-inkscape-font-specification:'LilyUPC, Normal';text-align:start;letter-spacing:0px;word-spacing:0px;writing-mode:lr-tb;text-anchor:start;fill:#000000;fill-opacity:1;stroke:none;stroke-width:1px;stroke-linecap:butt;stroke-linejoin:miter;stroke-opacity:1" d="M 5.567 42.77 L 5.567 41.126 L 5.891 41.126 L 5.891 42.77 L 5.567 42.77 Z"/>
    <path id="path10709" style="font-style:normal;font-variant:normal;font-weight:normal;font-stretch:normal;font-size:medium;line-height:125%;font-family:LilyUPC;-inkscape-font-specification:'LilyUPC, Normal';text-align:start;letter-spacing:0px;word-spacing:0px;writing-mode:lr-tb;text-anchor:start;fill:#000000;fill-opacity:1;stroke:none;stroke-width:1px;stroke-linecap:butt;stroke-linejoin:miter;stroke-opacity:1" d="m 2.1214005,74.131321 -0.1343587,0.39188 -0.257521,0 0.5684409,-1.644172 0.4194405,0 0.5787762,1.644172 -0.373793,0 -0.144694,-0.39188 -0.6562909,0 z m 0.5787762,-0.239434 -0.2506308,-0.701938 -0.2402954,0.701938 0.4909262,0 z"/>
    <path id="path10711" style="font-style:normal;font-variant:normal;font-weight:normal;font-stretch:normal;font-size:medium;line-height:125%;font-family:LilyUPC;-inkscape-font-specification:'LilyUPC, Normal';text-align:start;letter-spacing:0px;word-spacing:0px;writing-mode:lr-tb;text-anchor:start;fill:#000000;fill-opacity:1;stroke:none;stroke-width:1px;stroke-linecap:butt;stroke-linejoin:miter;stroke-opacity:1" d="m 3.6854742,74.19161 q 0,0.07321 0.053399,0.12144 0.05426,0.04823 0.1334975,0.04823 0.1309137,-0.0034 0.1868965,-0.06201 0.055983,-0.05857 0.067179,-0.09732 l 0,-0.853523 0.2471857,0 0,1.174778 -0.2471857,0 0,-0.109382 q -0.03359,0.02842 -0.1455553,0.07062 -0.1119656,0.0422 -0.3091974,0.0422 -0.1464166,-0.0052 -0.232544,-0.08871 -0.085266,-0.08354 -0.085266,-0.235989 l 0,-0.853523 0.3315905,0 0,0.843187 z"/>
    <path id="path10713" style="font-style:normal;font-variant:normal;font-weight:normal;font-stretch:normal;font-size:medium;line-height:125%;font-family:LilyUPC;-inkscape-font-specification:'LilyUPC, Normal';text-align:start;letter-spacing:0px;word-spacing:0px;writing-mode:lr-tb;text-anchor:start;fill:#000000;fill-opacity:1;stroke:none;stroke-width:1px;stroke-linecap:butt;stroke-linejoin:miter;stroke-opacity:1" d="m 4.5217713,73.348423 0.377238,0 0.2084284,0.331591 0.2256538,-0.331591 0.2290989,0 -0.3453709,0.497817 0.4194405,0.676961 -0.3806832,0 -0.2437405,-0.39188 -0.2713014,0.39188 -0.2437405,0 0.3987699,-0.56758 -0.373793,-0.607198 z"/>
    <path id="path10715" style="font-style:normal;font-variant:normal;font-weight:normal;font-stretch:normal;font-size:medium;line-height:125%;font-family:LilyUPC;-inkscape-font-specification:'LilyUPC, Normal';text-align:start;letter-spacing:0px;word-spacing:0px;writing-mode:lr-tb;text-anchor:start;fill:#000000;fill-opacity:1;stroke:none;stroke-width:1px;stroke-linecap:butt;stroke-linejoin:miter;stroke-opacity:1" d="m 6.7214653,73.038364 0.7191639,-0.176561 0,1.661398 -0.3634577,0 0,-1.347894 -0.3557062,0.07751 0,-0.214458 z"/>
    <path id="path10700" style="font-style:normal;font-variant:normal;font-weight:normal;font-stretch:normal;font-size:medium;line-height:125%;font-family:LilyUPC;-inkscape-font-specification:'LilyUPC, Normal';text-align:start;letter-spacing:0px;word-spacing:0px;writing-mode:lr-tb;text-anchor:start;fill:#000000;fill-opacity:1;stroke:none;stroke-width:1px;stroke-linecap:butt;stroke-linejoin:miter;stroke-opacity:1" d="M 3.618 88.817 L 3.155 89.949 L 2.675 88.817 L 2.675 89.917 L 2.411 89.917 L 2.411 88.273 L 2.827 88.273 L 3.212 89.134 L 3.582 88.273 L 3.991 88.273 L 3.991 89.917 L 3.618 89.917 L 3.618 88.817 Z"/>
    <path id="path10702" style="font-style:normal;font-variant:normal;font-weight:normal;font-stretch:normal;font-size:medium;line-height:125%;font-family:LilyUPC;-inkscape-font-specification:'LilyUPC, Normal';text-align:start;letter-spacing:0px;word-spacing:0px;writing-mode:lr-tb;text-anchor:start;fill:#000000;fill-opacity:1;stroke:none;stroke-width:1px;stroke-linecap:butt;stroke-linejoin:miter;stroke-opacity:1" d="M 4.499 89.586 C 4.499 89.634 4.517 89.675 4.552 89.707 C 4.588 89.739 4.633 89.755 4.686 89.755 C 4.773 89.753 4.835 89.732 4.873 89.693 C 4.91 89.654 4.932 89.622 4.94 89.596 L 4.94 88.742 L 5.187 88.742 L 5.187 89.917 L 4.94 89.917 L 4.94 89.808 C 4.917 89.827 4.869 89.85 4.794 89.878 C 4.72 89.907 4.616 89.921 4.485 89.921 C 4.387 89.917 4.31 89.888 4.252 89.832 C 4.196 89.776 4.167 89.698 4.167 89.596 L 4.167 88.742 L 4.499 88.742 L 4.499 89.586 Z"/>
    <path id="path10704" style="font-style:normal;font-variant:normal;font-weight:normal;font-stretch:normal;font-size:medium;line-height:125%;font-family:LilyUPC;-inkscape-font-specification:'LilyUPC, Normal';text-align:start;letter-spacing:0px;word-spacing:0px;writing-mode:lr-tb;text-anchor:start;fill:#000000;fill-opacity:1;stroke:none;stroke-width:1px;stroke-linecap:butt;stroke-linejoin:miter;stroke-opacity:1" d="M 5.839 88.891 L 5.839 89.572 C 5.839 89.64 5.859 89.688 5.899 89.717 C 5.928 89.74 5.982 89.751 6.062 89.751 L 6.062 89.917 C 6.055 89.918 6.043 89.918 6.025 89.919 C 6.007 89.92 5.986 89.921 5.963 89.921 C 5.812 89.921 5.701 89.895 5.631 89.843 C 5.549 89.787 5.507 89.692 5.507 89.557 L 5.507 88.891 L 5.285 88.891 L 5.285 88.742 L 5.507 88.742 L 5.507 88.273 L 5.839 88.273 L 5.839 88.742 L 6.062 88.742 L 6.062 88.891 L 5.839 88.891 Z"/>
    <path id="path10706" style="font-style:normal;font-variant:normal;font-weight:normal;font-stretch:normal;font-size:medium;line-height:125%;font-family:LilyUPC;-inkscape-font-specification:'LilyUPC, Normal';text-align:start;letter-spacing:0px;word-spacing:0px;writing-mode:lr-tb;text-anchor:start;fill:#000000;fill-opacity:1;stroke:none;stroke-width:1px;stroke-linecap:butt;stroke-linejoin:miter;stroke-opacity:1" d="M 6.434 89.388 C 6.439 89.45 6.46 89.529 6.498 89.624 C 6.535 89.718 6.603 89.768 6.702 89.773 C 6.822 89.773 6.917 89.757 6.985 89.727 C 7.054 89.696 7.098 89.67 7.119 89.649 L 7.069 89.854 C 7.069 89.866 7.035 89.882 6.966 89.902 C 6.898 89.921 6.811 89.931 6.705 89.931 C 6.663 89.931 6.631 89.93 6.607 89.928 C 6.436 89.915 6.311 89.866 6.231 89.78 C 6.152 89.694 6.111 89.556 6.109 89.367 C 6.109 89.15 6.154 88.991 6.245 88.89 C 6.335 88.789 6.468 88.737 6.642 88.736 C 6.852 88.736 6.994 88.791 7.069 88.901 C 7.133 88.992 7.164 89.116 7.164 89.271 C 7.164 89.301 7.164 89.326 7.162 89.346 C 7.16 89.366 7.159 89.38 7.158 89.388 L 6.434 89.388 Z M 6.674 88.884 C 6.514 88.889 6.434 89.005 6.434 89.233 L 6.946 89.233 C 6.946 89 6.855 88.884 6.674 88.884 Z"/>
    <path id="path10677" style="font-style:normal;font-variant:normal;font-weight:normal;font-stretch:normal;font-size:medium;line-height:125%;font-family:LilyUPC;-inkscape-font-specification:LilyUPC;letter-spacing:0px;word-spacing:0px;fill:#000000;fill-opacity:1;stroke:none;stroke-width:1px;stroke-linecap:butt;stroke-linejoin:miter;stroke-opacity:1" d="M 21.292 3.62 L 20.459 5.658 L 19.596 3.62 L 19.596 5.601 L 19.12 5.601 L 19.12 2.641 L 19.869 2.641 L 20.561 4.192 L 21.228 2.641 L 21.965 2.641 L 21.965 5.601 L 21.292 5.601 L 21.292 3.62 Z"/>
    <path id="path10679" style="font-style:normal;font-variant:normal;font-weight:normal;font-stretch:normal;font-size:medium;line-height:125%;font-family:LilyUPC;-inkscape-font-specification:LilyUPC;letter-spacing:0px;word-spacing:0px;fill:#000000;fill-opacity:1;stroke:none;stroke-width:1px;stroke-linecap:butt;stroke-linejoin:miter;stroke-opacity:1" d="M 22.814 4.649 C 22.823 4.761 22.862 4.902 22.929 5.072 C 22.996 5.243 23.118 5.332 23.296 5.34 C 23.513 5.34 23.683 5.313 23.806 5.258 C 23.929 5.202 24.009 5.156 24.047 5.119 L 23.957 5.486 C 23.957 5.508 23.895 5.537 23.772 5.573 C 23.649 5.608 23.493 5.626 23.302 5.626 C 23.227 5.626 23.168 5.624 23.126 5.619 C 22.818 5.597 22.592 5.508 22.448 5.354 C 22.306 5.199 22.233 4.951 22.23 4.61 C 22.23 4.22 22.311 3.933 22.473 3.751 C 22.636 3.569 22.875 3.477 23.189 3.474 C 23.566 3.474 23.822 3.573 23.957 3.772 C 24.071 3.936 24.129 4.158 24.129 4.438 C 24.129 4.491 24.127 4.536 24.124 4.573 C 24.121 4.609 24.118 4.635 24.116 4.649 L 22.814 4.649 Z M 23.247 3.741 C 22.958 3.75 22.814 3.959 22.814 4.368 L 23.735 4.368 C 23.735 3.95 23.572 3.741 23.247 3.741 Z"/>
    <path id="path10681" style="font-style:normal;font-variant:normal;font-weight:normal;font-stretch:normal;font-size:medium;line-height:125%;font-family:LilyUPC;-inkscape-font-specification:LilyUPC;letter-spacing:0px;word-spacing:0px;fill:#000000;fill-opacity:1;stroke:none;stroke-width:1px;stroke-linecap:butt;stroke-linejoin:miter;stroke-opacity:1" d="M 26.138 3.975 L 26.138 5.601 L 25.693 5.601 L 25.693 4.052 C 25.693 3.874 25.558 3.786 25.287 3.786 C 25.154 3.801 25.059 3.842 25.002 3.91 C 24.945 3.976 24.911 4.029 24.899 4.071 L 24.899 5.601 L 24.302 5.601 L 24.302 3.486 L 24.899 3.486 L 24.899 3.658 C 24.907 3.653 24.935 3.635 24.983 3.603 C 25.031 3.571 25.1 3.541 25.188 3.514 C 25.276 3.487 25.379 3.474 25.496 3.474 C 25.716 3.474 25.878 3.525 25.981 3.626 C 26.086 3.726 26.138 3.842 26.138 3.975 Z"/>
    <path id="path10683" style="font-style:normal;font-variant:normal;font-weight:normal;font-stretch:normal;font-size:medium;line-height:125%;font-family:LilyUPC;-inkscape-font-specification:LilyUPC;letter-spacing:0px;word-spacing:0px;fill:#000000;fill-opacity:1;stroke:none;stroke-width:1px;stroke-linecap:butt;stroke-linejoin:miter;stroke-opacity:1" d="M 27.287 3.753 L 27.287 4.979 C 27.287 5.101 27.323 5.188 27.395 5.24 C 27.447 5.281 27.545 5.302 27.688 5.302 L 27.688 5.601 C 27.676 5.602 27.654 5.603 27.622 5.604 C 27.588 5.606 27.551 5.607 27.51 5.607 C 27.238 5.607 27.039 5.561 26.913 5.468 C 26.764 5.366 26.69 5.195 26.69 4.953 L 26.69 3.753 L 26.29 3.753 L 26.29 3.486 L 26.69 3.486 L 26.69 2.641 L 27.287 2.641 L 27.287 3.486 L 27.688 3.486 L 27.688 3.753 L 27.287 3.753 Z"/>
    <path id="path10685" style="font-style:normal;font-variant:normal;font-weight:normal;font-stretch:normal;font-size:medium;line-height:125%;font-family:LilyUPC;-inkscape-font-specification:LilyUPC;letter-spacing:0px;word-spacing:0px;fill:#000000;fill-opacity:1;stroke:none;stroke-width:1px;stroke-linecap:butt;stroke-linejoin:miter;stroke-opacity:1" d="M 29.088 5.601 L 29.088 5.379 C 29.072 5.417 29.016 5.465 28.921 5.522 C 28.827 5.579 28.666 5.607 28.44 5.607 C 28.247 5.6 28.086 5.55 27.958 5.458 C 27.83 5.366 27.764 5.221 27.761 5.023 C 27.761 4.81 27.837 4.65 27.989 4.544 C 28.142 4.437 28.371 4.373 28.676 4.35 C 28.816 4.338 28.924 4.303 29 4.243 C 29.076 4.182 29.114 4.114 29.114 4.038 C 29.114 3.962 29.079 3.896 29.009 3.841 C 28.94 3.787 28.846 3.759 28.727 3.759 C 28.482 3.759 28.291 3.805 28.155 3.896 C 28.019 3.985 27.931 4.061 27.888 4.122 L 27.977 3.702 C 27.977 3.695 28.009 3.672 28.073 3.635 C 28.138 3.598 28.228 3.563 28.344 3.531 C 28.46 3.498 28.598 3.481 28.758 3.48 C 29.084 3.48 29.321 3.536 29.466 3.648 C 29.612 3.758 29.685 3.903 29.685 4.083 L 29.685 5.601 L 29.088 5.601 Z M 28.797 5.271 C 28.991 5.218 29.088 5.133 29.088 5.016 L 29.088 4.534 C 29.087 4.537 29.08 4.552 29.066 4.579 C 29.053 4.605 29.022 4.631 28.975 4.657 C 28.927 4.683 28.855 4.701 28.758 4.713 C 28.593 4.735 28.466 4.773 28.38 4.824 C 28.293 4.875 28.249 4.962 28.249 5.086 C 28.263 5.23 28.378 5.302 28.594 5.302 C 28.659 5.302 28.726 5.291 28.797 5.271 Z"/>
    <path id="path10687" style="font-style:normal;font-variant:normal;font-weight:normal;font-stretch:normal;font-size:medium;line-height:125%;font-family:LilyUPC;-inkscape-font-specification:LilyUPC;letter-spacing:0px;word-spacing:0px;fill:#000000;fill-opacity:1;stroke:none;stroke-width:1px;stroke-linecap:butt;stroke-linejoin:miter;stroke-opacity:1" d="M 29.945 5.601 L 29.945 2.641 L 30.53 2.641 L 30.53 5.601 L 29.945 5.601 Z"/>
    <path id="path10689" style="font-style:normal;font-variant:normal;font-weight:normal;font-stretch:normal;font-size:medium;line-height:125%;font-family:LilyUPC;-inkscape-font-specification:LilyUPC;letter-spacing:0px;word-spacing:0px;fill:#000000;fill-opacity:1;stroke:none;stroke-width:1px;stroke-linecap:butt;stroke-linejoin:miter;stroke-opacity:1" d="M 34.562 3.62 L 33.73 5.658 L 32.866 3.62 L 32.866 5.601 L 32.39 5.601 L 32.39 2.641 L 33.139 2.641 L 33.832 4.192 L 34.499 2.641 L 35.235 2.641 L 35.235 5.601 L 34.562 5.601 L 34.562 3.62 Z"/>
    <path id="path10691" style="font-style:normal;font-variant:normal;font-weight:normal;font-stretch:normal;font-size:medium;line-height:125%;font-family:LilyUPC;-inkscape-font-specification:LilyUPC;letter-spacing:0px;word-spacing:0px;fill:#000000;fill-opacity:1;stroke:none;stroke-width:1px;stroke-linecap:butt;stroke-linejoin:miter;stroke-opacity:1" d="M 35.557 5.601 L 35.557 3.486 L 36.148 3.486 L 36.148 5.601 L 35.557 5.601 Z M 35.857 2.635 C 35.962 2.635 36.044 2.668 36.103 2.734 C 36.163 2.801 36.193 2.88 36.193 2.972 C 36.193 3.066 36.163 3.146 36.102 3.213 C 36.042 3.281 35.958 3.314 35.85 3.314 C 35.747 3.314 35.665 3.281 35.604 3.213 C 35.543 3.145 35.513 3.067 35.513 2.978 C 35.513 2.887 35.543 2.807 35.604 2.739 C 35.665 2.67 35.749 2.635 35.857 2.635 Z"/>
    <path id="path10693" style="font-style:normal;font-variant:normal;font-weight:normal;font-stretch:normal;font-size:medium;line-height:125%;font-family:LilyUPC;-inkscape-font-specification:LilyUPC;letter-spacing:0px;word-spacing:0px;fill:#000000;fill-opacity:1;stroke:none;stroke-width:1px;stroke-linecap:butt;stroke-linejoin:miter;stroke-opacity:1" d="M 36.388 3.486 L 37.067 3.486 L 37.443 4.083 L 37.849 3.486 L 38.261 3.486 L 37.64 4.382 L 38.395 5.601 L 37.709 5.601 L 37.271 4.896 L 36.782 5.601 L 36.343 5.601 L 37.061 4.579 L 36.388 3.486 Z"/>
    <path id="path10695" style="font-style:normal;font-variant:normal;font-weight:normal;font-stretch:normal;font-size:medium;line-height:125%;font-family:LilyUPC;-inkscape-font-specification:LilyUPC;letter-spacing:0px;word-spacing:0px;fill:#000000;fill-opacity:1;stroke:none;stroke-width:1px;stroke-linecap:butt;stroke-linejoin:miter;stroke-opacity:1" d="M 39.012 4.649 C 39.021 4.761 39.059 4.902 39.126 5.072 C 39.193 5.243 39.316 5.332 39.494 5.34 C 39.711 5.34 39.881 5.313 40.004 5.258 C 40.127 5.202 40.207 5.156 40.244 5.119 L 40.154 5.486 C 40.154 5.508 40.093 5.537 39.97 5.573 C 39.847 5.608 39.69 5.626 39.5 5.626 C 39.424 5.626 39.366 5.624 39.323 5.619 C 39.015 5.597 38.789 5.508 38.646 5.354 C 38.503 5.199 38.43 4.951 38.427 4.61 C 38.427 4.22 38.508 3.933 38.67 3.751 C 38.834 3.569 39.073 3.477 39.387 3.474 C 39.764 3.474 40.02 3.573 40.154 3.772 C 40.269 3.936 40.326 4.158 40.326 4.438 C 40.326 4.491 40.325 4.536 40.321 4.573 C 40.318 4.609 40.316 4.635 40.314 4.649 L 39.011 4.649 Z M 39.444 3.741 C 39.156 3.75 39.012 3.959 39.012 4.368 L 39.932 4.368 C 39.932 3.95 39.77 3.741 39.444 3.741 Z"/>
    <path id="path10697" style="font-style:normal;font-variant:normal;font-weight:normal;font-stretch:normal;font-size:medium;line-height:125%;font-family:LilyUPC;-inkscape-font-specification:LilyUPC;letter-spacing:0px;word-spacing:0px;fill:#000000;fill-opacity:1;stroke:none;stroke-width:1px;stroke-linecap:butt;stroke-linejoin:miter;stroke-opacity:1" d="M 40.5 5.601 L 40.5 3.486 L 41.097 3.486 L 41.097 3.747 C 41.099 3.745 41.111 3.73 41.132 3.703 C 41.155 3.675 41.189 3.646 41.233 3.617 C 41.278 3.587 41.338 3.558 41.414 3.531 C 41.496 3.497 41.6 3.48 41.726 3.48 C 41.823 3.48 41.884 3.484 41.909 3.492 L 41.96 3.798 C 41.888 3.78 41.82 3.772 41.757 3.772 C 41.62 3.772 41.505 3.797 41.414 3.849 C 41.312 3.9 41.234 3.969 41.179 4.057 C 41.124 4.145 41.097 4.225 41.097 4.299 L 41.097 5.601 L 40.5 5.601 Z"/>
    <path id="path10672" style="font-style:normal;font-variant:normal;font-weight:normal;font-stretch:normal;font-size:medium;line-height:125%;font-family:LilyUPC;-inkscape-font-specification:'LilyUPC, Normal';text-align:start;letter-spacing:0px;word-spacing:0px;writing-mode:lr-tb;text-anchor:start;fill:#000000;fill-opacity:1;stroke:none;stroke-width:1px;stroke-linecap:butt;stroke-linejoin:miter;stroke-opacity:1" d="M 4.089 31.127 L 4.089 32.772 L 3.715 32.772 L 3.715 31.127 L 4.089 31.127 Z"/>
    <path id="path10674" style="font-style:normal;font-variant:normal;font-weight:normal;font-stretch:normal;font-size:medium;line-height:125%;font-family:LilyUPC;-inkscape-font-specification:'LilyUPC, Normal';text-align:start;letter-spacing:0px;word-spacing:0px;writing-mode:lr-tb;text-anchor:start;fill:#000000;fill-opacity:1;stroke:none;stroke-width:1px;stroke-linecap:butt;stroke-linejoin:miter;stroke-opacity:1" d="M 5.279 31.868 L 5.279 32.772 L 5.031 32.772 L 5.031 31.911 C 5.031 31.812 4.956 31.763 4.806 31.763 C 4.732 31.772 4.68 31.795 4.647 31.832 C 4.616 31.869 4.597 31.899 4.591 31.921 L 4.591 32.772 L 4.259 32.772 L 4.259 31.597 L 4.591 31.597 L 4.591 31.692 C 4.595 31.69 4.611 31.679 4.637 31.661 C 4.664 31.644 4.702 31.627 4.751 31.612 C 4.8 31.597 4.857 31.59 4.922 31.59 C 5.044 31.59 5.134 31.618 5.192 31.674 C 5.25 31.73 5.279 31.795 5.279 31.868 Z"/>
    <path id="path10560" style="font-style:normal;font-variant:normal;font-weight:normal;font-stretch:normal;font-size:medium;line-height:125%;font-family:LilyUPC;-inkscape-font-specification:'LilyUPC, Normal';text-align:start;letter-spacing:0px;word-spacing:0px;writing-mode:lr-tb;text-anchor:start;fill:#000000;fill-opacity:1;stroke:none;stroke-width:1px;stroke-linecap:butt;stroke-linejoin:miter;stroke-opacity:1" d="M 4.154 57.473 C 4.154 57.608 4.127 57.712 4.072 57.785 C 4.018 57.857 3.948 57.905 3.862 57.928 C 3.777 57.952 3.675 57.964 3.557 57.964 L 3.219 57.964 L 3.219 58.641 L 2.845 58.641 L 2.845 56.997 L 3.6 56.997 C 3.773 56.997 3.908 57.031 4.004 57.101 C 4.101 57.17 4.151 57.294 4.154 57.473 Z M 3.801 57.462 C 3.799 57.379 3.776 57.315 3.731 57.27 C 3.687 57.224 3.629 57.202 3.557 57.202 L 3.219 57.202 L 3.219 57.762 L 3.547 57.762 C 3.631 57.762 3.694 57.741 3.736 57.698 C 3.78 57.655 3.801 57.576 3.801 57.462 Z"/>
    <path id="path10562" style="font-style:normal;font-variant:normal;font-weight:normal;font-stretch:normal;font-size:medium;line-height:125%;font-family:LilyUPC;-inkscape-font-specification:'LilyUPC, Normal';text-align:start;letter-spacing:0px;word-spacing:0px;writing-mode:lr-tb;text-anchor:start;fill:#000000;fill-opacity:1;stroke:none;stroke-width:1px;stroke-linecap:butt;stroke-linejoin:miter;stroke-opacity:1" d="M 4.948 58.641 L 4.948 58.518 C 4.939 58.539 4.908 58.565 4.855 58.597 C 4.803 58.628 4.714 58.644 4.588 58.644 C 4.481 58.64 4.392 58.613 4.32 58.561 C 4.249 58.51 4.213 58.43 4.211 58.319 C 4.211 58.201 4.253 58.112 4.338 58.053 C 4.423 57.994 4.55 57.958 4.719 57.946 C 4.797 57.939 4.857 57.92 4.899 57.886 C 4.942 57.852 4.963 57.814 4.963 57.773 C 4.963 57.73 4.943 57.694 4.904 57.663 C 4.866 57.633 4.814 57.618 4.748 57.618 C 4.611 57.618 4.506 57.643 4.43 57.693 C 4.355 57.743 4.305 57.785 4.282 57.819 L 4.331 57.586 C 4.331 57.582 4.349 57.569 4.384 57.549 C 4.42 57.528 4.471 57.509 4.535 57.491 C 4.599 57.473 4.676 57.463 4.765 57.462 C 4.946 57.462 5.077 57.493 5.158 57.556 C 5.239 57.617 5.28 57.698 5.28 57.798 L 5.28 58.641 L 4.948 58.641 Z M 4.786 58.457 C 4.894 58.428 4.948 58.381 4.948 58.316 L 4.948 58.048 C 4.948 58.05 4.944 58.058 4.936 58.073 C 4.929 58.087 4.912 58.102 4.885 58.116 C 4.859 58.131 4.819 58.141 4.765 58.147 C 4.673 58.16 4.603 58.181 4.555 58.209 C 4.506 58.237 4.482 58.286 4.482 58.355 C 4.49 58.435 4.554 58.474 4.674 58.474 C 4.71 58.474 4.747 58.469 4.786 58.457 Z"/>
    <path id="path10564" style="font-style:normal;font-variant:normal;font-weight:normal;font-stretch:normal;font-size:medium;line-height:125%;font-family:LilyUPC;-inkscape-font-specification:'LilyUPC, Normal';text-align:start;letter-spacing:0px;word-spacing:0px;writing-mode:lr-tb;text-anchor:start;fill:#000000;fill-opacity:1;stroke:none;stroke-width:1px;stroke-linecap:butt;stroke-linejoin:miter;stroke-opacity:1" d="M 6.437 57.737 L 6.437 58.641 L 6.19 58.641 L 6.19 57.78 C 6.19 57.682 6.115 57.632 5.965 57.632 C 5.891 57.641 5.838 57.664 5.806 57.701 C 5.775 57.738 5.756 57.768 5.749 57.791 L 5.749 58.641 L 5.418 58.641 L 5.418 57.466 L 5.749 57.466 L 5.749 57.562 C 5.754 57.559 5.769 57.548 5.796 57.531 C 5.823 57.513 5.861 57.496 5.909 57.481 C 5.959 57.467 6.016 57.459 6.081 57.459 C 6.203 57.459 6.293 57.487 6.35 57.543 C 6.408 57.599 6.437 57.664 6.437 57.737 Z"/>
    <path id="path10534" style="font-style:normal;font-variant:normal;font-weight:normal;font-stretch:normal;font-size:medium;line-height:125%;font-family:LilyUPC;-inkscape-font-specification:'LilyUPC, Normal';text-align:start;letter-spacing:0px;word-spacing:0px;writing-mode:lr-tb;text-anchor:start;fill:#000000;fill-opacity:1;stroke:none;stroke-width:1px;stroke-linecap:butt;stroke-linejoin:miter;stroke-opacity:1" d="M 2.207 96.154 L 1.744 97.287 L 1.264 96.154 L 1.264 97.255 L 1 97.255 L 1 95.611 L 1.416 95.611 L 1.801 96.472 L 2.171 95.611 L 2.58 95.611 L 2.58 97.255 L 2.207 97.255 L 2.207 96.154 Z"/>
    <path id="path10536" style="font-style:normal;font-variant:normal;font-weight:normal;font-stretch:normal;font-size:medium;line-height:125%;font-family:LilyUPC;-inkscape-font-specification:'LilyUPC, Normal';text-align:start;letter-spacing:0px;word-spacing:0px;writing-mode:lr-tb;text-anchor:start;fill:#000000;fill-opacity:1;stroke:none;stroke-width:1px;stroke-linecap:butt;stroke-linejoin:miter;stroke-opacity:1" d="M 3.088 96.923 C 3.088 96.972 3.105 97.013 3.141 97.045 C 3.177 97.077 3.222 97.093 3.275 97.093 C 3.362 97.091 3.424 97.07 3.461 97.031 C 3.499 96.992 3.521 96.96 3.529 96.934 L 3.529 96.08 L 3.776 96.08 L 3.776 97.255 L 3.529 97.255 L 3.529 97.146 C 3.506 97.165 3.458 97.188 3.383 97.216 C 3.308 97.244 3.205 97.258 3.074 97.258 C 2.976 97.255 2.899 97.225 2.841 97.17 C 2.784 97.114 2.756 97.035 2.756 96.934 L 2.756 96.08 L 3.088 96.08 L 3.088 96.923 Z"/>
    <path id="path10538" style="font-style:normal;font-variant:normal;font-weight:normal;font-stretch:normal;font-size:medium;line-height:125%;font-family:LilyUPC;-inkscape-font-specification:'LilyUPC, Normal';text-align:start;letter-spacing:0px;word-spacing:0px;writing-mode:lr-tb;text-anchor:start;fill:#000000;fill-opacity:1;stroke:none;stroke-width:1px;stroke-linecap:butt;stroke-linejoin:miter;stroke-opacity:1" d="M 4.428 96.228 L 4.428 96.91 C 4.428 96.977 4.448 97.026 4.488 97.054 C 4.517 97.077 4.571 97.089 4.651 97.089 L 4.651 97.255 C 4.644 97.256 4.632 97.256 4.614 97.257 C 4.595 97.258 4.575 97.258 4.552 97.258 C 4.401 97.258 4.29 97.233 4.22 97.181 C 4.138 97.125 4.096 97.029 4.096 96.895 L 4.096 96.228 L 3.874 96.228 L 3.874 96.08 L 4.096 96.08 L 4.096 95.611 L 4.428 95.611 L 4.428 96.08 L 4.651 96.08 L 4.651 96.228 L 4.428 96.228 Z"/>
    <path id="path10540" style="font-style:normal;font-variant:normal;font-weight:normal;font-stretch:normal;font-size:medium;line-height:125%;font-family:LilyUPC;-inkscape-font-specification:'LilyUPC, Normal';text-align:start;letter-spacing:0px;word-spacing:0px;writing-mode:lr-tb;text-anchor:start;fill:#000000;fill-opacity:1;stroke:none;stroke-width:1px;stroke-linecap:butt;stroke-linejoin:miter;stroke-opacity:1" d="M 5.023 96.726 C 5.028 96.788 5.049 96.867 5.087 96.961 C 5.124 97.056 5.192 97.106 5.291 97.11 C 5.411 97.11 5.506 97.095 5.574 97.065 C 5.642 97.034 5.687 97.008 5.708 96.987 L 5.658 97.191 C 5.658 97.203 5.624 97.219 5.555 97.24 C 5.487 97.259 5.4 97.269 5.294 97.269 C 5.252 97.269 5.22 97.268 5.196 97.265 C 5.025 97.253 4.899 97.204 4.82 97.118 C 4.74 97.032 4.7 96.894 4.698 96.705 C 4.698 96.488 4.743 96.329 4.833 96.228 C 4.924 96.127 5.057 96.075 5.231 96.073 C 5.441 96.073 5.583 96.129 5.658 96.239 C 5.721 96.33 5.753 96.454 5.753 96.609 C 5.753 96.638 5.752 96.663 5.751 96.684 C 5.749 96.704 5.748 96.718 5.746 96.726 L 5.023 96.726 Z M 5.263 96.221 C 5.103 96.227 5.023 96.343 5.023 96.57 L 5.535 96.57 C 5.535 96.338 5.444 96.221 5.263 96.221 Z"/>
    <path id="path10542" style="font-style:normal;font-variant:normal;font-weight:normal;font-stretch:normal;font-size:medium;line-height:125%;font-family:LilyUPC;-inkscape-font-specification:'LilyUPC, Normal';text-align:start;letter-spacing:0px;word-spacing:0px;writing-mode:lr-tb;text-anchor:start;fill:#000000;fill-opacity:1;stroke:none;stroke-width:1px;stroke-linecap:butt;stroke-linejoin:miter;stroke-opacity:1" d="M 8.042 96.532 L 8.042 97.124 C 8.042 97.132 8.018 97.147 7.969 97.171 C 7.922 97.196 7.849 97.218 7.752 97.239 C 7.656 97.259 7.538 97.269 7.4 97.269 C 7.218 97.265 7.074 97.231 6.969 97.168 C 6.863 97.105 6.789 97.01 6.745 96.884 C 6.702 96.757 6.68 96.59 6.68 96.383 C 6.685 96.217 6.71 96.077 6.756 95.964 C 6.802 95.85 6.875 95.763 6.975 95.702 C 7.074 95.641 7.206 95.61 7.368 95.607 C 7.523 95.607 7.657 95.617 7.772 95.636 C 7.887 95.654 7.946 95.668 7.95 95.678 L 8.013 95.942 C 8.013 95.942 8.013 95.942 8.013 95.942 C 8.013 95.941 7.994 95.929 7.956 95.908 C 7.915 95.885 7.861 95.865 7.794 95.847 C 7.726 95.828 7.645 95.819 7.548 95.819 C 7.503 95.819 7.468 95.82 7.442 95.823 C 7.207 95.838 7.089 96.024 7.089 96.383 C 7.089 96.507 7.095 96.616 7.105 96.709 C 7.116 96.801 7.142 96.881 7.183 96.948 C 7.224 97.016 7.284 97.053 7.365 97.061 C 7.463 97.061 7.537 97.052 7.586 97.034 C 7.635 97.017 7.666 97.002 7.678 96.991 L 7.678 96.532 L 8.042 96.532 Z"/>
    <path id="path10544" style="font-style:normal;font-variant:normal;font-weight:normal;font-stretch:normal;font-size:medium;line-height:125%;font-family:LilyUPC;-inkscape-font-specification:'LilyUPC, Normal';text-align:start;letter-spacing:0px;word-spacing:0px;writing-mode:lr-tb;text-anchor:start;fill:#000000;fill-opacity:1;stroke:none;stroke-width:1px;stroke-linecap:butt;stroke-linejoin:miter;stroke-opacity:1" d="M 8.7 96.228 L 8.7 96.91 C 8.7 96.977 8.72 97.026 8.76 97.054 C 8.789 97.077 8.843 97.089 8.923 97.089 L 8.923 97.255 C 8.916 97.256 8.904 97.256 8.886 97.257 C 8.867 97.258 8.847 97.258 8.824 97.258 C 8.673 97.258 8.562 97.233 8.492 97.181 C 8.409 97.125 8.368 97.029 8.368 96.895 L 8.368 96.228 L 8.146 96.228 L 8.146 96.08 L 8.368 96.08 L 8.368 95.611 L 8.7 95.611 L 8.7 96.08 L 8.923 96.08 L 8.923 96.228 L 8.7 96.228 Z"/>
    <path id="path10546" style="font-style:normal;font-variant:normal;font-weight:normal;font-stretch:normal;font-size:medium;line-height:125%;font-family:LilyUPC;-inkscape-font-specification:'LilyUPC, Normal';text-align:start;letter-spacing:0px;word-spacing:0px;writing-mode:lr-tb;text-anchor:start;fill:#000000;fill-opacity:1;stroke:none;stroke-width:1px;stroke-linecap:butt;stroke-linejoin:miter;stroke-opacity:1" d="M 9.404 97.255 L 9.03 97.255 L 9.03 96.917 L 9.404 96.917 L 9.404 97.255 Z"/>
    <path id="path10509" style="font-style:normal;font-variant:normal;font-weight:normal;font-stretch:normal;font-size:medium;line-height:125%;font-family:LilyUPC;-inkscape-font-specification:'LilyUPC, Normal';text-align:start;letter-spacing:0px;word-spacing:0px;writing-mode:lr-tb;text-anchor:start;fill:#000000;fill-opacity:1;stroke:none;stroke-width:1px;stroke-linecap:butt;stroke-linejoin:miter;stroke-opacity:1" d="M 71.857 4.509 L 71.395 5.641 L 70.915 4.509 L 70.915 5.61 L 70.651 5.61 L 70.651 3.965 L 71.067 3.965 L 71.452 4.827 L 71.822 3.965 L 72.231 3.965 L 72.231 5.61 L 71.857 5.61 L 71.857 4.509 Z"/>
    <path id="path10511" style="font-style:normal;font-variant:normal;font-weight:normal;font-stretch:normal;font-size:medium;line-height:125%;font-family:LilyUPC;-inkscape-font-specification:'LilyUPC, Normal';text-align:start;letter-spacing:0px;word-spacing:0px;writing-mode:lr-tb;text-anchor:start;fill:#000000;fill-opacity:1;stroke:none;stroke-width:1px;stroke-linecap:butt;stroke-linejoin:miter;stroke-opacity:1" d="M 73.109 5.61 L 73.109 5.486 C 73.1 5.508 73.069 5.534 73.016 5.566 C 72.964 5.597 72.875 5.613 72.749 5.613 C 72.641 5.609 72.552 5.581 72.481 5.53 C 72.41 5.479 72.373 5.398 72.372 5.288 C 72.372 5.17 72.414 5.081 72.498 5.022 C 72.583 4.963 72.71 4.927 72.88 4.914 C 72.958 4.908 73.018 4.888 73.06 4.855 C 73.102 4.821 73.123 4.783 73.123 4.741 C 73.123 4.699 73.104 4.662 73.065 4.632 C 73.026 4.602 72.974 4.586 72.908 4.586 C 72.772 4.586 72.666 4.612 72.59 4.662 C 72.515 4.712 72.466 4.754 72.442 4.788 L 72.491 4.554 C 72.491 4.55 72.509 4.538 72.545 4.517 C 72.581 4.497 72.631 4.478 72.695 4.46 C 72.76 4.441 72.836 4.432 72.925 4.431 C 73.107 4.431 73.238 4.462 73.319 4.524 C 73.4 4.586 73.44 4.666 73.44 4.766 L 73.44 5.61 L 73.109 5.61 Z M 72.947 5.426 C 73.055 5.397 73.109 5.35 73.109 5.285 L 73.109 5.017 C 73.108 5.019 73.104 5.027 73.097 5.042 C 73.089 5.056 73.072 5.071 73.046 5.085 C 73.02 5.099 72.979 5.11 72.925 5.116 C 72.833 5.129 72.763 5.149 72.715 5.178 C 72.667 5.206 72.643 5.255 72.643 5.324 C 72.65 5.403 72.714 5.443 72.834 5.443 C 72.87 5.443 72.908 5.438 72.947 5.426 Z"/>
    <path id="path10513" style="font-style:normal;font-variant:normal;font-weight:normal;font-stretch:normal;font-size:medium;line-height:125%;font-family:LilyUPC;-inkscape-font-specification:'LilyUPC, Normal';text-align:start;letter-spacing:0px;word-spacing:0px;writing-mode:lr-tb;text-anchor:start;fill:#000000;fill-opacity:1;stroke:none;stroke-width:1px;stroke-linecap:butt;stroke-linejoin:miter;stroke-opacity:1" d="M 73.871 4.721 C 73.871 4.766 73.911 4.8 73.992 4.823 C 74.073 4.846 74.156 4.867 74.241 4.887 C 74.326 4.906 74.399 4.94 74.461 4.987 C 74.524 5.033 74.556 5.106 74.559 5.204 C 74.559 5.347 74.52 5.45 74.443 5.513 C 74.366 5.576 74.254 5.612 74.107 5.623 C 74.089 5.626 74.061 5.627 74.023 5.627 C 73.923 5.627 73.837 5.619 73.764 5.603 C 73.692 5.587 73.642 5.574 73.614 5.564 L 73.568 5.359 C 73.594 5.377 73.641 5.399 73.71 5.426 C 73.779 5.453 73.862 5.467 73.959 5.468 C 74.062 5.468 74.132 5.453 74.169 5.422 C 74.206 5.39 74.226 5.341 74.228 5.274 C 74.228 5.198 74.202 5.147 74.149 5.122 C 74.098 5.097 74.014 5.074 73.897 5.051 C 73.781 5.028 73.693 4.995 73.634 4.951 C 73.576 4.908 73.546 4.833 73.546 4.724 C 73.555 4.535 73.704 4.434 73.994 4.421 C 74.004 4.421 74.017 4.42 74.035 4.419 C 74.052 4.418 74.064 4.418 74.072 4.418 C 74.177 4.418 74.262 4.425 74.326 4.44 C 74.39 4.455 74.434 4.467 74.457 4.477 L 74.513 4.667 C 74.49 4.653 74.446 4.635 74.381 4.615 C 74.315 4.593 74.227 4.583 74.115 4.583 C 74.039 4.583 73.98 4.592 73.937 4.61 C 73.895 4.627 73.873 4.664 73.871 4.721 Z"/>
    <path id="path10515" style="font-style:normal;font-variant:normal;font-weight:normal;font-stretch:normal;font-size:medium;line-height:125%;font-family:LilyUPC;-inkscape-font-specification:'LilyUPC, Normal';text-align:start;letter-spacing:0px;word-spacing:0px;writing-mode:lr-tb;text-anchor:start;fill:#000000;fill-opacity:1;stroke:none;stroke-width:1px;stroke-linecap:butt;stroke-linejoin:miter;stroke-opacity:1" d="M 75.167 4.583 L 75.167 5.264 C 75.167 5.332 75.187 5.38 75.228 5.409 C 75.256 5.432 75.311 5.443 75.39 5.443 L 75.39 5.61 C 75.383 5.61 75.371 5.611 75.353 5.611 C 75.335 5.612 75.314 5.613 75.291 5.613 C 75.14 5.613 75.03 5.587 74.96 5.535 C 74.877 5.479 74.836 5.384 74.836 5.249 L 74.836 4.583 L 74.614 4.583 L 74.614 4.435 L 74.836 4.435 L 74.836 3.965 L 75.167 3.965 L 75.167 4.435 L 75.39 4.435 L 75.39 4.583 L 75.167 4.583 Z"/>
    <path id="path10517" style="font-style:normal;font-variant:normal;font-weight:normal;font-stretch:normal;font-size:medium;line-height:125%;font-family:LilyUPC;-inkscape-font-specification:'LilyUPC, Normal';text-align:start;letter-spacing:0px;word-spacing:0px;writing-mode:lr-tb;text-anchor:start;fill:#000000;fill-opacity:1;stroke:none;stroke-width:1px;stroke-linecap:butt;stroke-linejoin:miter;stroke-opacity:1" d="M 75.762 5.081 C 75.768 5.143 75.789 5.221 75.826 5.316 C 75.863 5.411 75.931 5.46 76.03 5.465 C 76.151 5.465 76.245 5.45 76.314 5.419 C 76.382 5.388 76.426 5.362 76.447 5.342 L 76.397 5.546 C 76.397 5.558 76.363 5.574 76.295 5.594 C 76.226 5.614 76.139 5.623 76.034 5.623 C 75.992 5.623 75.959 5.622 75.935 5.62 C 75.764 5.607 75.639 5.558 75.559 5.473 C 75.48 5.386 75.439 5.249 75.438 5.059 C 75.438 4.842 75.483 4.683 75.573 4.582 C 75.664 4.481 75.796 4.43 75.971 4.428 C 76.18 4.428 76.322 4.483 76.397 4.593 C 76.461 4.684 76.493 4.808 76.493 4.964 C 76.493 4.993 76.492 5.018 76.49 5.038 C 76.488 5.059 76.486 5.073 76.486 5.081 L 75.762 5.081 Z M 76.003 4.576 C 75.842 4.581 75.762 4.697 75.762 4.925 L 76.274 4.925 C 76.274 4.692 76.184 4.576 76.003 4.576 Z"/>
    <path id="path10519" style="font-style:normal;font-variant:normal;font-weight:normal;font-stretch:normal;font-size:medium;line-height:125%;font-family:LilyUPC;-inkscape-font-specification:'LilyUPC, Normal';text-align:start;letter-spacing:0px;word-spacing:0px;writing-mode:lr-tb;text-anchor:start;fill:#000000;fill-opacity:1;stroke:none;stroke-width:1px;stroke-linecap:butt;stroke-linejoin:miter;stroke-opacity:1" d="M 76.589 5.61 L 76.589 4.435 L 76.921 4.435 L 76.921 4.579 C 76.922 4.578 76.929 4.57 76.941 4.555 C 76.953 4.54 76.972 4.524 76.997 4.507 C 77.021 4.49 77.055 4.475 77.097 4.46 C 77.143 4.441 77.2 4.431 77.271 4.431 C 77.325 4.431 77.358 4.434 77.372 4.438 L 77.401 4.608 C 77.36 4.598 77.323 4.593 77.288 4.593 C 77.211 4.593 77.148 4.608 77.097 4.636 C 77.04 4.664 76.997 4.703 76.966 4.752 C 76.936 4.8 76.921 4.845 76.921 4.886 L 76.921 5.61 L 76.589 5.61 Z"/>
    <path id="path10492" style="font-style:normal;font-variant:normal;font-weight:normal;font-stretch:normal;font-size:medium;line-height:125%;font-family:LilyUPC;-inkscape-font-specification:'LilyUPC, Normal';text-align:start;letter-spacing:0px;word-spacing:0px;writing-mode:lr-tb;text-anchor:start;fill:#000000;fill-opacity:1;stroke:none;stroke-width:1px;stroke-linecap:butt;stroke-linejoin:miter;stroke-opacity:1" d="M 83.954 4.645 L 83.492 5.777 L 83.012 4.645 L 83.012 5.745 L 82.748 5.745 L 82.748 4.101 L 83.164 4.101 L 83.549 4.963 L 83.919 4.101 L 84.328 4.101 L 84.328 5.745 L 83.954 5.745 L 83.954 4.645 Z"/>
    <path id="path10494" style="font-style:normal;font-variant:normal;font-weight:normal;font-stretch:normal;font-size:medium;line-height:125%;font-family:LilyUPC;-inkscape-font-specification:'LilyUPC, Normal';text-align:start;letter-spacing:0px;word-spacing:0px;writing-mode:lr-tb;text-anchor:start;fill:#000000;fill-opacity:1;stroke:none;stroke-width:1px;stroke-linecap:butt;stroke-linejoin:miter;stroke-opacity:1" d="M 85.206 5.745 L 85.206 5.622 C 85.196 5.644 85.165 5.67 85.113 5.702 C 85.06 5.733 84.971 5.749 84.846 5.749 C 84.738 5.745 84.649 5.717 84.578 5.666 C 84.507 5.615 84.47 5.534 84.468 5.424 C 84.468 5.306 84.511 5.217 84.595 5.158 C 84.68 5.099 84.807 5.063 84.977 5.05 C 85.055 5.044 85.115 5.024 85.157 4.991 C 85.199 4.957 85.22 4.919 85.22 4.877 C 85.22 4.835 85.201 4.798 85.162 4.768 C 85.123 4.737 85.071 4.722 85.005 4.722 C 84.869 4.722 84.763 4.748 84.687 4.798 C 84.612 4.848 84.562 4.89 84.539 4.924 L 84.588 4.69 C 84.588 4.686 84.606 4.674 84.641 4.653 C 84.678 4.633 84.728 4.613 84.792 4.596 C 84.856 4.577 84.933 4.568 85.022 4.567 C 85.204 4.567 85.335 4.598 85.416 4.66 C 85.497 4.722 85.537 4.802 85.537 4.902 L 85.537 5.745 L 85.206 5.745 Z M 85.044 5.562 C 85.152 5.533 85.206 5.486 85.206 5.421 L 85.206 5.153 C 85.205 5.155 85.201 5.163 85.193 5.178 C 85.186 5.192 85.169 5.207 85.143 5.221 C 85.116 5.235 85.076 5.246 85.022 5.252 C 84.93 5.265 84.86 5.285 84.812 5.314 C 84.764 5.342 84.74 5.391 84.74 5.46 C 84.747 5.539 84.811 5.579 84.931 5.579 C 84.967 5.579 85.005 5.573 85.044 5.562 Z"/>
    <path id="path10496" style="font-style:normal;font-variant:normal;font-weight:normal;font-stretch:normal;font-size:medium;line-height:125%;font-family:LilyUPC;-inkscape-font-specification:'LilyUPC, Normal';text-align:start;letter-spacing:0px;word-spacing:0px;writing-mode:lr-tb;text-anchor:start;fill:#000000;fill-opacity:1;stroke:none;stroke-width:1px;stroke-linecap:butt;stroke-linejoin:miter;stroke-opacity:1" d="M 85.678 5.745 L 85.678 4.571 L 86.007 4.571 L 86.007 5.745 L 85.678 5.745 Z M 85.845 4.098 C 85.903 4.098 85.949 4.116 85.982 4.153 C 86.015 4.19 86.032 4.234 86.032 4.285 C 86.032 4.337 86.015 4.382 85.981 4.419 C 85.948 4.456 85.901 4.475 85.841 4.475 C 85.784 4.475 85.738 4.456 85.704 4.419 C 85.67 4.381 85.654 4.338 85.654 4.288 C 85.654 4.238 85.67 4.193 85.704 4.156 C 85.738 4.117 85.785 4.098 85.845 4.098 Z"/>
    <path id="path10498" style="font-style:normal;font-variant:normal;font-weight:normal;font-stretch:normal;font-size:medium;line-height:125%;font-family:LilyUPC;-inkscape-font-specification:'LilyUPC, Normal';text-align:start;letter-spacing:0px;word-spacing:0px;writing-mode:lr-tb;text-anchor:start;fill:#000000;fill-opacity:1;stroke:none;stroke-width:1px;stroke-linecap:butt;stroke-linejoin:miter;stroke-opacity:1" d="M 87.17 4.842 L 87.17 5.745 L 86.923 5.745 L 86.923 4.885 C 86.923 4.786 86.848 4.737 86.697 4.737 C 86.624 4.746 86.571 4.768 86.539 4.806 C 86.507 4.843 86.488 4.872 86.482 4.895 L 86.482 5.745 L 86.15 5.745 L 86.15 4.571 L 86.482 4.571 L 86.482 4.666 C 86.487 4.663 86.502 4.653 86.529 4.635 C 86.556 4.617 86.593 4.601 86.642 4.586 C 86.692 4.571 86.749 4.564 86.814 4.564 C 86.936 4.564 87.026 4.592 87.083 4.648 C 87.141 4.704 87.17 4.768 87.17 4.842 Z"/>
    <path id="path10500" style="font-style:normal;font-variant:normal;font-weight:normal;font-stretch:normal;font-size:medium;line-height:125%;font-family:LilyUPC;-inkscape-font-specification:'LilyUPC, Normal';text-align:start;letter-spacing:0px;word-spacing:0px;writing-mode:lr-tb;text-anchor:start;fill:#000000;fill-opacity:1;stroke:none;stroke-width:1px;stroke-linecap:butt;stroke-linejoin:miter;stroke-opacity:1" d="M 88.84 4.094 C 89.012 4.094 89.15 4.125 89.255 4.187 C 89.36 4.249 89.436 4.34 89.481 4.461 C 89.526 4.582 89.549 4.735 89.549 4.92 C 89.549 5.11 89.524 5.268 89.474 5.392 C 89.424 5.516 89.347 5.609 89.242 5.669 C 89.137 5.729 89.002 5.759 88.837 5.759 C 88.678 5.759 88.547 5.73 88.445 5.671 C 88.343 5.611 88.267 5.52 88.218 5.396 C 88.17 5.272 88.145 5.113 88.145 4.92 C 88.147 4.645 88.205 4.439 88.318 4.302 C 88.432 4.165 88.606 4.096 88.84 4.094 Z M 88.533 4.92 C 88.539 5.113 88.559 5.262 88.594 5.368 C 88.628 5.474 88.709 5.528 88.837 5.53 C 88.931 5.53 89.001 5.502 89.047 5.445 C 89.093 5.387 89.123 5.317 89.135 5.233 C 89.147 5.149 89.154 5.047 89.154 4.927 C 89.154 4.805 89.148 4.704 89.137 4.623 C 89.127 4.543 89.099 4.473 89.054 4.414 C 89.008 4.354 88.939 4.324 88.847 4.323 C 88.716 4.323 88.63 4.377 88.591 4.485 C 88.552 4.592 88.533 4.737 88.533 4.92 Z"/>
    <path id="path10502" style="font-style:normal;font-variant:normal;font-weight:normal;font-stretch:normal;font-size:medium;line-height:125%;font-family:LilyUPC;-inkscape-font-specification:'LilyUPC, Normal';text-align:start;letter-spacing:0px;word-spacing:0px;writing-mode:lr-tb;text-anchor:start;fill:#000000;fill-opacity:1;stroke:none;stroke-width:1px;stroke-linecap:butt;stroke-linejoin:miter;stroke-opacity:1" d="M 90.01 5.414 C 90.01 5.463 90.028 5.503 90.063 5.535 C 90.099 5.567 90.144 5.584 90.197 5.584 C 90.284 5.581 90.346 5.561 90.384 5.522 C 90.421 5.482 90.443 5.45 90.451 5.424 L 90.451 4.571 L 90.698 4.571 L 90.698 5.745 L 90.451 5.745 L 90.451 5.636 C 90.428 5.655 90.38 5.679 90.305 5.707 C 90.231 5.735 90.128 5.749 89.996 5.749 C 89.898 5.745 89.821 5.716 89.763 5.66 C 89.707 5.604 89.678 5.526 89.678 5.424 L 89.678 4.571 L 90.01 4.571 L 90.01 5.414 Z"/>
    <path id="path10504" style="font-style:normal;font-variant:normal;font-weight:normal;font-stretch:normal;font-size:medium;line-height:125%;font-family:LilyUPC;-inkscape-font-specification:'LilyUPC, Normal';text-align:start;letter-spacing:0px;word-spacing:0px;writing-mode:lr-tb;text-anchor:start;fill:#000000;fill-opacity:1;stroke:none;stroke-width:1px;stroke-linecap:butt;stroke-linejoin:miter;stroke-opacity:1" d="M 91.35 4.719 L 91.35 5.4 C 91.35 5.468 91.37 5.516 91.41 5.545 C 91.439 5.568 91.493 5.579 91.573 5.579 L 91.573 5.745 C 91.566 5.746 91.554 5.747 91.536 5.747 C 91.518 5.748 91.497 5.749 91.474 5.749 C 91.323 5.749 91.212 5.723 91.142 5.671 C 91.06 5.615 91.018 5.52 91.018 5.385 L 91.018 4.719 L 90.796 4.719 L 90.796 4.571 L 91.018 4.571 L 91.018 4.101 L 91.35 4.101 L 91.35 4.571 L 91.573 4.571 L 91.573 4.719 L 91.35 4.719 Z"/>
    <path id="path10506" style="font-style:normal;font-variant:normal;font-weight:normal;font-stretch:normal;font-size:medium;line-height:125%;font-family:LilyUPC;-inkscape-font-specification:'LilyUPC, Normal';text-align:start;letter-spacing:0px;word-spacing:0px;writing-mode:lr-tb;text-anchor:start;fill:#000000;fill-opacity:1;stroke:none;stroke-width:1px;stroke-linecap:butt;stroke-linejoin:miter;stroke-opacity:1" d="M 91.942 4.857 C 91.942 4.902 91.982 4.936 92.062 4.959 C 92.143 4.982 92.226 5.003 92.311 5.023 C 92.396 5.042 92.47 5.076 92.532 5.123 C 92.594 5.169 92.627 5.242 92.63 5.34 C 92.63 5.483 92.591 5.586 92.514 5.649 C 92.437 5.712 92.325 5.748 92.178 5.759 C 92.159 5.762 92.131 5.763 92.093 5.763 C 91.993 5.763 91.907 5.755 91.835 5.739 C 91.762 5.723 91.712 5.71 91.684 5.7 L 91.639 5.495 C 91.664 5.513 91.712 5.535 91.781 5.562 C 91.85 5.589 91.932 5.603 92.03 5.604 C 92.133 5.604 92.203 5.589 92.24 5.558 C 92.277 5.526 92.297 5.477 92.298 5.41 C 92.298 5.333 92.272 5.283 92.22 5.258 C 92.168 5.233 92.084 5.209 91.968 5.186 C 91.852 5.164 91.764 5.131 91.705 5.087 C 91.646 5.044 91.617 4.969 91.617 4.86 C 91.626 4.671 91.775 4.57 92.065 4.557 C 92.075 4.557 92.088 4.556 92.105 4.555 C 92.122 4.554 92.135 4.553 92.142 4.553 C 92.247 4.553 92.332 4.561 92.396 4.576 C 92.461 4.591 92.504 4.603 92.527 4.613 L 92.583 4.803 C 92.561 4.789 92.517 4.771 92.452 4.751 C 92.386 4.729 92.297 4.719 92.185 4.719 C 92.11 4.719 92.05 4.728 92.008 4.746 C 91.965 4.763 91.943 4.8 91.942 4.857 Z"/>
  </g>
</svg>