<?xml version="1.0" encoding="UTF-8" standalone="no"?>
<!-- Created with Inkscape (http://www.inkscape.org/) -->

<svg
   xmlns:dc="http://purl.org/dc/elements/1.1/"
   xmlns:cc="http://creativecommons.org/ns#"
   xmlns:rdf="http://www.w3.org/1999/02/22-rdf-syntax-ns#"
   xmlns:svg="http://www.w3.org/2000/svg"
   xmlns="http://www.w3.org/2000/svg"
   xmlns:sodipodi="http://sodipodi.sourceforge.net/DTD/sodipodi-0.dtd"
   xmlns:inkscape="http://www.inkscape.org/namespaces/inkscape"
   width="60"
   height="380"
   viewBox="0 0 59.999999 380.00001"
   id="svg14650"
   version="1.1"
   inkscape:version="0.91 r13725"
   sodipodi:docname="MentalPitchShift.svg">
  <defs
     id="defs14652" />
  <sodipodi:namedview
     id="base"
     pagecolor="#ffffff"
     bordercolor="#666666"
     borderopacity="1.0"
     inkscape:pageopacity="0.0"
     inkscape:pageshadow="2"
     inkscape:zoom="5.6"
     inkscape:cx="10.959274"
     inkscape:cy="322.61126"
     inkscape:document-units="px"
     inkscape:current-layer="layer1"
     showgrid="true"
     units="px"
     objecttolerance="2"
     inkscape:window-width="1920"
     inkscape:window-height="1061"
     inkscape:window-x="-4"
     inkscape:window-y="-4"
     inkscape:window-maximized="1">
    <inkscape:grid
       type="xygrid"
       id="grid15198"
       spacingx="4.9999999"
       spacingy="5.0000001"
       empspacing="3" />
  </sodipodi:namedview>
  <metadata
     id="metadata14655">
    <rdf:RDF>
      <cc:Work
         rdf:about="">
        <dc:format>image/svg+xml</dc:format>
        <dc:type
           rdf:resource="http://purl.org/dc/dcmitype/StillImage" />
        <dc:title></dc:title>
      </cc:Work>
    </rdf:RDF>
  </metadata>
  <g
     inkscape:label="Layer 1"
     inkscape:groupmode="layer"
     id="layer1"
     transform="translate(0,-672.36216)">
    <rect
       style="fill:#ffd558;fill-opacity:0.85207101;stroke:none;stroke-width:3.89763784;stroke-linejoin:round;stroke-miterlimit:4;stroke-dasharray:none;stroke-opacity:1"
       id="rect15200"
       width="60"
       height="380"
       x="0"
       y="672.36218"
       sodipodi:insensitive="true" />
    <path
       inkscape:connector-curvature="0"
       id="path16413"
       style="font-style:normal;font-variant:normal;font-weight:normal;font-stretch:normal;font-size:medium;line-height:125%;font-family:LilyUPC;-inkscape-font-specification:'LilyUPC, Normal';text-align:start;letter-spacing:0px;word-spacing:0px;writing-mode:lr-tb;text-anchor:start;fill:#000000;fill-opacity:1;stroke:none;stroke-width:1px;stroke-linecap:butt;stroke-linejoin:miter;stroke-opacity:1"
       d="m 14.38916,817.70154 0,4.66064 -1.05957,0 0,-4.66064 1.05957,0 z" />
    <path
       inkscape:connector-curvature="0"
       id="path16415"
       style="font-style:normal;font-variant:normal;font-weight:normal;font-stretch:normal;font-size:medium;line-height:125%;font-family:LilyUPC;-inkscape-font-specification:'LilyUPC, Normal';text-align:start;letter-spacing:0px;word-spacing:0px;writing-mode:lr-tb;text-anchor:start;fill:#000000;fill-opacity:1;stroke:none;stroke-width:1px;stroke-linecap:butt;stroke-linejoin:miter;stroke-opacity:1"
       d="m 17.760742,819.80115 0,2.56103 -0.700683,0 0,-2.43896 q 0,-0.41992 -0.639649,-0.41992 -0.3125,0.0366 -0.449219,0.19531 -0.134277,0.15625 -0.161132,0.2539 l 0,2.40967 -0.939942,0 0,-3.33008 0.939942,0 0,0.271 q 0.01953,-0.0122 0.131836,-0.0879 0.114746,-0.0757 0.322265,-0.13916 0.209961,-0.0635 0.48584,-0.0635 0.52002,0 0.76416,0.23926 0.246582,0.23682 0.246582,0.54932 z" />
    <path
       inkscape:connector-curvature="0"
       id="path16406"
       style="font-style:normal;font-variant:normal;font-weight:normal;font-stretch:normal;font-size:medium;line-height:125%;font-family:LilyUPC;-inkscape-font-specification:'LilyUPC, Normal';text-align:start;letter-spacing:0px;word-spacing:0px;writing-mode:lr-tb;text-anchor:start;fill:#000000;fill-opacity:1;stroke:none;stroke-width:1px;stroke-linecap:butt;stroke-linejoin:miter;stroke-opacity:1"
       d="m 42.02755,817.86792 q 0.72998,0 1.176758,0.26367 0.446777,0.26123 0.639648,0.77637 0.192871,0.51514 0.192871,1.30127 0,0.80811 -0.212402,1.33789 -0.212403,0.52735 -0.65918,0.78369 -0.444336,0.25635 -1.147461,0.25635 -0.676269,0 -1.11084,-0.25146 -0.43457,-0.25147 -0.64209,-0.77881 -0.207519,-0.52735 -0.207519,-1.34766 0.0073,-1.17187 0.490723,-1.75293 0.485839,-0.58105 1.479492,-0.58838 z m -0.871582,2.34131 q 0.02685,0.81787 0.17334,1.26953 0.146484,0.45166 0.688476,0.45899 0.400391,0 0.595703,-0.2417 0.197754,-0.24414 0.249024,-0.60059 0.05371,-0.35889 0.05371,-0.8667 0,-0.52002 -0.04639,-0.86181 -0.04394,-0.3418 -0.236817,-0.59327 -0.192871,-0.2539 -0.585937,-0.25634 -0.559082,0 -0.725098,0.45654 -0.166015,0.45654 -0.166015,1.23535 z" />
    <path
       inkscape:connector-curvature="0"
       id="path16408"
       style="font-style:normal;font-variant:normal;font-weight:normal;font-stretch:normal;font-size:medium;line-height:125%;font-family:LilyUPC;-inkscape-font-specification:'LilyUPC, Normal';text-align:start;letter-spacing:0px;word-spacing:0px;writing-mode:lr-tb;text-anchor:start;fill:#000000;fill-opacity:1;stroke:none;stroke-width:1px;stroke-linecap:butt;stroke-linejoin:miter;stroke-opacity:1"
       d="m 45.342979,821.60816 q 0,0.20752 0.151368,0.34424 0.153808,0.13671 0.378418,0.13671 0.371093,-0.01 0.529785,-0.17578 0.158691,-0.16601 0.190429,-0.27588 l 0,-2.41943 0.700684,0 0,3.33008 -0.700684,0 0,-0.31006 q -0.09521,0.0806 -0.412597,0.20019 -0.317383,0.11963 -0.876465,0.11963 -0.415039,-0.0146 -0.65918,-0.25146 -0.241699,-0.23682 -0.241699,-0.66895 l 0,-2.41943 0.939941,0 0,2.39014 z" />
    <path
       inkscape:connector-curvature="0"
       id="path16410"
       style="font-style:normal;font-variant:normal;font-weight:normal;font-stretch:normal;font-size:medium;line-height:125%;font-family:LilyUPC;-inkscape-font-specification:'LilyUPC, Normal';text-align:start;letter-spacing:0px;word-spacing:0px;writing-mode:lr-tb;text-anchor:start;fill:#000000;fill-opacity:1;stroke:none;stroke-width:1px;stroke-linecap:butt;stroke-linejoin:miter;stroke-opacity:1"
       d="m 49.141808,819.63794 0,1.93115 q 0,0.28809 0.170898,0.41016 0.12207,0.0977 0.461426,0.0977 l 0,0.47119 q -0.0293,0.002 -0.104981,0.005 -0.07813,0.005 -0.175781,0.005 -0.64209,0 -0.939941,-0.21972 -0.351563,-0.23926 -0.351563,-0.81055 l 0,-1.88965 -0.629883,0 0,-0.41992 0.629883,0 0,-1.33057 0.939942,0 0,1.33057 0.632324,0 0,0.41992 -0.632324,0 z" />
    <path
       inkscape:connector-curvature="0"
       id="path4163"
       style="font-style:normal;font-variant:normal;font-weight:normal;font-stretch:normal;font-size:medium;line-height:125%;font-family:LilyUPC;-inkscape-font-specification:'LilyUPC, Normal';text-align:start;letter-spacing:0px;word-spacing:0px;writing-mode:lr-tb;text-anchor:start;fill:#000000;fill-opacity:1;stroke:none;stroke-width:1px;stroke-linecap:butt;stroke-linejoin:miter;stroke-opacity:1"
       d="m 9.9464064,677.33777 q 0,0.86059 -0.3479004,1.32568 -0.3442383,0.46143 -0.8935547,0.61157 -0.5456543,0.15015 -1.2963867,0.15015 l -1.439209,0 0,2.87842 -1.5893555,0 0,-6.99097 3.2116699,0 q 1.102295,0 1.7175293,0.44312 0.6152344,0.44311 0.6372071,1.58203 z m -1.5014649,-0.0439 q -0.010986,-0.531 -0.2966308,-0.82031 -0.2819825,-0.28931 -0.7397461,-0.28931 l -1.439209,0 0,2.38404 1.3952637,0 q 0.5346679,0 0.805664,-0.27466 0.2746582,-0.27466 0.2746582,-0.99976 z" />
    <path
       inkscape:connector-curvature="0"
       id="path4165"
       style="font-style:normal;font-variant:normal;font-weight:normal;font-stretch:normal;font-size:medium;line-height:125%;font-family:LilyUPC;-inkscape-font-specification:'LilyUPC, Normal';text-align:start;letter-spacing:0px;word-spacing:0px;writing-mode:lr-tb;text-anchor:start;fill:#000000;fill-opacity:1;stroke:none;stroke-width:1px;stroke-linecap:butt;stroke-linejoin:miter;stroke-opacity:1"
       d="m 10.352901,682.30359 0,-4.99512 1.395263,0 0,4.99512 -1.395263,0 z m 0.706787,-7.00562 q 0.373535,0 0.582275,0.23438 0.212402,0.23437 0.212402,0.5603 0,0.33325 -0.216064,0.57129 -0.212402,0.23804 -0.593262,0.23804 -0.366211,0 -0.582275,-0.23804 -0.216065,-0.2417 -0.216065,-0.55664 0,-0.32227 0.216065,-0.56397 0.216064,-0.24536 0.596924,-0.24536 z" />
    <path
       inkscape:connector-curvature="0"
       id="path4167"
       style="font-style:normal;font-variant:normal;font-weight:normal;font-stretch:normal;font-size:medium;line-height:125%;font-family:LilyUPC;-inkscape-font-specification:'LilyUPC, Normal';text-align:start;letter-spacing:0px;word-spacing:0px;writing-mode:lr-tb;text-anchor:start;fill:#000000;fill-opacity:1;stroke:none;stroke-width:1px;stroke-linecap:butt;stroke-linejoin:miter;stroke-opacity:1"
       d="m 14.458125,677.93835 0,2.89673 q 0,0.43213 0.256348,0.61524 0.183105,0.14648 0.692138,0.14648 l 0,0.70679 q -0.04394,0.004 -0.15747,0.007 -0.117188,0.007 -0.263672,0.007 -0.963135,0 -1.409912,-0.32959 -0.527344,-0.35889 -0.527344,-1.21582 l 0,-2.83448 -0.944824,0 0,-0.62988 0.944824,0 0,-1.99585 1.409912,0 0,1.99585 0.948486,0 0,0.62988 -0.948486,0 z" />
    <path
       inkscape:connector-curvature="0"
       id="path4169"
       style="font-style:normal;font-variant:normal;font-weight:normal;font-stretch:normal;font-size:medium;line-height:125%;font-family:LilyUPC;-inkscape-font-specification:'LilyUPC, Normal';text-align:start;letter-spacing:0px;word-spacing:0px;writing-mode:lr-tb;text-anchor:start;fill:#000000;fill-opacity:1;stroke:none;stroke-width:1px;stroke-linecap:butt;stroke-linejoin:miter;stroke-opacity:1"
       d="m 19.614375,682.09485 q 0,0.0293 -0.424805,0.11719 -0.421142,0.0879 -1.07666,0.1062 -0.915527,0 -1.450195,-0.25635 -0.534668,-0.25635 -0.772705,-0.83496 -0.234375,-0.58228 -0.234375,-1.59302 0.0293,-0.80566 0.256348,-1.31836 0.230712,-0.51269 0.728759,-0.76538 0.501709,-0.25635 1.33667,-0.25635 0.531006,0.011 0.952149,0.0916 0.424804,0.0806 0.60791,0.13183 l 0.150146,0.72144 q -0.135498,-0.0696 -0.498047,-0.17212 -0.362548,-0.10254 -0.911865,-0.11353 -0.721435,0 -0.959472,0.47608 -0.238038,0.47607 -0.238038,1.20483 0,0.87891 0.194092,1.43189 0.197754,0.54931 0.809326,0.59326 0.487061,0 0.838623,-0.0842 0.351563,-0.0842 0.563965,-0.18311 0.216065,-0.10254 0.216065,-0.12451 l -0.08789,0.82764 z" />
    <path
       inkscape:connector-curvature="0"
       id="path4171"
       style="font-style:normal;font-variant:normal;font-weight:normal;font-stretch:normal;font-size:medium;line-height:125%;font-family:LilyUPC;-inkscape-font-specification:'LilyUPC, Normal';text-align:start;letter-spacing:0px;word-spacing:0px;writing-mode:lr-tb;text-anchor:start;fill:#000000;fill-opacity:1;stroke:none;stroke-width:1px;stroke-linecap:butt;stroke-linejoin:miter;stroke-opacity:1"
       d="m 20.152705,682.30359 0,-6.99097 1.409912,0 0,2.31079 q 0,0 0,0 0,-0.004 0.168457,-0.0952 0.175782,-0.0915 0.461426,-0.16846 0.289307,-0.0769 0.688477,-0.0806 0.560302,0 0.922851,0.16846 0.362549,0.1648 0.523682,0.43213 0.161133,0.26733 0.161133,0.56763 l 0,3.8562 -1.051026,0 0,-3.58521 q 0,-0.45044 -0.212402,-0.61523 -0.212402,-0.1648 -0.717773,-0.1648 -0.289307,0.0146 -0.501709,0.12452 -0.208741,0.1062 -0.325928,0.22705 -0.117188,0.11718 -0.117188,0.14282 l 0,3.87085 -1.409912,0 z" />
    <path
       inkscape:connector-curvature="0"
       id="path4173"
       style="font-style:normal;font-variant:normal;font-weight:normal;font-stretch:normal;font-size:medium;line-height:125%;font-family:LilyUPC;-inkscape-font-specification:'LilyUPC, Normal';text-align:start;letter-spacing:0px;word-spacing:0px;writing-mode:lr-tb;text-anchor:start;fill:#000000;fill-opacity:1;stroke:none;stroke-width:1px;stroke-linecap:butt;stroke-linejoin:miter;stroke-opacity:1"
       d="m 30.135615,677.02283 q 0,0.39917 0.65918,0.60425 0.662842,0.20141 1.333008,0.37353 0.673828,0.17212 1.175537,0.59692 0.501709,0.42115 0.520019,1.29273 0,0.86426 -0.289306,1.3916 -0.289307,0.52734 -0.812988,0.77271 -0.52002,0.24169 -1.26709,0.29296 -0.179444,0.0146 -0.509033,0.0146 -0.545655,0 -1.032715,-0.0806 -0.483399,-0.0806 -0.79834,-0.17579 -0.314942,-0.0989 -0.314942,-0.11718 l -0.270996,-1.06568 q 0.0037,0 0.325928,0.13916 0.322266,0.13916 0.772705,0.25635 0.454102,0.11719 1.003418,0.13184 0.886231,0 1.190186,-0.28565 0.307617,-0.2893 0.307617,-0.87158 0,-0.69214 -0.413819,-0.9082 -0.413818,-0.21973 -1.347656,-0.41748 -0.930176,-0.20142 -1.398926,-0.57862 -0.46875,-0.38086 -0.46875,-1.33667 0.02197,-0.60791 0.340577,-1.00341 0.318603,-0.39551 0.834961,-0.58594 0.520019,-0.19409 1.16455,-0.22339 1.072998,0 1.680909,0.12451 0.60791,0.12085 0.809326,0.20508 l 0.285644,1.12427 q 0,0 -0.292968,-0.13184 -0.292969,-0.13183 -0.750733,-0.23804 -0.457764,-0.10986 -1.087646,-0.10986 -0.611573,0 -0.959473,0.14649 -0.3479,0.14648 -0.388184,0.66284 z" />
    <path
       inkscape:connector-curvature="0"
       id="path4175"
       style="font-style:normal;font-variant:normal;font-weight:normal;font-stretch:normal;font-size:medium;line-height:125%;font-family:LilyUPC;-inkscape-font-specification:'LilyUPC, Normal';text-align:start;letter-spacing:0px;word-spacing:0px;writing-mode:lr-tb;text-anchor:start;fill:#000000;fill-opacity:1;stroke:none;stroke-width:1px;stroke-linecap:butt;stroke-linejoin:miter;stroke-opacity:1"
       d="m 34.36169,682.30359 0,-6.99097 1.409912,0 0,2.31079 q 0,0 0,0 0,-0.004 0.168457,-0.0952 0.175781,-0.0915 0.461425,-0.16846 0.289307,-0.0769 0.688477,-0.0806 0.560303,0 0.922852,0.16846 0.362548,0.1648 0.523681,0.43213 0.161133,0.26733 0.161133,0.56763 l 0,3.8562 -1.051025,0 0,-3.58521 q 0,-0.45044 -0.212403,-0.61523 -0.212402,-0.1648 -0.717773,-0.1648 -0.289307,0.0146 -0.501709,0.12452 -0.20874,0.1062 -0.325928,0.22705 -0.117187,0.11718 -0.117187,0.14282 l 0,3.87085 -1.409912,0 z" />
    <path
       inkscape:connector-curvature="0"
       id="path4177"
       style="font-style:normal;font-variant:normal;font-weight:normal;font-stretch:normal;font-size:medium;line-height:125%;font-family:LilyUPC;-inkscape-font-specification:'LilyUPC, Normal';text-align:start;letter-spacing:0px;word-spacing:0px;writing-mode:lr-tb;text-anchor:start;fill:#000000;fill-opacity:1;stroke:none;stroke-width:1px;stroke-linecap:butt;stroke-linejoin:miter;stroke-opacity:1"
       d="m 39.32751,682.30359 0,-4.99512 1.395264,0 0,4.99512 -1.395264,0 z m 0.706787,-7.00562 q 0.373535,0 0.582275,0.23438 0.212403,0.23437 0.212403,0.5603 0,0.33325 -0.216065,0.57129 -0.212402,0.23804 -0.593261,0.23804 -0.366211,0 -0.582276,-0.23804 -0.216064,-0.2417 -0.216064,-0.55664 0,-0.32227 0.216064,-0.56397 0.216065,-0.24536 0.596924,-0.24536 z" />
    <path
       inkscape:connector-curvature="0"
       id="path4179"
       style="font-style:normal;font-variant:normal;font-weight:normal;font-stretch:normal;font-size:medium;line-height:125%;font-family:LilyUPC;-inkscape-font-specification:'LilyUPC, Normal';text-align:start;letter-spacing:0px;word-spacing:0px;writing-mode:lr-tb;text-anchor:start;fill:#000000;fill-opacity:1;stroke:none;stroke-width:1px;stroke-linecap:butt;stroke-linejoin:miter;stroke-opacity:1"
       d="m 42.085078,682.30359 0,-4.36524 -0.944824,0 0,-0.62988 0.944824,0 0,-0.30029 q 0,-0.82764 0.585938,-1.30371 0.509033,-0.39185 1.739502,-0.39185 l 0,0.82764 q -0.494385,0 -0.721436,0.20874 -0.223389,0.23804 -0.223389,0.65918 l 0,0.30029 0.944825,0 0,0.62988 -0.944825,0 0,4.36524 -1.380615,0 z" />
    <path
       inkscape:connector-curvature="0"
       id="path4181"
       style="font-style:normal;font-variant:normal;font-weight:normal;font-stretch:normal;font-size:medium;line-height:125%;font-family:LilyUPC;-inkscape-font-specification:'LilyUPC, Normal';text-align:start;letter-spacing:0px;word-spacing:0px;writing-mode:lr-tb;text-anchor:start;fill:#000000;fill-opacity:1;stroke:none;stroke-width:1px;stroke-linecap:butt;stroke-linejoin:miter;stroke-opacity:1"
       d="m 46.801875,677.93835 0,2.89673 q 0,0.43213 0.256348,0.61524 0.183105,0.14648 0.692138,0.14648 l 0,0.70679 q -0.04395,0.004 -0.15747,0.007 -0.117188,0.007 -0.263672,0.007 -0.963135,0 -1.409912,-0.32959 -0.527344,-0.35889 -0.527344,-1.21582 l 0,-2.83448 -0.944824,0 0,-0.62988 0.944824,0 0,-1.99585 1.409912,0 0,1.99585 0.948486,0 0,0.62988 -0.948486,0 z" />
    <path
       inkscape:connector-curvature="0"
       id="path4183"
       style="font-style:normal;font-variant:normal;font-weight:normal;font-stretch:normal;font-size:medium;line-height:125%;font-family:LilyUPC;-inkscape-font-specification:'LilyUPC, Normal';text-align:start;letter-spacing:0px;word-spacing:0px;writing-mode:lr-tb;text-anchor:start;fill:#000000;fill-opacity:1;stroke:none;stroke-width:1px;stroke-linecap:butt;stroke-linejoin:miter;stroke-opacity:1"
       d="m 49.332393,680.05505 q 0.03296,0.39551 0.270996,0.99976 0.238037,0.60425 0.86792,0.63354 0.769043,0 1.204834,-0.19409 0.435791,-0.19775 0.567627,-0.32959 l -0.212403,0.86792 q 0,0.0769 -0.435791,0.20508 -0.435791,0.12451 -1.109619,0.12451 -0.267334,0 -0.41748,-0.0146 -1.091309,-0.0806 -1.600342,-0.62622 -0.505371,-0.54931 -0.516358,-1.75781 0,-1.38428 0.574952,-2.02881 0.578613,-0.64453 1.691894,-0.65552 1.33667,0 1.812744,0.70313 0.406494,0.58228 0.406494,1.57471 0,0.18676 -0.01099,0.3186 -0.01099,0.12817 -0.01831,0.17944 l -3.076172,0 z m 1.021728,-2.14599 q -1.021728,0.033 -1.021728,1.48315 l 2.175293,0 q 0,-1.48315 -1.153565,-1.48315 z" />
    <path
       inkscape:connector-curvature="0"
       id="path4185"
       style="font-style:normal;font-variant:normal;font-weight:normal;font-stretch:normal;font-size:medium;line-height:125%;font-family:LilyUPC;-inkscape-font-specification:'LilyUPC, Normal';text-align:start;letter-spacing:0px;word-spacing:0px;writing-mode:lr-tb;text-anchor:start;fill:#000000;fill-opacity:1;stroke:none;stroke-width:1px;stroke-linecap:butt;stroke-linejoin:miter;stroke-opacity:1"
       d="m 52.848018,682.30359 0,-4.99512 1.409912,0 0,0.61524 q 0.0073,-0.007 0.08423,-0.10254 0.08057,-0.0989 0.238037,-0.20508 0.157471,-0.1062 0.428467,-0.20142 0.289307,-0.12085 0.736084,-0.12085 0.344238,0 0.432129,0.0293 l 0.12085,0.72144 q -0.256348,-0.0623 -0.479737,-0.0623 -0.48706,0 -0.809326,0.18311 -0.362549,0.17944 -0.55664,0.49072 -0.194092,0.31128 -0.194092,0.57129 l 0,3.07617 -1.409912,0 z" />
  </g>
</svg>
