<?xml version="1.0" encoding="UTF-8" standalone="no"?>
<!-- Created with Inkscape (http://www.inkscape.org/) -->

<svg
   xmlns:dc="http://purl.org/dc/elements/1.1/"
   xmlns:cc="http://creativecommons.org/ns#"
   xmlns:rdf="http://www.w3.org/1999/02/22-rdf-syntax-ns#"
   xmlns:svg="http://www.w3.org/2000/svg"
   xmlns="http://www.w3.org/2000/svg"
   xmlns:sodipodi="http://sodipodi.sourceforge.net/DTD/sodipodi-0.dtd"
   xmlns:inkscape="http://www.inkscape.org/namespaces/inkscape"
   width="120"
   height="380"
   viewBox="0 0 33.866668 107.24447"
   version="1.1"
   id="svg4541"
   sodipodi:docname="MentalSubMixer.svg"
   inkscape:version="0.91 r13725">
  <defs
     id="defs4535" />
  <sodipodi:namedview
     id="base"
     pagecolor="#ffffff"
     bordercolor="#666666"
     borderopacity="1.0"
     inkscape:pageopacity="0.0"
     inkscape:pageshadow="2"
     inkscape:zoom="5.6"
     inkscape:cx="35.426196"
     inkscape:cy="335.1896"
     inkscape:document-units="mm"
     inkscape:current-layer="g13224"
     showgrid="true"
     fit-margin-top="0"
     fit-margin-left="0"
     fit-margin-right="0"
     fit-margin-bottom="0"
     inkscape:window-width="1920"
     inkscape:window-height="1061"
     inkscape:window-x="-4"
     inkscape:window-y="-4"
     inkscape:window-maximized="1"
     units="px"
     showguides="true"
     inkscape:guide-bbox="true">
    <inkscape:grid
       type="xygrid"
       id="grid4199"
       empspacing="3"
       spacingx="1.4111112"
       spacingy="1.4111114" />
    <sodipodi:guide
       position="47.977781,103.01113"
       orientation="0,1"
       id="guide5640" />
  </sodipodi:namedview>
  <metadata
     id="metadata4538">
    <rdf:RDF>
      <cc:Work
         rdf:about="">
        <dc:format>image/svg+xml</dc:format>
        <dc:type
           rdf:resource="http://purl.org/dc/dcmitype/StillImage" />
        <dc:title></dc:title>
      </cc:Work>
    </rdf:RDF>
  </metadata>
  <g
     inkscape:label="Layer 1"
     inkscape:groupmode="layer"
     id="layer1"
     transform="translate(5.559749,-92.265506)">
    <g
       transform="matrix(0.27602379,0,0,0.27602379,354.09618,57.736346)"
       id="g13122"
       style="stroke-width:0.9585526">
      <g
         transform="translate(-167.07644,-20.557569)"
         id="g13178"
         style="stroke-width:0.91882312">
        <g
           transform="translate(-99.2314,6.0949065)"
           id="g13224"
           style="stroke-width:0.88074034">
          <path
             style="fill:#ffd558;fill-opacity:0.85098039;fill-rule:nonzero;stroke:none;stroke-width:0.80924457"
             d="m -1036.6811,139.55752 122.69481,0 0,388.53342 -122.69481,0 z m 0,0"
             id="path25069"
             inkscape:connector-curvature="0"
             sodipodi:insensitive="true" />
          <path
             inkscape:connector-curvature="0"
             id="path5536"
             style="font-style:normal;font-variant:normal;font-weight:normal;font-stretch:normal;font-size:medium;line-height:125%;font-family:LilyUPC;-inkscape-font-specification:'LilyUPC, Normal';text-align:start;letter-spacing:0px;word-spacing:0px;writing-mode:lr-tb;text-anchor:start;fill:#000000;fill-opacity:1;stroke:none;stroke-width:1px;stroke-linecap:butt;stroke-linejoin:miter;stroke-opacity:1"
             d="m -993.23176,144.24421 q 0,0.40813 0.67398,0.61781 0.67773,0.20594 1.36295,0.38193 0.68896,0.17598 1.20193,0.61033 0.51298,0.43059 0.5317,1.32175 0,0.88367 -0.29581,1.42285 -0.2958,0.53919 -0.83124,0.79006 -0.5317,0.24713 -1.29554,0.29955 -0.18348,0.015 -0.52047,0.015 -0.55791,0 -1.0559,-0.0824 -0.49426,-0.0824 -0.81627,-0.17973 -0.32202,-0.1011 -0.32202,-0.11982 l -0.27708,-1.08961 q 0.004,0 0.33325,0.14229 0.3295,0.14228 0.79006,0.2621 0.4643,0.11982 1.02595,0.1348 0.90613,0 1.21691,-0.29206 0.31453,-0.2958 0.31453,-0.89115 0,-0.70769 -0.42312,-0.9286 -0.42311,-0.22466 -1.37792,-0.42686 -0.95106,-0.20594 -1.43034,-0.5916 -0.47927,-0.38942 -0.47927,-1.36669 0.0225,-0.62156 0.34822,-1.02595 0.32576,-0.40439 0.85371,-0.5991 0.5317,-0.19845 1.19071,-0.2284 1.09709,0 1.71865,0.1273 0.62156,0.12357 0.8275,0.20969 l 0.29206,1.14951 q 0,0 -0.29955,-0.13479 -0.29955,-0.1348 -0.76759,-0.24339 -0.46804,-0.11233 -1.11207,-0.11233 -0.62531,0 -0.98102,0.14978 -0.35571,0.14977 -0.3969,0.67772 z" />
          <path
             inkscape:connector-curvature="0"
             id="path5538"
             style="font-style:normal;font-variant:normal;font-weight:normal;font-stretch:normal;font-size:medium;line-height:125%;font-family:LilyUPC;-inkscape-font-specification:'LilyUPC, Normal';text-align:start;letter-spacing:0px;word-spacing:0px;writing-mode:lr-tb;text-anchor:start;fill:#000000;fill-opacity:1;stroke:none;stroke-width:1px;stroke-linecap:butt;stroke-linejoin:miter;stroke-opacity:1"
             d="m -987.46921,148.20198 q 0,0.31827 0.23215,0.52795 0.23589,0.20969 0.58037,0.20969 0.56915,-0.015 0.81253,-0.2696 0.24338,-0.25461 0.29206,-0.42311 l 0,-3.71065 1.07462,0 0,5.10729 -1.07462,0 0,-0.47553 q -0.14603,0.12357 -0.6328,0.30704 -0.48676,0.18347 -1.34422,0.18347 -0.63654,-0.0225 -1.01097,-0.38567 -0.37069,-0.3632 -0.37069,-1.02595 l 0,-3.71065 1.44157,0 0,3.66572 z" />
          <path
             inkscape:connector-curvature="0"
             id="path5540"
             style="font-style:normal;font-variant:normal;font-weight:normal;font-stretch:normal;font-size:medium;line-height:125%;font-family:LilyUPC;-inkscape-font-specification:'LilyUPC, Normal';text-align:start;letter-spacing:0px;word-spacing:0px;writing-mode:lr-tb;text-anchor:start;fill:#000000;fill-opacity:1;stroke:none;stroke-width:1px;stroke-linecap:butt;stroke-linejoin:miter;stroke-opacity:1"
             d="m -983.78851,142.4956 1.44157,0 0,2.26907 q 0.51672,-0.25836 1.31801,-0.25836 0.54293,0 0.9623,0.16475 0.42311,0.16475 0.71142,0.71517 0.29206,0.54668 0.29206,1.57263 0,1.10458 -0.30704,1.70368 -0.30703,0.59909 -0.77882,0.80129 -0.46804,0.20219 -1.04842,0.20968 -0.50923,0 -0.79005,-0.12731 -0.27709,-0.12731 -0.35946,-0.20968 l 0,0.30703 -1.44157,0 0,-7.14795 z m 1.44157,6.05835 q 0,0.0487 0.24338,0.21717 0.24713,0.16475 0.58412,0.19845 0.72266,0 1.01846,-0.49425 0.29955,-0.498 0.29955,-1.53144 0,-0.8612 -0.25836,-1.31801 -0.25462,-0.46055 -1.01097,-0.46055 -0.41937,0.0299 -0.64778,0.13854 -0.2284,0.10858 -0.2284,0.15351 l 0,3.09658 z" />
          <path
             inkscape:connector-curvature="0"
             id="path5542"
             style="font-style:normal;font-variant:normal;font-weight:normal;font-stretch:normal;font-size:medium;line-height:125%;font-family:LilyUPC;-inkscape-font-specification:'LilyUPC, Normal';text-align:start;letter-spacing:0px;word-spacing:0px;writing-mode:lr-tb;text-anchor:start;fill:#000000;fill-opacity:1;stroke:none;stroke-width:1px;stroke-linecap:butt;stroke-linejoin:miter;stroke-opacity:1"
             d="m -973.17703,144.85828 -2.01072,4.92382 -2.0856,-4.92382 0,4.78527 -1.14952,0 0,-7.14795 1.80852,0 1.67373,3.74434 1.61007,-3.74434 1.77856,0 0,7.14795 -1.62504,0 0,-4.78527 z" />
          <path
             inkscape:connector-curvature="0"
             id="path5544"
             style="font-style:normal;font-variant:normal;font-weight:normal;font-stretch:normal;font-size:medium;line-height:125%;font-family:LilyUPC;-inkscape-font-specification:'LilyUPC, Normal';text-align:start;letter-spacing:0px;word-spacing:0px;writing-mode:lr-tb;text-anchor:start;fill:#000000;fill-opacity:1;stroke:none;stroke-width:1px;stroke-linecap:butt;stroke-linejoin:miter;stroke-opacity:1"
             d="m -970.77316,149.64355 0,-5.10729 1.42659,0 0,5.10729 -1.42659,0 z m 0.72266,-7.16293 q 0.38192,0 0.59535,0.23964 0.21717,0.23963 0.21717,0.57288 0,0.34074 -0.22092,0.58412 -0.21717,0.24338 -0.60658,0.24338 -0.37444,0 -0.59535,-0.24338 -0.22092,-0.24713 -0.22092,-0.56914 0,-0.3295 0.22092,-0.57663 0.22091,-0.25087 0.61033,-0.25087 z" />
          <path
             inkscape:connector-curvature="0"
             id="path5546"
             style="font-style:normal;font-variant:normal;font-weight:normal;font-stretch:normal;font-size:medium;line-height:125%;font-family:LilyUPC;-inkscape-font-specification:'LilyUPC, Normal';text-align:start;letter-spacing:0px;word-spacing:0px;writing-mode:lr-tb;text-anchor:start;fill:#000000;fill-opacity:1;stroke:none;stroke-width:1px;stroke-linecap:butt;stroke-linejoin:miter;stroke-opacity:1"
             d="m -968.76619,144.53626 1.64002,0 0.90613,1.44158 0.98102,-1.44158 0.996,0 -1.50149,2.16424 1.8235,2.94305 -1.655,0 -1.05965,-1.70367 -1.17947,1.70367 -1.05965,0 1.73363,-2.46752 -1.62504,-2.63977 z" />
          <path
             inkscape:connector-curvature="0"
             id="path5548"
             style="font-style:normal;font-variant:normal;font-weight:normal;font-stretch:normal;font-size:medium;line-height:125%;font-family:LilyUPC;-inkscape-font-specification:'LilyUPC, Normal';text-align:start;letter-spacing:0px;word-spacing:0px;writing-mode:lr-tb;text-anchor:start;fill:#000000;fill-opacity:1;stroke:none;stroke-width:1px;stroke-linecap:butt;stroke-linejoin:miter;stroke-opacity:1"
             d="m -962.43076,147.34453 q 0.0337,0.40438 0.27708,1.0222 0.24338,0.61782 0.88741,0.64777 0.78632,0 1.23189,-0.19845 0.44558,-0.20219 0.58038,-0.33699 l -0.21718,0.88741 q 0,0.0786 -0.44557,0.20969 -0.44558,0.1273 -1.13454,0.1273 -0.27334,0 -0.42686,-0.015 -1.11581,-0.0824 -1.63628,-0.64028 -0.51672,-0.56165 -0.52795,-1.79729 0,-1.41536 0.58786,-2.07436 0.59161,-0.65901 1.72989,-0.67024 1.36669,0 1.85345,0.71891 0.41563,0.59535 0.41563,1.61007 0,0.19096 -0.0112,0.32576 -0.0112,0.13105 -0.0187,0.18347 l -3.14525,0 z m 1.04467,-2.19419 q -1.04467,0.0337 -1.04467,1.51646 l 2.22414,0 q 0,-1.51646 -1.17947,-1.51646 z" />
          <path
             inkscape:connector-curvature="0"
             id="path5550"
             style="font-style:normal;font-variant:normal;font-weight:normal;font-stretch:normal;font-size:medium;line-height:125%;font-family:LilyUPC;-inkscape-font-specification:'LilyUPC, Normal';text-align:start;letter-spacing:0px;word-spacing:0px;writing-mode:lr-tb;text-anchor:start;fill:#000000;fill-opacity:1;stroke:none;stroke-width:1px;stroke-linecap:butt;stroke-linejoin:miter;stroke-opacity:1"
             d="m -958.83619,149.64355 0,-5.10729 1.44158,0 0,0.62906 q 0.007,-0.008 0.0861,-0.10485 0.0824,-0.10109 0.24338,-0.20968 0.16101,-0.10859 0.43809,-0.20594 0.2958,-0.12356 0.75261,-0.12356 0.35197,0 0.44184,0.03 l 0.12356,0.73763 q -0.2621,-0.0636 -0.49051,-0.0636 -0.498,0 -0.8275,0.18722 -0.37069,0.18347 -0.56914,0.50174 -0.19845,0.31827 -0.19845,0.58412 l 0,3.14525 -1.44158,0 z" />
          <path
             inkscape:connector-curvature="0"
             id="path11545"
             style="font-style:normal;font-variant:normal;font-weight:normal;font-stretch:normal;font-size:medium;line-height:125%;font-family:LilyUPC;-inkscape-font-specification:'LilyUPC, Normal';text-align:start;letter-spacing:0px;word-spacing:0px;writing-mode:lr-tb;text-anchor:start;fill:#000000;fill-opacity:1;stroke:none;stroke-width:1px;stroke-linecap:butt;stroke-linejoin:miter;stroke-opacity:1"
             d="m -993.88042,264.69361 0,2.14676 q 0,0.0406 -0.26211,0.17162 -0.25898,0.13105 -0.78631,0.24338 -0.5242,0.10921 -1.27619,0.10921 -0.98912,-0.0218 -1.56324,-0.36507 -0.57101,-0.34323 -0.80815,-1.0297 -0.23714,-0.68958 -0.23714,-1.81289 0.025,-0.90488 0.27459,-1.51958 0.24962,-0.61781 0.79254,-0.94857 0.54292,-0.33075 1.42595,-0.34323 0.83936,0 1.46342,0.10297 0.62404,0.0999 0.64277,0.1529 l 0.2309,0.95793 q 0,0 0,0 0,-0.009 -0.20594,-0.12482 -0.22466,-0.12481 -0.58973,-0.22154 -0.36508,-0.0998 -0.88928,-0.0998 -0.24338,0 -0.38379,0.0125 -1.2793,0.0811 -1.2793,2.0313 0,0.67399 0.0593,1.17947 0.0593,0.50237 0.28083,0.86744 0.22154,0.36508 0.65837,0.40876 0.53357,0 0.80191,-0.0967 0.26834,-0.0967 0.33387,-0.15913 l 0,-1.66312 1.31676,0 z" />
          <path
             inkscape:connector-curvature="0"
             id="path11547"
             style="font-style:normal;font-variant:normal;font-weight:normal;font-stretch:normal;font-size:medium;line-height:125%;font-family:LilyUPC;-inkscape-font-specification:'LilyUPC, Normal';text-align:start;letter-spacing:0px;word-spacing:0px;writing-mode:lr-tb;text-anchor:start;fill:#000000;fill-opacity:1;stroke:none;stroke-width:1px;stroke-linecap:butt;stroke-linejoin:miter;stroke-opacity:1"
             d="m -990.74144,267.31466 0,-0.4462 q -0.0499,0.11545 -0.33699,0.28706 -0.28395,0.17162 -0.96728,0.17162 -0.58349,-0.0218 -0.9704,-0.29955 -0.38692,-0.27771 -0.39628,-0.8768 0,-0.64278 0.45868,-0.96417 0.4618,-0.32139 1.38227,-0.39004 0.42436,-0.0343 0.65214,-0.2153 0.2309,-0.18409 0.2309,-0.41188 0,-0.2309 -0.21218,-0.39627 -0.20906,-0.16538 -0.56789,-0.16538 -0.7395,0 -1.15137,0.27459 -0.40875,0.27146 -0.53669,0.45556 l 0.17786,-0.8456 q 0,-0.0218 0.19346,-0.13417 0.19658,-0.11233 0.54604,-0.20906 0.34947,-0.0999 0.83311,-0.10297 0.986,0 1.42596,0.33699 0.43996,0.33387 0.43996,0.8768 l 0,3.05477 -1.2013,0 z m -0.58662,-0.66463 q 0.58662,-0.15913 0.58662,-0.51172 l 0,-0.97041 q -0.003,0.009 -0.0437,0.0905 -0.0406,0.078 -0.18409,0.15601 -0.14354,0.078 -0.43684,0.11233 -0.49924,0.0687 -0.76134,0.22466 -0.26211,0.1529 -0.26211,0.52733 0.0406,0.43372 0.69271,0.43372 0.19656,0 0.40874,-0.0624 z" />
          <path
             inkscape:connector-curvature="0"
             id="path11549"
             style="font-style:normal;font-variant:normal;font-weight:normal;font-stretch:normal;font-size:medium;line-height:125%;font-family:LilyUPC;-inkscape-font-specification:'LilyUPC, Normal';text-align:start;letter-spacing:0px;word-spacing:0px;writing-mode:lr-tb;text-anchor:start;fill:#000000;fill-opacity:1;stroke:none;stroke-width:1px;stroke-linecap:butt;stroke-linejoin:miter;stroke-opacity:1"
             d="m -989.02841,267.31466 0,-4.25608 1.18882,0 0,4.25608 -1.18882,0 z m 0.6022,-5.96912 q 0.31827,0 0.49613,0.1997 0.18097,0.1997 0.18097,0.47741 0,0.28394 -0.18409,0.48676 -0.18098,0.20282 -0.50549,0.20282 -0.31202,0 -0.49611,-0.20282 -0.1841,-0.20594 -0.1841,-0.47428 0,-0.27459 0.1841,-0.48053 0.18409,-0.20906 0.50859,-0.20906 z" />
          <path
             inkscape:connector-curvature="0"
             id="path11551"
             style="font-style:normal;font-variant:normal;font-weight:normal;font-stretch:normal;font-size:medium;line-height:125%;font-family:LilyUPC;-inkscape-font-specification:'LilyUPC, Normal';text-align:start;letter-spacing:0px;word-spacing:0px;writing-mode:lr-tb;text-anchor:start;fill:#000000;fill-opacity:1;stroke:none;stroke-width:1px;stroke-linecap:butt;stroke-linejoin:miter;stroke-opacity:1"
             d="m -983.62412,264.04147 0,3.27319 -0.89552,0 0,-3.11717 q 0,-0.53669 -0.81751,-0.53669 -0.3994,0.0468 -0.57412,0.24962 -0.17162,0.1997 -0.20594,0.32451 l 0,3.07973 -1.2013,0 0,-4.25608 1.2013,0 0,0.34635 q 0.025,-0.0156 0.16849,-0.11233 0.14665,-0.0967 0.41187,-0.17785 0.26835,-0.0811 0.62094,-0.0811 0.66462,0 0.97665,0.30579 0.31514,0.30267 0.31514,0.70206 z" />
          <path
             inkscape:connector-curvature="0"
             id="path11538"
             style="font-style:normal;font-variant:normal;font-weight:normal;font-stretch:normal;font-size:medium;line-height:125%;font-family:LilyUPC;-inkscape-font-specification:'LilyUPC, Normal';text-align:start;letter-spacing:0px;word-spacing:0px;writing-mode:lr-tb;text-anchor:start;fill:#000000;fill-opacity:1;stroke:none;stroke-width:1px;stroke-linecap:butt;stroke-linejoin:miter;stroke-opacity:1"
             d="m -961.78387,263.12099 q 0,0.73327 -0.29642,1.12954 -0.2933,0.39316 -0.76135,0.52109 -0.46491,0.12793 -1.10457,0.12793 l -1.22626,0 0,2.45255 -1.3542,0 0,-5.95663 2.73647,0 q 0.93921,0 1.46341,0.37755 0.5242,0.37756 0.54292,1.34797 z m -1.2793,-0.0374 q -0.009,-0.45245 -0.25274,-0.69895 -0.24027,-0.2465 -0.6303,-0.2465 l -1.22626,0 0,2.03131 1.18882,0 q 0.45556,0 0.68646,-0.23403 0.23402,-0.23402 0.23402,-0.85183 z" />
          <path
             inkscape:connector-curvature="0"
             id="path11540"
             style="font-style:normal;font-variant:normal;font-weight:normal;font-stretch:normal;font-size:medium;line-height:125%;font-family:LilyUPC;-inkscape-font-specification:'LilyUPC, Normal';text-align:start;letter-spacing:0px;word-spacing:0px;writing-mode:lr-tb;text-anchor:start;fill:#000000;fill-opacity:1;stroke:none;stroke-width:1px;stroke-linecap:butt;stroke-linejoin:miter;stroke-opacity:1"
             d="m -958.90699,267.3521 0,-0.4462 q -0.0499,0.11545 -0.33698,0.28707 -0.28395,0.17161 -0.96728,0.17161 -0.5835,-0.0218 -0.9704,-0.29955 -0.38692,-0.2777 -0.39628,-0.8768 0,-0.64278 0.45868,-0.96417 0.4618,-0.32139 1.38227,-0.39003 0.42436,-0.0343 0.65214,-0.2153 0.23089,-0.1841 0.23089,-0.41188 0,-0.2309 -0.21217,-0.39628 -0.20906,-0.16537 -0.56789,-0.16537 -0.7395,0 -1.15138,0.27458 -0.40874,0.27147 -0.53668,0.45557 l 0.17786,-0.8456 q 0,-0.0219 0.19346,-0.13418 0.19657,-0.11233 0.54604,-0.20905 0.34947,-0.0999 0.83311,-0.10297 0.986,0 1.42597,0.33699 0.43995,0.33387 0.43995,0.8768 l 0,3.05476 -1.20131,0 z m -0.58661,-0.66462 q 0.58661,-0.15913 0.58661,-0.51173 l 0,-0.97041 q -0.003,0.009 -0.0437,0.0905 -0.0406,0.078 -0.18408,0.15602 -0.14354,0.078 -0.43684,0.11233 -0.49924,0.0686 -0.76134,0.22466 -0.26211,0.15289 -0.26211,0.52733 0.0406,0.43372 0.6927,0.43372 0.19657,0 0.40875,-0.0624 z" />
          <path
             inkscape:connector-curvature="0"
             id="path11542"
             style="font-style:normal;font-variant:normal;font-weight:normal;font-stretch:normal;font-size:medium;line-height:125%;font-family:LilyUPC;-inkscape-font-specification:'LilyUPC, Normal';text-align:start;letter-spacing:0px;word-spacing:0px;writing-mode:lr-tb;text-anchor:start;fill:#000000;fill-opacity:1;stroke:none;stroke-width:1px;stroke-linecap:butt;stroke-linejoin:miter;stroke-opacity:1"
             d="m -953.51205,264.07892 0,3.27318 -0.89551,0 0,-3.11717 q 0,-0.53669 -0.81751,-0.53669 -0.3994,0.0468 -0.57413,0.24963 -0.17162,0.19969 -0.20594,0.32451 l 0,3.07972 -1.20129,0 0,-4.25607 1.20129,0 0,0.34635 q 0.025,-0.0156 0.16849,-0.11233 0.14666,-0.0967 0.41188,-0.17786 0.26834,-0.0811 0.62093,-0.0811 0.66461,0 0.97664,0.30579 0.31515,0.30267 0.31515,0.70207 z" />
          <path
             inkscape:connector-curvature="0"
             id="path11533"
             style="font-style:normal;font-variant:normal;font-weight:normal;font-stretch:normal;font-size:medium;line-height:125%;font-family:LilyUPC;-inkscape-font-specification:'LilyUPC, Normal';text-align:start;letter-spacing:0px;word-spacing:0px;writing-mode:lr-tb;text-anchor:start;fill:#000000;fill-opacity:1;stroke:none;stroke-width:1px;stroke-linecap:butt;stroke-linejoin:miter;stroke-opacity:1"
             d="m -1022.3074,261.40795 0,5.95663 -1.3542,0 0,-5.95663 1.3542,0 z" />
          <path
             inkscape:connector-curvature="0"
             id="path11535"
             style="font-style:normal;font-variant:normal;font-weight:normal;font-stretch:normal;font-size:medium;line-height:125%;font-family:LilyUPC;-inkscape-font-specification:'LilyUPC, Normal';text-align:start;letter-spacing:0px;word-spacing:0px;writing-mode:lr-tb;text-anchor:start;fill:#000000;fill-opacity:1;stroke:none;stroke-width:1px;stroke-linecap:butt;stroke-linejoin:miter;stroke-opacity:1"
             d="m -1017.9984,264.0914 0,3.27318 -0.8954,0 0,-3.11717 q 0,-0.53669 -0.8176,-0.53669 -0.3994,0.0468 -0.5741,0.24963 -0.1716,0.1997 -0.2059,0.32451 l 0,3.07972 -1.2013,0 0,-4.25607 1.2013,0 0,0.34635 q 0.025,-0.0156 0.1685,-0.11233 0.1466,-0.0967 0.4118,-0.17786 0.2684,-0.0811 0.621,-0.0811 0.6645,0 0.9765,0.30578 0.3152,0.30267 0.3152,0.70207 z" />
          <path
             inkscape:connector-curvature="0"
             id="path11526"
             style="font-style:normal;font-variant:normal;font-weight:normal;font-stretch:normal;font-size:medium;line-height:125%;font-family:LilyUPC;-inkscape-font-specification:'LilyUPC, Normal';text-align:start;letter-spacing:0px;word-spacing:0px;writing-mode:lr-tb;text-anchor:start;fill:#000000;fill-opacity:1;stroke:none;stroke-width:1px;stroke-linecap:butt;stroke-linejoin:miter;stroke-opacity:1"
             d="m -932.94022,261.33306 q 0.93296,0 1.50398,0.33699 0.571,0.33387 0.8175,0.99225 0.24651,0.65839 0.24651,1.66312 0,1.03282 -0.27147,1.70992 -0.27146,0.67398 -0.84247,1.00161 -0.56789,0.32763 -1.46653,0.32763 -0.86431,0 -1.41971,-0.32139 -0.55542,-0.32139 -0.82063,-0.99537 -0.26523,-0.67398 -0.26523,-1.7224 0.009,-1.49774 0.62717,-2.24037 0.62094,-0.74263 1.89088,-0.75199 z m -1.11393,2.99236 q 0.0343,1.0453 0.22154,1.62255 0.18721,0.57725 0.87991,0.58661 0.51172,0 0.76135,-0.3089 0.25274,-0.31203 0.31827,-0.7676 0.0686,-0.45868 0.0686,-1.1077 0,-0.66462 -0.0593,-1.10146 -0.0562,-0.43684 -0.30267,-0.75823 -0.2465,-0.32451 -0.74887,-0.32763 -0.71454,0 -0.92672,0.58349 -0.21217,0.5835 -0.21217,1.57887 z" />
          <path
             inkscape:connector-curvature="0"
             id="path11528"
             style="font-style:normal;font-variant:normal;font-weight:normal;font-stretch:normal;font-size:medium;line-height:125%;font-family:LilyUPC;-inkscape-font-specification:'LilyUPC, Normal';text-align:start;letter-spacing:0px;word-spacing:0px;writing-mode:lr-tb;text-anchor:start;fill:#000000;fill-opacity:1;stroke:none;stroke-width:1px;stroke-linecap:butt;stroke-linejoin:miter;stroke-opacity:1"
             d="m -928.7029,266.11335 q 0,0.26522 0.19346,0.43996 0.19657,0.17473 0.48363,0.17473 0.47429,-0.0125 0.6771,-0.22466 0.20282,-0.21218 0.24338,-0.35259 l 0,-3.09221 0.89552,0 0,4.25608 -0.89552,0 0,-0.39628 q -0.12169,0.10297 -0.52732,0.25586 -0.40564,0.1529 -1.12017,0.1529 -0.53045,-0.0187 -0.84247,-0.32139 -0.30891,-0.30267 -0.30891,-0.85496 l 0,-3.09221 1.2013,0 0,3.05477 z" />
          <path
             inkscape:connector-curvature="0"
             id="path11530"
             style="font-style:normal;font-variant:normal;font-weight:normal;font-stretch:normal;font-size:medium;line-height:125%;font-family:LilyUPC;-inkscape-font-specification:'LilyUPC, Normal';text-align:start;letter-spacing:0px;word-spacing:0px;writing-mode:lr-tb;text-anchor:start;fill:#000000;fill-opacity:1;stroke:none;stroke-width:1px;stroke-linecap:butt;stroke-linejoin:miter;stroke-opacity:1"
             d="m -923.84777,263.59527 0,2.46815 q 0,0.36819 0.21842,0.52421 0.15601,0.12481 0.58973,0.12481 l 0,0.60222 q -0.0374,0.003 -0.13418,0.006 -0.0998,0.006 -0.22466,0.006 -0.82062,0 -1.20129,-0.28083 -0.44932,-0.30579 -0.44932,-1.03593 l 0,-2.41511 -0.80502,0 0,-0.53669 0.80502,0 0,-1.70056 1.2013,0 0,1.70056 0.80815,0 0,0.53669 -0.80815,0 z" />
          <g
             style="font-style:normal;font-variant:normal;font-weight:normal;font-stretch:normal;font-size:12.78070545px;line-height:125%;font-family:LilyUPC;-inkscape-font-specification:'LilyUPC, Normal';text-align:start;letter-spacing:0px;word-spacing:0px;writing-mode:lr-tb;text-anchor:start;fill:#000000;fill-opacity:1;stroke:none;stroke-width:1px;stroke-linecap:butt;stroke-linejoin:miter;stroke-opacity:1"
             id="text12117"
             transform="translate(0.91290753,9.4942377)">
            <path
               d="m -950.73554,162.00276 2.88939,0 0,0.74263 -4.2436,0 0,-5.95663 1.35421,0 0,5.214 z"
               id="path12129"
               inkscape:connector-curvature="0" />
          </g>
          <g
             style="font-style:normal;font-variant:normal;font-weight:normal;font-stretch:normal;font-size:12.78070545px;line-height:125%;font-family:LilyUPC;-inkscape-font-specification:'LilyUPC, Normal';text-align:start;letter-spacing:0px;word-spacing:0px;writing-mode:lr-tb;text-anchor:start;fill:#000000;fill-opacity:1;stroke:none;stroke-width:1px;stroke-linecap:butt;stroke-linejoin:miter;stroke-opacity:1"
             id="text12121"
             transform="translate(1.095489,4.5645373)">
            <path
               d="m -949.97285,196.25052 1.70056,2.64601 -1.57263,0 -1.82849,-3.22014 0.73015,0 q 0.0281,0 0.14041,0.006 0.11233,0.006 0.19034,0.006 1.07026,0 1.09834,-0.93296 0,-0.49301 -0.25274,-0.7832 -0.25274,-0.29018 -0.66774,-0.29018 l -1.21379,0 0,5.214 -1.35421,0 0,-5.95663 2.73649,0 q 1.99387,0 1.99387,1.72552 -0.0281,0.70518 -0.40564,1.05466 -0.37755,0.34947 -0.83624,0.45556 -0.34947,0.0843 -0.43372,0.0843 -0.025,0 -0.025,-0.009 z"
               id="path12126"
               inkscape:connector-curvature="0" />
          </g>
        </g>
      </g>
    </g>
  </g>
</svg>
