<?xml version="1.0" encoding="UTF-8" standalone="no"?>
<!-- Created with Inkscape (http://www.inkscape.org/) -->

<svg
   xmlns:dc="http://purl.org/dc/elements/1.1/"
   xmlns:cc="http://creativecommons.org/ns#"
   xmlns:rdf="http://www.w3.org/1999/02/22-rdf-syntax-ns#"
   xmlns:svg="http://www.w3.org/2000/svg"
   xmlns="http://www.w3.org/2000/svg"
   xmlns:sodipodi="http://sodipodi.sourceforge.net/DTD/sodipodi-0.dtd"
   xmlns:inkscape="http://www.inkscape.org/namespaces/inkscape"
   width="60"
   height="380"
   viewBox="0 0 59.999999 380.00001"
   id="svg14650"
   version="1.1"
   inkscape:version="0.91 r13725"
   sodipodi:docname="MentalFold.svg">
  <defs
     id="defs14652" />
  <sodipodi:namedview
     id="base"
     pagecolor="#ffffff"
     bordercolor="#666666"
     borderopacity="1.0"
     inkscape:pageopacity="0.0"
     inkscape:pageshadow="2"
     inkscape:zoom="1.4"
     inkscape:cx="62.955215"
     inkscape:cy="205.75667"
     inkscape:document-units="px"
     inkscape:current-layer="layer1"
     showgrid="true"
     units="px"
     objecttolerance="2"
     inkscape:window-width="1600"
     inkscape:window-height="853"
     inkscape:window-x="1916"
     inkscape:window-y="-4"
     inkscape:window-maximized="1">
    <inkscape:grid
       type="xygrid"
       id="grid15198"
       spacingx="4.9999999"
       spacingy="5.0000001"
       empspacing="3" />
  </sodipodi:namedview>
  <metadata
     id="metadata14655">
    <rdf:RDF>
      <cc:Work
         rdf:about="">
        <dc:format>image/svg+xml</dc:format>
        <dc:type
           rdf:resource="http://purl.org/dc/dcmitype/StillImage" />
        <dc:title></dc:title>
      </cc:Work>
    </rdf:RDF>
  </metadata>
  <g
     inkscape:label="Layer 1"
     inkscape:groupmode="layer"
     id="layer1"
     transform="translate(0,-672.36216)">
    <rect
       style="fill:#ffd558;fill-opacity:0.85207101;stroke:none;stroke-width:3.89763784;stroke-linejoin:round;stroke-miterlimit:4;stroke-dasharray:none;stroke-opacity:1"
       id="rect15200"
       width="60"
       height="380"
       x="0"
       y="672.36218" />
    <path
       inkscape:connector-curvature="0"
       id="path15211"
       style="font-style:normal;font-variant:normal;font-weight:normal;font-stretch:normal;font-size:medium;line-height:125%;font-family:LilyUPC;-inkscape-font-specification:'LilyUPC, Normal';text-align:start;letter-spacing:0px;word-spacing:0px;writing-mode:lr-tb;text-anchor:start;fill:#000000;fill-opacity:1;stroke:none;stroke-width:1px;stroke-linecap:butt;stroke-linejoin:miter;stroke-opacity:1"
       d="m 21.08374,690.36218 -1.589355,0 0,-6.99096 4.75708,0 0,0.87158 -3.167725,0 0,2.03979 2.640381,0 0,0.86792 -2.640381,0 0,3.21167 z" />
    <path
       inkscape:connector-curvature="0"
       id="path15213"
       style="font-style:normal;font-variant:normal;font-weight:normal;font-stretch:normal;font-size:medium;line-height:125%;font-family:LilyUPC;-inkscape-font-specification:'LilyUPC, Normal';text-align:start;letter-spacing:0px;word-spacing:0px;writing-mode:lr-tb;text-anchor:start;fill:#000000;fill-opacity:1;stroke:none;stroke-width:1px;stroke-linecap:butt;stroke-linejoin:miter;stroke-opacity:1"
       d="m 26.825928,685.33777 q 0.871582,0 1.391601,0.28198 0.523682,0.28198 0.750733,0.83496 0.22705,0.55298 0.22705,1.40259 0,1.32935 -0.563964,1.94824 -0.563965,0.61524 -1.838379,0.61524 -1.208496,-0.011 -1.783448,-0.6189 -0.571289,-0.60791 -0.571289,-1.92993 0.02197,-2.53418 2.387696,-2.53418 z m -0.992432,2.51953 q 0.02564,0.64819 0.07324,0.98511 0.05127,0.33325 0.267334,0.60425 0.216065,0.27099 0.666504,0.27099 0.629883,0 0.794678,-0.47607 0.164795,-0.47974 0.164795,-1.35498 0,-0.8606 -0.168457,-1.35865 -0.164795,-0.5017 -0.791016,-0.5017 -0.644531,0.0183 -0.827637,0.5017 -0.179443,0.47974 -0.179443,1.32935 z" />
    <path
       inkscape:connector-curvature="0"
       id="path15215"
       style="font-style:normal;font-variant:normal;font-weight:normal;font-stretch:normal;font-size:medium;line-height:125%;font-family:LilyUPC;-inkscape-font-specification:'LilyUPC, Normal';text-align:start;letter-spacing:0px;word-spacing:0px;writing-mode:lr-tb;text-anchor:start;fill:#000000;fill-opacity:1;stroke:none;stroke-width:1px;stroke-linecap:butt;stroke-linejoin:miter;stroke-opacity:1"
       d="m 29.686035,690.36218 0,-6.99096 1.380615,0 0,6.99096 -1.380615,0 z" />
    <path
       inkscape:connector-curvature="0"
       id="path15217"
       style="font-style:normal;font-variant:normal;font-weight:normal;font-stretch:normal;font-size:medium;line-height:125%;font-family:LilyUPC;-inkscape-font-specification:'LilyUPC, Normal';text-align:start;letter-spacing:0px;word-spacing:0px;writing-mode:lr-tb;text-anchor:start;fill:#000000;fill-opacity:1;stroke:none;stroke-width:1px;stroke-linecap:butt;stroke-linejoin:miter;stroke-opacity:1"
       d="m 36.208252,683.37122 0,6.99096 -1.395264,0 0,-0.30029 q -0.0769,0.0806 -0.351562,0.20508 -0.274658,0.12451 -0.776367,0.12451 -0.574952,-0.007 -1.036377,-0.19775 -0.457764,-0.1941 -0.761719,-0.77637 -0.300293,-0.58228 -0.300293,-1.68091 0.01831,-1.46118 0.556641,-1.92993 0.541992,-0.46875 1.376953,-0.46875 0.787353,0 1.292724,0.25268 l 0,-2.21923 1.395264,0 z m -1.395264,5.92529 0,-3.02857 q 0,-0.0439 -0.227051,-0.15014 -0.22705,-0.1062 -0.629882,-0.1355 -0.739746,0 -0.992432,0.45044 -0.252686,0.44678 -0.252686,1.28906 0,0.67017 0.117188,1.10596 0.12085,0.43213 0.402832,0.65552 0.281982,0.21972 0.754395,0.21972 0.344238,-0.033 0.585937,-0.19043 0.241699,-0.16113 0.241699,-0.21606 z" />
    <path
       inkscape:connector-curvature="0"
       id="path15219"
       style="font-style:normal;font-variant:normal;font-weight:normal;font-stretch:normal;font-size:medium;line-height:125%;font-family:LilyUPC;-inkscape-font-specification:'LilyUPC, Normal';text-align:start;letter-spacing:0px;word-spacing:0px;writing-mode:lr-tb;text-anchor:start;fill:#000000;fill-opacity:1;stroke:none;stroke-width:1px;stroke-linecap:butt;stroke-linejoin:miter;stroke-opacity:1"
       d="m 38.182129,688.11365 q 0.03296,0.39551 0.270996,0.99975 0.238037,0.60425 0.86792,0.63355 0.769043,0 1.204834,-0.19409 0.435791,-0.19776 0.567627,-0.32959 l -0.212402,0.86792 q 0,0.0769 -0.435792,0.20507 -0.435791,0.12452 -1.109619,0.12452 -0.267334,0 -0.41748,-0.0147 -1.091309,-0.0806 -1.600342,-0.62622 -0.505371,-0.54932 -0.516357,-1.75782 0,-1.38427 0.574951,-2.0288 0.578613,-0.64454 1.691894,-0.65552 1.33667,0 1.812745,0.70312 0.406494,0.58228 0.406494,1.57471 0,0.18677 -0.01099,0.3186 -0.01099,0.12818 -0.01831,0.17945 l -3.076172,0 z m 1.021728,-2.146 q -1.021728,0.033 -1.021728,1.48316 l 2.175293,0 q 0,-1.48316 -1.153565,-1.48316 z" />
    <path
       inkscape:connector-curvature="0"
       id="path15221"
       style="font-style:normal;font-variant:normal;font-weight:normal;font-stretch:normal;font-size:medium;line-height:125%;font-family:LilyUPC;-inkscape-font-specification:'LilyUPC, Normal';text-align:start;letter-spacing:0px;word-spacing:0px;writing-mode:lr-tb;text-anchor:start;fill:#000000;fill-opacity:1;stroke:none;stroke-width:1px;stroke-linecap:butt;stroke-linejoin:miter;stroke-opacity:1"
       d="m 41.697754,690.36218 0,-4.99511 1.409912,0 0,0.61523 q 0.0073,-0.007 0.08423,-0.10254 0.08057,-0.0989 0.238037,-0.20508 0.15747,-0.1062 0.428466,-0.20141 0.289307,-0.12085 0.736084,-0.12085 0.344239,0 0.432129,0.0293 l 0.12085,0.72144 q -0.256348,-0.0623 -0.479736,-0.0623 -0.487061,0 -0.809327,0.18311 -0.362548,0.17944 -0.55664,0.49072 -0.194092,0.31128 -0.194092,0.57129 l 0,3.07617 -1.409912,0 z" />
    <path
       inkscape:connector-curvature="0"
       id="path16358"
       style="font-style:normal;font-variant:normal;font-weight:normal;font-stretch:normal;font-size:medium;line-height:125%;font-family:LilyUPC;-inkscape-font-specification:'LilyUPC, Normal';text-align:start;letter-spacing:0px;word-spacing:0px;writing-mode:lr-tb;text-anchor:start;fill:#000000;fill-opacity:1;stroke:none;stroke-width:1px;stroke-linecap:butt;stroke-linejoin:miter;stroke-opacity:1"
       d="m 12.675415,754.2627 -1.599121,0 0,-0.72632 4.522705,0 0,0.72632 -1.599121,0 0,5.09948 -1.324463,0 0,-5.09948 z" />
    <path
       inkscape:connector-curvature="0"
       id="path16360"
       style="font-style:normal;font-variant:normal;font-weight:normal;font-stretch:normal;font-size:medium;line-height:125%;font-family:LilyUPC;-inkscape-font-specification:'LilyUPC, Normal';text-align:start;letter-spacing:0px;word-spacing:0px;writing-mode:lr-tb;text-anchor:start;fill:#000000;fill-opacity:1;stroke:none;stroke-width:1px;stroke-linecap:butt;stroke-linejoin:miter;stroke-opacity:1"
       d="m 15.901123,759.36218 0,-5.8258 1.174927,0 0,1.92566 q 0,0 0,0 0,-0.003 0.140381,-0.0793 0.146484,-0.0763 0.384521,-0.14038 0.241089,-0.0641 0.573731,-0.0671 0.466919,0 0.769043,0.14038 0.302124,0.13733 0.436401,0.36011 0.134277,0.22278 0.134277,0.47302 l 0,3.2135 -0.875854,0 0,-2.98767 q 0,-0.37536 -0.177002,-0.51269 -0.177002,-0.13733 -0.598145,-0.13733 -0.241089,0.0122 -0.418091,0.10376 -0.17395,0.0885 -0.271606,0.18921 -0.09766,0.0976 -0.09766,0.11901 l 0,3.22571 -1.174927,0 z" />
    <path
       inkscape:connector-curvature="0"
       id="path16362"
       style="font-style:normal;font-variant:normal;font-weight:normal;font-stretch:normal;font-size:medium;line-height:125%;font-family:LilyUPC;-inkscape-font-specification:'LilyUPC, Normal';text-align:start;letter-spacing:0px;word-spacing:0px;writing-mode:lr-tb;text-anchor:start;fill:#000000;fill-opacity:1;stroke:none;stroke-width:1px;stroke-linecap:butt;stroke-linejoin:miter;stroke-opacity:1"
       d="m 20.0271,759.36218 0,-4.1626 1.174926,0 0,0.5127 q 0.0061,-0.006 0.07019,-0.0854 0.06714,-0.0824 0.198364,-0.1709 0.131226,-0.0885 0.357056,-0.16784 0.241089,-0.10071 0.613403,-0.10071 0.286865,0 0.360107,0.0244 l 0.100708,0.6012 q -0.213623,-0.0519 -0.39978,-0.0519 -0.405884,0 -0.674438,0.15259 -0.302124,0.14953 -0.463867,0.40893 -0.161744,0.2594 -0.161744,0.47608 l 0,2.56347 -1.174926,0 z" />
    <path
       inkscape:connector-curvature="0"
       id="path16364"
       style="font-style:normal;font-variant:normal;font-weight:normal;font-stretch:normal;font-size:medium;line-height:125%;font-family:LilyUPC;-inkscape-font-specification:'LilyUPC, Normal';text-align:start;letter-spacing:0px;word-spacing:0px;writing-mode:lr-tb;text-anchor:start;fill:#000000;fill-opacity:1;stroke:none;stroke-width:1px;stroke-linecap:butt;stroke-linejoin:miter;stroke-opacity:1"
       d="m 24.275146,757.4884 q 0.02747,0.32959 0.225831,0.83313 0.198364,0.50354 0.723266,0.52796 0.640869,0 1.004028,-0.16175 0.36316,-0.16479 0.473023,-0.27465 l -0.177002,0.72326 q 0,0.0641 -0.363159,0.1709 -0.363159,0.10376 -0.924683,0.10376 -0.222778,0 -0.3479,-0.0122 -0.909424,-0.0671 -1.333618,-0.52185 -0.421143,-0.45776 -0.430298,-1.46484 0,-1.15357 0.479126,-1.69067 0.482177,-0.53711 1.409912,-0.54627 1.113891,0 1.51062,0.58594 0.338745,0.48523 0.338745,1.31225 0,0.15564 -0.0092,0.26551 -0.0092,0.10681 -0.01526,0.14953 l -2.563477,0 z m 0.851441,-1.78833 q -0.851441,0.0275 -0.851441,1.23597 l 1.812745,0 q 0,-1.23597 -0.961304,-1.23597 z" />
    <path
       inkscape:connector-curvature="0"
       id="path16366"
       style="font-style:normal;font-variant:normal;font-weight:normal;font-stretch:normal;font-size:medium;line-height:125%;font-family:LilyUPC;-inkscape-font-specification:'LilyUPC, Normal';text-align:start;letter-spacing:0px;word-spacing:0px;writing-mode:lr-tb;text-anchor:start;fill:#000000;fill-opacity:1;stroke:none;stroke-width:1px;stroke-linecap:butt;stroke-linejoin:miter;stroke-opacity:1"
       d="m 28.242432,756.21277 q 0,0.24109 0.427246,0.36316 0.430298,0.11902 0.881958,0.22583 0.45166,0.10376 0.78125,0.354 0.332641,0.24719 0.3479,0.76904 0,0.76294 -0.411987,1.09559 -0.408936,0.33264 -1.190186,0.39062 -0.09766,0.0122 -0.299072,0.0122 -0.531006,0 -0.915527,-0.0824 -0.384522,-0.0855 -0.534058,-0.14038 l -0.161743,-0.72632 q 0.137329,0.0946 0.50354,0.23804 0.366211,0.14343 0.881958,0.14953 0.549316,0 0.744629,-0.16479 0.198364,-0.16785 0.207519,-0.52185 0,-0.40894 -0.27771,-0.54016 -0.274658,-0.13123 -0.894165,-0.2533 -0.616455,-0.12207 -0.930786,-0.35095 -0.311279,-0.22888 -0.311279,-0.80566 0.04578,-1.00403 1.586914,-1.07422 0.05188,0 0.143433,-0.006 0.09155,-0.006 0.131225,-0.006 0.558472,0 0.900269,0.0793 0.341797,0.0793 0.463867,0.13122 l 0.198364,0.67444 q -0.119018,-0.0763 -0.466919,-0.18616 -0.3479,-0.11291 -0.942993,-0.11291 -0.402832,0 -0.628662,0.0946 -0.22583,0.0915 -0.234985,0.39368 z" />
    <path
       inkscape:connector-curvature="0"
       id="path16368"
       style="font-style:normal;font-variant:normal;font-weight:normal;font-stretch:normal;font-size:medium;line-height:125%;font-family:LilyUPC;-inkscape-font-specification:'LilyUPC, Normal';text-align:start;letter-spacing:0px;word-spacing:0px;writing-mode:lr-tb;text-anchor:start;fill:#000000;fill-opacity:1;stroke:none;stroke-width:1px;stroke-linecap:butt;stroke-linejoin:miter;stroke-opacity:1"
       d="m 31.08667,759.36218 0,-5.8258 1.174927,0 0,1.92566 q 0,0 0,0 0,-0.003 0.140381,-0.0793 0.146484,-0.0763 0.384521,-0.14038 0.241089,-0.0641 0.57373,-0.0671 0.466919,0 0.769043,0.14038 0.302124,0.13733 0.436402,0.36011 0.134277,0.22278 0.134277,0.47302 l 0,3.2135 -0.875854,0 0,-2.98767 q 0,-0.37536 -0.177002,-0.51269 -0.177002,-0.13733 -0.598145,-0.13733 -0.241089,0.0122 -0.418091,0.10376 -0.17395,0.0885 -0.271606,0.18921 -0.09766,0.0976 -0.09766,0.11901 l 0,3.22571 -1.174927,0 z" />
    <path
       inkscape:connector-curvature="0"
       id="path16370"
       style="font-style:normal;font-variant:normal;font-weight:normal;font-stretch:normal;font-size:medium;line-height:125%;font-family:LilyUPC;-inkscape-font-specification:'LilyUPC, Normal';text-align:start;letter-spacing:0px;word-spacing:0px;writing-mode:lr-tb;text-anchor:start;fill:#000000;fill-opacity:1;stroke:none;stroke-width:1px;stroke-linecap:butt;stroke-linejoin:miter;stroke-opacity:1"
       d="m 35.212646,759.36218 0,-5.8258 1.174927,0 0,1.92566 q 0,0 0,0 0,-0.003 0.140381,-0.0793 0.146484,-0.0763 0.384522,-0.14038 0.241088,-0.0641 0.57373,-0.0671 0.466919,0 0.769043,0.14038 0.302124,0.13733 0.436401,0.36011 0.134278,0.22278 0.134278,0.47302 l 0,3.2135 -0.875855,0 0,-2.98767 q 0,-0.37536 -0.177002,-0.51269 -0.177002,-0.13733 -0.598144,-0.13733 -0.241089,0.0122 -0.418091,0.10376 -0.17395,0.0885 -0.271607,0.18921 -0.09766,0.0976 -0.09766,0.11901 l 0,3.22571 -1.174927,0 z" />
    <path
       inkscape:connector-curvature="0"
       id="path16372"
       style="font-style:normal;font-variant:normal;font-weight:normal;font-stretch:normal;font-size:medium;line-height:125%;font-family:LilyUPC;-inkscape-font-specification:'LilyUPC, Normal';text-align:start;letter-spacing:0px;word-spacing:0px;writing-mode:lr-tb;text-anchor:start;fill:#000000;fill-opacity:1;stroke:none;stroke-width:1px;stroke-linecap:butt;stroke-linejoin:miter;stroke-opacity:1"
       d="m 41.227661,755.17517 q 0.726318,0 1.159668,0.23499 0.436401,0.23498 0.62561,0.6958 0.189209,0.46081 0.189209,1.16882 0,1.10779 -0.46997,1.62354 -0.469971,0.51269 -1.531983,0.51269 -1.00708,-0.009 -1.486206,-0.51575 -0.476074,-0.50659 -0.476074,-1.60827 0.01831,-2.11182 1.989746,-2.11182 z m -0.827026,2.09961 q 0.02136,0.54016 0.06103,0.82092 0.04273,0.27771 0.222778,0.50354 0.180054,0.22583 0.55542,0.22583 0.524903,0 0.662232,-0.39673 0.137329,-0.39978 0.137329,-1.12915 0,-0.71716 -0.140381,-1.1322 -0.137329,-0.41809 -0.65918,-0.41809 -0.537109,0.0153 -0.689697,0.41809 -0.149536,0.39978 -0.149536,1.10779 z" />
    <path
       inkscape:connector-curvature="0"
       id="path16374"
       style="font-style:normal;font-variant:normal;font-weight:normal;font-stretch:normal;font-size:medium;line-height:125%;font-family:LilyUPC;-inkscape-font-specification:'LilyUPC, Normal';text-align:start;letter-spacing:0px;word-spacing:0px;writing-mode:lr-tb;text-anchor:start;fill:#000000;fill-opacity:1;stroke:none;stroke-width:1px;stroke-linecap:butt;stroke-linejoin:miter;stroke-opacity:1"
       d="m 43.611084,759.36218 0,-5.8258 1.150513,0 0,5.8258 -1.150513,0 z" />
    <path
       inkscape:connector-curvature="0"
       id="path16376"
       style="font-style:normal;font-variant:normal;font-weight:normal;font-stretch:normal;font-size:medium;line-height:125%;font-family:LilyUPC;-inkscape-font-specification:'LilyUPC, Normal';text-align:start;letter-spacing:0px;word-spacing:0px;writing-mode:lr-tb;text-anchor:start;fill:#000000;fill-opacity:1;stroke:none;stroke-width:1px;stroke-linecap:butt;stroke-linejoin:miter;stroke-opacity:1"
       d="m 49.046265,753.53638 0,5.8258 -1.16272,0 0,-0.25024 q -0.06409,0.0671 -0.292969,0.1709 -0.228882,0.10376 -0.646972,0.10376 -0.479126,-0.006 -0.863648,-0.1648 -0.38147,-0.16174 -0.634766,-0.64697 -0.250244,-0.48523 -0.250244,-1.40076 0.01526,-1.21765 0.463867,-1.60827 0.451661,-0.39063 1.147461,-0.39063 0.656128,0 1.077271,0.21057 l 0,-1.84936 1.16272,0 z m -1.16272,4.93774 0,-2.5238 q 0,-0.0366 -0.189209,-0.12512 -0.189209,-0.0885 -0.524902,-0.11292 -0.616455,0 -0.827027,0.37537 -0.210571,0.37231 -0.210571,1.07422 0,0.55847 0.09766,0.92163 0.100708,0.3601 0.335694,0.54626 0.234985,0.18311 0.628662,0.18311 0.286865,-0.0275 0.488281,-0.1587 0.201416,-0.13427 0.201416,-0.18005 z" />
    <path
       inkscape:connector-curvature="0"
       id="path16413"
       style="font-style:normal;font-variant:normal;font-weight:normal;font-stretch:normal;font-size:medium;line-height:125%;font-family:LilyUPC;-inkscape-font-specification:'LilyUPC, Normal';text-align:start;letter-spacing:0px;word-spacing:0px;writing-mode:lr-tb;text-anchor:start;fill:#000000;fill-opacity:1;stroke:none;stroke-width:1px;stroke-linecap:butt;stroke-linejoin:miter;stroke-opacity:1"
       d="m 14.38916,817.70154 0,4.66064 -1.05957,0 0,-4.66064 1.05957,0 z" />
    <path
       inkscape:connector-curvature="0"
       id="path16415"
       style="font-style:normal;font-variant:normal;font-weight:normal;font-stretch:normal;font-size:medium;line-height:125%;font-family:LilyUPC;-inkscape-font-specification:'LilyUPC, Normal';text-align:start;letter-spacing:0px;word-spacing:0px;writing-mode:lr-tb;text-anchor:start;fill:#000000;fill-opacity:1;stroke:none;stroke-width:1px;stroke-linecap:butt;stroke-linejoin:miter;stroke-opacity:1"
       d="m 17.760742,819.80115 0,2.56103 -0.700683,0 0,-2.43896 q 0,-0.41992 -0.639649,-0.41992 -0.3125,0.0366 -0.449219,0.19531 -0.134277,0.15625 -0.161132,0.2539 l 0,2.40967 -0.939942,0 0,-3.33008 0.939942,0 0,0.271 q 0.01953,-0.0122 0.131836,-0.0879 0.114746,-0.0757 0.322265,-0.13916 0.209961,-0.0635 0.48584,-0.0635 0.52002,0 0.76416,0.23926 0.246582,0.23682 0.246582,0.54932 z" />
    <path
       inkscape:connector-curvature="0"
       id="path16406"
       style="font-style:normal;font-variant:normal;font-weight:normal;font-stretch:normal;font-size:medium;line-height:125%;font-family:LilyUPC;-inkscape-font-specification:'LilyUPC, Normal';text-align:start;letter-spacing:0px;word-spacing:0px;writing-mode:lr-tb;text-anchor:start;fill:#000000;fill-opacity:1;stroke:none;stroke-width:1px;stroke-linecap:butt;stroke-linejoin:miter;stroke-opacity:1"
       d="m 42.02755,818.96771 q 0.72998,0 1.176758,0.26367 0.446777,0.26123 0.639648,0.77637 0.192871,0.51514 0.192871,1.30127 0,0.80811 -0.212402,1.33789 -0.212403,0.52735 -0.65918,0.78369 -0.444336,0.25635 -1.147461,0.25635 -0.676269,0 -1.11084,-0.25146 -0.43457,-0.25147 -0.64209,-0.77881 -0.207519,-0.52735 -0.207519,-1.34766 0.0073,-1.17187 0.490723,-1.75293 0.485839,-0.58105 1.479492,-0.58838 z m -0.871582,2.34131 q 0.02685,0.81787 0.17334,1.26953 0.146484,0.45166 0.688476,0.45899 0.400391,0 0.595703,-0.2417 0.197754,-0.24414 0.249024,-0.60059 0.05371,-0.35889 0.05371,-0.8667 0,-0.52002 -0.04639,-0.86181 -0.04394,-0.3418 -0.236817,-0.59327 -0.192871,-0.2539 -0.585937,-0.25634 -0.559082,0 -0.725098,0.45654 -0.166015,0.45654 -0.166015,1.23535 z" />
    <path
       inkscape:connector-curvature="0"
       id="path16408"
       style="font-style:normal;font-variant:normal;font-weight:normal;font-stretch:normal;font-size:medium;line-height:125%;font-family:LilyUPC;-inkscape-font-specification:'LilyUPC, Normal';text-align:start;letter-spacing:0px;word-spacing:0px;writing-mode:lr-tb;text-anchor:start;fill:#000000;fill-opacity:1;stroke:none;stroke-width:1px;stroke-linecap:butt;stroke-linejoin:miter;stroke-opacity:1"
       d="m 45.342979,822.70795 q 0,0.20752 0.151368,0.34424 0.153808,0.13671 0.378418,0.13671 0.371093,-0.01 0.529785,-0.17578 0.158691,-0.16601 0.190429,-0.27588 l 0,-2.41943 0.700684,0 0,3.33008 -0.700684,0 0,-0.31006 q -0.09521,0.0806 -0.412597,0.20019 -0.317383,0.11963 -0.876465,0.11963 -0.415039,-0.0146 -0.65918,-0.25146 -0.241699,-0.23682 -0.241699,-0.66895 l 0,-2.41943 0.939941,0 0,2.39014 z" />
    <path
       inkscape:connector-curvature="0"
       id="path16410"
       style="font-style:normal;font-variant:normal;font-weight:normal;font-stretch:normal;font-size:medium;line-height:125%;font-family:LilyUPC;-inkscape-font-specification:'LilyUPC, Normal';text-align:start;letter-spacing:0px;word-spacing:0px;writing-mode:lr-tb;text-anchor:start;fill:#000000;fill-opacity:1;stroke:none;stroke-width:1px;stroke-linecap:butt;stroke-linejoin:miter;stroke-opacity:1"
       d="m 49.141808,820.73773 0,1.93115 q 0,0.28809 0.170898,0.41016 0.12207,0.0977 0.461426,0.0977 l 0,0.47119 q -0.0293,0.002 -0.104981,0.005 -0.07813,0.005 -0.175781,0.005 -0.64209,0 -0.939941,-0.21972 -0.351563,-0.23926 -0.351563,-0.81055 l 0,-1.88965 -0.629883,0 0,-0.41992 0.629883,0 0,-1.33057 0.939942,0 0,1.33057 0.632324,0 0,0.41992 -0.632324,0 z" />
    <path
       inkscape:connector-curvature="0"
       id="path16401"
       style="font-style:normal;font-variant:normal;font-weight:normal;font-stretch:normal;font-size:medium;line-height:125%;font-family:LilyUPC;-inkscape-font-specification:'LilyUPC, Normal';text-align:start;letter-spacing:0px;word-spacing:0px;writing-mode:lr-tb;text-anchor:start;fill:#000000;fill-opacity:1;stroke:none;stroke-width:1px;stroke-linecap:butt;stroke-linejoin:miter;stroke-opacity:1"
       d="m 30.621235,796.46051 q 0,0.0488 -0.361328,0.16846 -0.358887,0.11718 -0.878906,0.12939 -1.210938,0 -1.691895,-0.61279 -0.478516,-0.61524 -0.478516,-1.91651 0.02441,-0.70068 0.214844,-1.17919 0.192871,-0.47852 0.629883,-0.74463 0.437012,-0.26612 1.176758,-0.27588 0.441894,0 0.793457,0.0684 0.354004,0.0659 0.505371,0.1123 l 0.200195,0.78858 q -0.129394,-0.0903 -0.463867,-0.22461 -0.334473,-0.13428 -0.805664,-0.13428 -0.649414,0 -0.871582,0.4541 -0.219727,0.4541 -0.219727,1.13525 0,0.52491 0.05859,0.9253 0.06104,0.40039 0.263672,0.68603 0.205078,0.28565 0.598144,0.31006 0.461426,0 0.769043,-0.0854 0.307618,-0.0879 0.473633,-0.19775 0.151367,-0.0977 0.151367,-0.10742 0,0 -0.0024,0 l -0.06104,0.70068 z" />
    <path
       inkscape:connector-curvature="0"
       id="path16403"
       style="font-style:normal;font-variant:normal;font-weight:normal;font-stretch:normal;font-size:medium;line-height:125%;font-family:LilyUPC;-inkscape-font-specification:'LilyUPC, Normal';text-align:start;letter-spacing:0px;word-spacing:0px;writing-mode:lr-tb;text-anchor:start;fill:#000000;fill-opacity:1;stroke:none;stroke-width:1px;stroke-linecap:butt;stroke-linejoin:miter;stroke-opacity:1"
       d="m 32.99184,796.76813 -2.209472,-4.70948 1.101074,0 1.289062,2.71973 1.030274,-2.71973 0.65918,0 -1.870118,4.70948 z" />
  </g>
</svg>
