<?xml version="1.0" encoding="UTF-8" standalone="no"?>
<!-- Created with Inkscape (http://www.inkscape.org/) -->

<svg
   xmlns:dc="http://purl.org/dc/elements/1.1/"
   xmlns:cc="http://creativecommons.org/ns#"
   xmlns:rdf="http://www.w3.org/1999/02/22-rdf-syntax-ns#"
   xmlns:svg="http://www.w3.org/2000/svg"
   xmlns="http://www.w3.org/2000/svg"
   xmlns:sodipodi="http://sodipodi.sourceforge.net/DTD/sodipodi-0.dtd"
   xmlns:inkscape="http://www.inkscape.org/namespaces/inkscape"
   width="450"
   height="380"
   viewBox="0 0 450.00001 380.00001"
   id="svg12504"
   version="1.1"
   inkscape:version="0.91 r13725"
   sodipodi:docname="Mixer.svg">
  <defs
     id="defs12506" />
  <sodipodi:namedview
     id="base"
     pagecolor="#ffffff"
     bordercolor="#666666"
     borderopacity="1.0"
     inkscape:pageopacity="0.0"
     inkscape:pageshadow="2"
     inkscape:zoom="1.4"
     inkscape:cx="199.92278"
     inkscape:cy="180.12915"
     inkscape:document-units="px"
     inkscape:current-layer="layer1"
     showgrid="true"
     units="px"
     inkscape:window-width="1600"
     inkscape:window-height="853"
     inkscape:window-x="1916"
     inkscape:window-y="-4"
     inkscape:window-maximized="1">
    <inkscape:grid
       type="xygrid"
       id="grid13052"
       spacingx="5.0000001"
       spacingy="5.0000001"
       empspacing="3" />
  </sodipodi:namedview>
  <metadata
     id="metadata12509">
    <rdf:RDF>
      <cc:Work
         rdf:about="">
        <dc:format>image/svg+xml</dc:format>
        <dc:type
           rdf:resource="http://purl.org/dc/dcmitype/StillImage" />
        <dc:title />
      </cc:Work>
    </rdf:RDF>
  </metadata>
  <g
     inkscape:label="Layer 1"
     inkscape:groupmode="layer"
     id="layer1"
     transform="translate(0,-672.36215)">
    <rect
       style="fill:#ffd558;fill-opacity:0.85207099;stroke:none;stroke-width:3.86111379;stroke-linejoin:round;stroke-miterlimit:4;stroke-dasharray:none;stroke-opacity:1"
       id="rect13054"
       width="450"
       height="380"
       x="0"
       y="672.36218" />
    <path
       inkscape:connector-curvature="0"
       id="path10677"
       style="font-style:normal;font-variant:normal;font-weight:normal;font-stretch:normal;font-size:medium;line-height:125%;font-family:LilyUPC;-inkscape-font-specification:LilyUPC;letter-spacing:0px;word-spacing:0px;display:inline;fill:#000000;fill-opacity:1;stroke:none;stroke-width:1px;stroke-linecap:butt;stroke-linejoin:miter;stroke-opacity:1"
       d="m 175.31357,688.04471 -2.94983,7.22351 -3.05969,-7.22351 0,7.02026 -1.6864,0 0,-10.48645 2.6532,0 2.45544,5.49317 2.36206,-5.49317 2.60926,0 0,10.48645 -2.38404,0 0,-7.02026 z" />
    <path
       inkscape:connector-curvature="0"
       id="path10679"
       style="font-style:normal;font-variant:normal;font-weight:normal;font-stretch:normal;font-size:medium;line-height:125%;font-family:LilyUPC;-inkscape-font-specification:LilyUPC;letter-spacing:0px;word-spacing:0px;display:inline;fill:#000000;fill-opacity:1;stroke:none;stroke-width:1px;stroke-linecap:butt;stroke-linejoin:miter;stroke-opacity:1"
       d="m 180.70786,691.69217 q 0.0494,0.59326 0.40649,1.49963 0.35706,0.90638 1.30188,0.95032 1.15357,0 1.80725,-0.29114 0.65369,-0.29663 0.85145,-0.49438 l -0.31862,1.30188 q 0,0.11535 -0.65369,0.30761 -0.65368,0.18677 -1.66442,0.18677 -0.401,0 -0.62622,-0.022 -1.63697,-0.12085 -2.40052,-0.93933 -0.75805,-0.82397 -0.77453,-2.63672 0,-2.07641 0.86242,-3.04321 0.86792,-0.9668 2.53785,-0.98328 2.005,0 2.71911,1.05469 0.60974,0.87341 0.60974,2.36206 0,0.28015 -0.0163,0.47791 -0.0166,0.19225 -0.0276,0.26916 l -4.61426,0 z m 1.53259,-3.21899 q -1.53259,0.0494 -1.53259,2.22473 l 3.26294,0 q 0,-2.22473 -1.73035,-2.22473 z" />
    <path
       inkscape:connector-curvature="0"
       id="path10681"
       style="font-style:normal;font-variant:normal;font-weight:normal;font-stretch:normal;font-size:medium;line-height:125%;font-family:LilyUPC;-inkscape-font-specification:LilyUPC;letter-spacing:0px;word-spacing:0px;display:inline;fill:#000000;fill-opacity:1;stroke:none;stroke-width:1px;stroke-linecap:butt;stroke-linejoin:miter;stroke-opacity:1"
       d="m 192.4852,689.30264 0,5.76233 -1.57654,0 0,-5.48767 q 0,-0.94482 -1.43921,-0.94482 -0.70312,0.0824 -1.01074,0.43945 -0.30214,0.35156 -0.36254,0.57129 l 0,5.42175 -2.11487,0 0,-7.49267 2.11487,0 0,0.60974 q 0.0439,-0.0275 0.29664,-0.19776 0.25817,-0.17028 0.7251,-0.31311 0.47241,-0.14282 1.09314,-0.14282 1.17004,0 1.71936,0.53833 0.55481,0.53283 0.55481,1.23596 z" />
    <path
       inkscape:connector-curvature="0"
       id="path10683"
       style="font-style:normal;font-variant:normal;font-weight:normal;font-stretch:normal;font-size:medium;line-height:125%;font-family:LilyUPC;-inkscape-font-specification:LilyUPC;letter-spacing:0px;word-spacing:0px;display:inline;fill:#000000;fill-opacity:1;stroke:none;stroke-width:1px;stroke-linecap:butt;stroke-linejoin:miter;stroke-opacity:1"
       d="m 196.55564,688.51712 0,4.34509 q 0,0.6482 0.38452,0.92286 0.27464,0.21972 1.03821,0.21972 l 0,1.06018 q -0.0659,0.005 -0.2362,0.011 -0.17578,0.011 -0.39551,0.011 -1.4447,0 -2.11486,-0.49438 -0.79103,-0.53832 -0.79103,-1.82372 l 0,-4.25171 -1.41724,0 0,-0.94482 1.41724,0 0,-2.99378 2.11487,0 0,2.99378 1.42273,0 0,0.94482 -1.42273,0 z" />
    <path
       inkscape:connector-curvature="0"
       id="path10685"
       style="font-style:normal;font-variant:normal;font-weight:normal;font-stretch:normal;font-size:medium;line-height:125%;font-family:LilyUPC;-inkscape-font-specification:LilyUPC;letter-spacing:0px;word-spacing:0px;display:inline;fill:#000000;fill-opacity:1;stroke:none;stroke-width:1px;stroke-linecap:butt;stroke-linejoin:miter;stroke-opacity:1"
       d="m 202.93869,695.06497 0,-0.78552 q -0.0879,0.20325 -0.59326,0.50537 -0.49988,0.30212 -1.70288,0.30212 -1.02722,-0.0385 -1.70837,-0.52734 -0.68116,-0.48889 -0.69764,-1.54358 0,-1.13159 0.8075,-1.69739 0.81299,-0.56579 2.43347,-0.68664 0.74707,-0.0604 1.14808,-0.37903 0.40649,-0.32409 0.40649,-0.7251 0,-0.40649 -0.37354,-0.69763 -0.36804,-0.29114 -0.99975,-0.29114 -1.30188,0 -2.02698,0.4834 -0.71961,0.47791 -0.94483,0.802 l 0.31313,-1.48864 q 0,-0.0385 0.34058,-0.23621 0.34607,-0.19776 0.9613,-0.36804 0.61524,-0.17578 1.46668,-0.18128 1.73584,0 2.51037,0.59326 0.77454,0.58777 0.77454,1.54358 l 0,5.37781 -2.11487,0 z m -1.03271,-1.17004 q 1.03271,-0.28015 1.03271,-0.90088 l 0,-1.70837 q -0.006,0.0165 -0.0769,0.1593 -0.0714,0.13732 -0.3241,0.27466 -0.25268,0.13732 -0.76905,0.19775 -0.8789,0.12085 -1.34033,0.39551 -0.46142,0.26916 -0.46142,0.92834 0.0714,0.76355 1.21948,0.76355 0.34607,0 0.7196,-0.10986 z" />
    <path
       inkscape:connector-curvature="0"
       id="path10687"
       style="font-style:normal;font-variant:normal;font-weight:normal;font-stretch:normal;font-size:medium;line-height:125%;font-family:LilyUPC;-inkscape-font-specification:LilyUPC;letter-spacing:0px;word-spacing:0px;display:inline;fill:#000000;fill-opacity:1;stroke:none;stroke-width:1px;stroke-linecap:butt;stroke-linejoin:miter;stroke-opacity:1"
       d="m 205.97642,695.06497 0,-10.48645 2.07092,0 0,10.48645 -2.07092,0 z" />
    <path
       inkscape:connector-curvature="0"
       id="path10689"
       style="font-style:normal;font-variant:normal;font-weight:normal;font-stretch:normal;font-size:medium;line-height:125%;font-family:LilyUPC;-inkscape-font-specification:LilyUPC;letter-spacing:0px;word-spacing:0px;display:inline;fill:#000000;fill-opacity:1;stroke:none;stroke-width:1px;stroke-linecap:butt;stroke-linejoin:miter;stroke-opacity:1"
       d="m 222.33506,688.04471 -2.94983,7.22351 -3.05969,-7.22351 0,7.02026 -1.6864,0 0,-10.48645 2.65319,0 2.45545,5.49317 2.36206,-5.49317 2.60925,0 0,10.48645 -2.38403,0 0,-7.02026 z" />
    <path
       inkscape:connector-curvature="0"
       id="path10691"
       style="font-style:normal;font-variant:normal;font-weight:normal;font-stretch:normal;font-size:medium;line-height:125%;font-family:LilyUPC;-inkscape-font-specification:LilyUPC;letter-spacing:0px;word-spacing:0px;display:inline;fill:#000000;fill-opacity:1;stroke:none;stroke-width:1px;stroke-linecap:butt;stroke-linejoin:miter;stroke-opacity:1"
       d="m 225.86167,695.06497 0,-7.49267 2.09289,0 0,7.49267 -2.09289,0 z m 1.06018,-10.50842 q 0.5603,0 0.87341,0.35156 0.31861,0.35157 0.31861,0.84046 0,0.49988 -0.3241,0.85693 -0.31862,0.35706 -0.88989,0.35706 -0.54932,0 -0.87342,-0.35706 -0.3241,-0.36255 -0.3241,-0.83496 0,-0.4834 0.3241,-0.84595 0.32411,-0.36804 0.89539,-0.36804 z" />
    <path
       inkscape:connector-curvature="0"
       id="path10693"
       style="font-style:normal;font-variant:normal;font-weight:normal;font-stretch:normal;font-size:medium;line-height:125%;font-family:LilyUPC;-inkscape-font-specification:LilyUPC;letter-spacing:0px;word-spacing:0px;display:inline;fill:#000000;fill-opacity:1;stroke:none;stroke-width:1px;stroke-linecap:butt;stroke-linejoin:miter;stroke-opacity:1"
       d="m 228.80601,687.5723 2.406,0 1.32935,2.11487 1.43921,-2.11487 1.46118,0 -2.20276,3.17505 2.67517,4.31762 -2.42798,0 -1.55456,-2.49939 -1.73035,2.49939 -1.55456,0 2.54333,-3.61999 -2.38403,-3.87268 z" />
    <path
       inkscape:connector-curvature="0"
       id="path10695"
       style="font-style:normal;font-variant:normal;font-weight:normal;font-stretch:normal;font-size:medium;line-height:125%;font-family:LilyUPC;-inkscape-font-specification:LilyUPC;letter-spacing:0px;word-spacing:0px;display:inline;fill:#000000;fill-opacity:1;stroke:none;stroke-width:1px;stroke-linecap:butt;stroke-linejoin:miter;stroke-opacity:1"
       d="m 238.10044,691.69217 q 0.0494,0.59326 0.40649,1.49963 0.35706,0.90638 1.30188,0.95032 1.15357,0 1.80725,-0.29114 0.65369,-0.29663 0.85144,-0.49438 l -0.31861,1.30188 q 0,0.11535 -0.65368,0.30761 -0.65369,0.18677 -1.66443,0.18677 -0.40101,0 -0.62623,-0.022 -1.63696,-0.12085 -2.40051,-0.93933 -0.75805,-0.82397 -0.77453,-2.63672 0,-2.07641 0.86242,-3.04321 0.86792,-0.9668 2.53784,-0.98328 2.00501,0 2.71912,1.05469 0.60974,0.87341 0.60974,2.36206 0,0.28015 -0.0166,0.47791 -0.0166,0.19225 -0.0276,0.26916 l -4.61426,0 z m 1.53259,-3.21899 q -1.53259,0.0494 -1.53259,2.22473 l 3.26294,0 q 0,-2.22473 -1.73035,-2.22473 z" />
    <path
       inkscape:connector-curvature="0"
       id="path10697"
       style="font-style:normal;font-variant:normal;font-weight:normal;font-stretch:normal;font-size:medium;line-height:125%;font-family:LilyUPC;-inkscape-font-specification:LilyUPC;letter-spacing:0px;word-spacing:0px;display:inline;fill:#000000;fill-opacity:1;stroke:none;stroke-width:1px;stroke-linecap:butt;stroke-linejoin:miter;stroke-opacity:1"
       d="m 243.37387,695.06497 0,-7.49267 2.11487,0 0,0.92285 q 0.011,-0.011 0.12636,-0.15381 0.12086,-0.14831 0.35705,-0.30761 0.2362,-0.1593 0.6427,-0.30213 0.43396,-0.18127 1.10413,-0.18127 0.51636,0 0.64819,0.0439 l 0.18128,1.08215 q -0.38452,-0.0934 -0.7196,-0.0934 -0.7306,0 -1.21399,0.27466 -0.54383,0.26916 -0.83497,0.73608 -0.29115,0.46692 -0.29115,0.85694 l 0,4.61425 -2.11487,0 z" />
    <path
       inkscape:connector-curvature="0"
       id="path10509"
       style="font-style:normal;font-variant:normal;font-weight:normal;font-stretch:normal;font-size:medium;line-height:125%;font-family:LilyUPC;-inkscape-font-specification:'LilyUPC, Normal';text-align:start;letter-spacing:0px;word-spacing:0px;writing-mode:lr-tb;text-anchor:start;display:inline;fill:#000000;fill-opacity:1;stroke:none;stroke-width:1px;stroke-linecap:butt;stroke-linejoin:miter;stroke-opacity:1"
       d="m 358.0267,689.68259 -1.63881,4.01306 -1.69983,-4.01306 0,3.90014 -0.93689,0 0,-5.8258 1.47402,0 1.36413,3.05176 1.31223,-3.05176 1.4496,0 0,5.8258 -1.32445,0 0,-3.90014 z" />
    <path
       inkscape:connector-curvature="0"
       id="path10511"
       style="font-style:normal;font-variant:normal;font-weight:normal;font-stretch:normal;font-size:medium;line-height:125%;font-family:LilyUPC;-inkscape-font-specification:'LilyUPC, Normal';text-align:start;letter-spacing:0px;word-spacing:0px;writing-mode:lr-tb;text-anchor:start;display:inline;fill:#000000;fill-opacity:1;stroke:none;stroke-width:1px;stroke-linecap:butt;stroke-linejoin:miter;stroke-opacity:1"
       d="m 362.4609,693.58273 0,-0.4364 q -0.0489,0.11292 -0.32953,0.28076 -0.27779,0.16785 -0.94602,0.16785 -0.57069,-0.0214 -0.94911,-0.29297 -0.37843,-0.2716 -0.38757,-0.85754 0,-0.62866 0.44858,-0.94299 0.45167,-0.31433 1.35195,-0.38147 0.41503,-0.0336 0.63783,-0.21057 0.22571,-0.18006 0.22571,-0.40284 0,-0.22583 -0.20764,-0.38757 -0.20445,-0.16174 -0.55541,-0.16174 -0.72326,0 -1.1261,0.26855 -0.39979,0.2655 -0.52491,0.44556 l 0.17398,-0.82703 q 0,-0.0214 0.18921,-0.13123 0.19241,-0.10986 0.53409,-0.20446 0.34193,-0.0977 0.81481,-0.10071 0.96435,0 1.39465,0.32959 0.4303,0.32654 0.4303,0.85754 l 0,2.98767 -1.17493,0 z m -0.57373,-0.65002 q 0.57373,-0.15564 0.57373,-0.50049 l 0,-0.94909 q -0.003,0.009 -0.0429,0.0885 -0.0397,0.0763 -0.18,0.15259 -0.14032,0.0763 -0.42722,0.10986 -0.4883,0.0671 -0.74463,0.21973 -0.25653,0.14954 -0.25653,0.51574 0.0397,0.4242 0.67748,0.4242 0.1924,0 0.39979,-0.061 z" />
    <path
       inkscape:connector-curvature="0"
       id="path10513"
       style="font-style:normal;font-variant:normal;font-weight:normal;font-stretch:normal;font-size:medium;line-height:125%;font-family:LilyUPC;-inkscape-font-specification:'LilyUPC, Normal';text-align:start;letter-spacing:0px;word-spacing:0px;writing-mode:lr-tb;text-anchor:start;display:inline;fill:#000000;fill-opacity:1;stroke:none;stroke-width:1px;stroke-linecap:butt;stroke-linejoin:miter;stroke-opacity:1"
       d="m 365.16172,690.43332 q 0,0.24109 0.42721,0.36316 0.4303,0.11902 0.88197,0.22583 0.45166,0.10376 0.78126,0.354 0.33272,0.2472 0.34795,0.76905 0,0.76294 -0.41198,1.09558 -0.40893,0.33264 -1.19019,0.39062 -0.0978,0.0122 -0.29906,0.0122 -0.531,0 -0.91552,-0.0824 -0.38452,-0.0855 -0.53408,-0.14038 l -0.16158,-0.72632 q 0.13713,0.0946 0.50354,0.23804 0.3662,0.14343 0.88197,0.14953 0.54928,0 0.74462,-0.16479 0.19843,-0.16785 0.20764,-0.52186 0,-0.40893 -0.27779,-0.54016 -0.27461,-0.13122 -0.89419,-0.25329 -0.61643,-0.12207 -0.93076,-0.35096 -0.31146,-0.22888 -0.31146,-0.80566 0.0457,-1.00403 1.58691,-1.07422 0.0517,0 0.1435,-0.006 0.0914,-0.006 0.13111,-0.006 0.55849,0 0.90028,0.0793 0.34193,0.0793 0.46385,0.13123 l 0.19843,0.67444 q -0.11906,-0.0763 -0.4669,-0.18616 -0.34796,-0.11291 -0.94298,-0.11291 -0.40284,0 -0.62869,0.0946 -0.22571,0.0916 -0.23492,0.39368 z" />
    <path
       inkscape:connector-curvature="0"
       id="path10515"
       style="font-style:normal;font-variant:normal;font-weight:normal;font-stretch:normal;font-size:medium;line-height:125%;font-family:LilyUPC;-inkscape-font-specification:'LilyUPC, Normal';text-align:start;letter-spacing:0px;word-spacing:0px;writing-mode:lr-tb;text-anchor:start;display:inline;fill:#000000;fill-opacity:1;stroke:none;stroke-width:1px;stroke-linecap:butt;stroke-linejoin:miter;stroke-opacity:1"
       d="m 369.75458,689.94504 0,2.41394 q 0,0.36011 0.21367,0.5127 0.15271,0.12207 0.57678,0.12207 l 0,0.58899 q -0.0365,0.003 -0.13111,0.006 -0.0978,0.006 -0.21968,0.006 -0.80263,0 -1.17493,-0.27466 -0.43947,-0.29908 -0.43947,-1.01319 l 0,-2.36206 -0.78736,0 0,-0.5249 0.78736,0 0,-1.66321 1.17492,0 0,1.66321 0.79041,0 0,0.5249 -0.79041,0 z" />
    <path
       inkscape:connector-curvature="0"
       id="path10517"
       style="font-style:normal;font-variant:normal;font-weight:normal;font-stretch:normal;font-size:medium;line-height:125%;font-family:LilyUPC;-inkscape-font-specification:'LilyUPC, Normal';text-align:start;letter-spacing:0px;word-spacing:0px;writing-mode:lr-tb;text-anchor:start;display:inline;fill:#000000;fill-opacity:1;stroke:none;stroke-width:1px;stroke-linecap:butt;stroke-linejoin:miter;stroke-opacity:1"
       d="m 371.86335,691.70896 q 0.0283,0.32959 0.22571,0.83313 0.19842,0.50354 0.72326,0.52795 0.64087,0 1.00403,-0.16174 0.36315,-0.1648 0.47303,-0.27466 l -0.17717,0.72327 q 0,0.0641 -0.36315,0.17089 -0.36315,0.10376 -0.9247,0.10376 -0.22287,0 -0.34795,-0.0122 -0.90942,-0.0671 -1.33363,-0.52185 -0.42112,-0.45777 -0.4303,-1.46485 0,-1.15356 0.47913,-1.69067 0.48217,-0.53711 1.40992,-0.54627 1.1139,0 1.51061,0.58594 0.33874,0.48523 0.33874,1.31226 0,0.15564 -0.0106,0.2655 -0.0106,0.10681 -0.0142,0.14954 l -2.56347,0 z m 0.85145,-1.78833 q -0.85145,0.0275 -0.85145,1.23596 l 1.81275,0 q 0,-1.23596 -0.9613,-1.23596 z" />
    <path
       inkscape:connector-curvature="0"
       id="path10519"
       style="font-style:normal;font-variant:normal;font-weight:normal;font-stretch:normal;font-size:medium;line-height:125%;font-family:LilyUPC;-inkscape-font-specification:'LilyUPC, Normal';text-align:start;letter-spacing:0px;word-spacing:0px;writing-mode:lr-tb;text-anchor:start;display:inline;fill:#000000;fill-opacity:1;stroke:none;stroke-width:1px;stroke-linecap:butt;stroke-linejoin:miter;stroke-opacity:1"
       d="m 374.79306,693.58273 0,-4.16259 1.17493,0 0,0.51269 q 0.007,-0.006 0.0702,-0.0854 0.067,-0.0824 0.19842,-0.17089 0.1311,-0.0885 0.35706,-0.16785 0.24094,-0.10071 0.61338,-0.10071 0.28701,0 0.36011,0.0244 l 0.10063,0.6012 q -0.21366,-0.0519 -0.39979,-0.0519 -0.40589,0 -0.67444,0.15259 -0.30224,0.14954 -0.46389,0.40893 -0.16157,0.2594 -0.16157,0.47608 l 0,2.56347 -1.17493,0 z" />
    <path
       inkscape:connector-curvature="0"
       id="path10492"
       style="font-style:normal;font-variant:normal;font-weight:normal;font-stretch:normal;font-size:medium;line-height:125%;font-family:LilyUPC;-inkscape-font-specification:'LilyUPC, Normal';text-align:start;letter-spacing:0px;word-spacing:0px;writing-mode:lr-tb;text-anchor:start;display:inline;fill:#000000;fill-opacity:1;stroke:none;stroke-width:1px;stroke-linecap:butt;stroke-linejoin:miter;stroke-opacity:1"
       d="m 404.43261,690.16429 -1.63882,4.01307 -1.69983,-4.01307 0,3.90015 -0.93689,0 0,-5.8258 1.47402,0 1.36414,3.05175 1.31223,-3.05175 1.4496,0 0,5.8258 -1.32445,0 0,-3.90015 z" />
    <path
       inkscape:connector-curvature="0"
       id="path10494"
       style="font-style:normal;font-variant:normal;font-weight:normal;font-stretch:normal;font-size:medium;line-height:125%;font-family:LilyUPC;-inkscape-font-specification:'LilyUPC, Normal';text-align:start;letter-spacing:0px;word-spacing:0px;writing-mode:lr-tb;text-anchor:start;display:inline;fill:#000000;fill-opacity:1;stroke:none;stroke-width:1px;stroke-linecap:butt;stroke-linejoin:miter;stroke-opacity:1"
       d="m 408.86681,694.06444 0,-0.4364 q -0.0489,0.11291 -0.32953,0.28076 -0.2778,0.16785 -0.94606,0.16785 -0.57065,-0.0214 -0.94908,-0.29297 -0.37842,-0.27161 -0.38757,-0.85754 0,-0.62867 0.44859,-0.943 0.45166,-0.31433 1.35194,-0.38147 0.41503,-0.0335 0.6378,-0.21057 0.22571,-0.18005 0.22571,-0.40283 0,-0.22583 -0.20764,-0.38757 -0.20445,-0.16175 -0.55541,-0.16175 -0.72326,0 -1.1261,0.26855 -0.39979,0.26551 -0.52491,0.44556 l 0.17398,-0.82702 q 0,-0.0214 0.18921,-0.13123 0.1924,-0.10986 0.53409,-0.20447 0.34192,-0.0977 0.81481,-0.10071 0.96435,0 1.39465,0.3296 0.4303,0.32653 0.4303,0.85754 l 0,2.98767 -1.17493,0 z m -0.57374,-0.65002 q 0.57374,-0.15564 0.57374,-0.50049 l 0,-0.9491 q -0.003,0.009 -0.0429,0.0885 -0.0397,0.0763 -0.18,0.15259 -0.14032,0.0763 -0.42722,0.10987 -0.4883,0.0671 -0.74466,0.21972 -0.25618,0.14954 -0.25618,0.51575 0.0397,0.42419 0.67748,0.42419 0.1924,0 0.39979,-0.061 z" />
    <path
       inkscape:connector-curvature="0"
       id="path10496"
       style="font-style:normal;font-variant:normal;font-weight:normal;font-stretch:normal;font-size:medium;line-height:125%;font-family:LilyUPC;-inkscape-font-specification:'LilyUPC, Normal';text-align:start;letter-spacing:0px;word-spacing:0px;writing-mode:lr-tb;text-anchor:start;display:inline;fill:#000000;fill-opacity:1;stroke:none;stroke-width:1px;stroke-linecap:butt;stroke-linejoin:miter;stroke-opacity:1"
       d="m 410.54222,694.06444 0,-4.1626 1.1627,0 0,4.1626 -1.1627,0 z m 0.58897,-5.83801 q 0.3111,0 0.48522,0.19531 0.17717,0.19531 0.17717,0.46692 0,0.27771 -0.18,0.47608 -0.17681,0.19836 -0.49437,0.19836 -0.30507,0 -0.48525,-0.19836 -0.18,-0.20142 -0.18,-0.46387 0,-0.26856 0.18,-0.46997 0.18,-0.20447 0.49744,-0.20447 z" />
    <path
       inkscape:connector-curvature="0"
       id="path10498"
       style="font-style:normal;font-variant:normal;font-weight:normal;font-stretch:normal;font-size:medium;line-height:125%;font-family:LilyUPC;-inkscape-font-specification:'LilyUPC, Normal';text-align:start;letter-spacing:0px;word-spacing:0px;writing-mode:lr-tb;text-anchor:start;display:inline;fill:#000000;fill-opacity:1;stroke:none;stroke-width:1px;stroke-linecap:butt;stroke-linejoin:miter;stroke-opacity:1"
       d="m 415.82784,690.86315 0,3.20129 -0.87583,0 0,-3.04871 q 0,-0.5249 -0.79958,-0.5249 -0.39062,0.0458 -0.56151,0.24414 -0.16795,0.19532 -0.20126,0.31739 l 0,3.01208 -1.17493,0 0,-4.16259 1.17493,0 0,0.33874 q 0.0248,-0.0153 0.16476,-0.10986 0.14351,-0.0946 0.40284,-0.17396 0.26256,-0.0793 0.60732,-0.0793 0.65002,0 0.95517,0.29907 0.30827,0.29602 0.30827,0.68665 z" />
    <path
       inkscape:connector-curvature="0"
       id="path10500"
       style="font-style:normal;font-variant:normal;font-weight:normal;font-stretch:normal;font-size:medium;line-height:125%;font-family:LilyUPC;-inkscape-font-specification:'LilyUPC, Normal';text-align:start;letter-spacing:0px;word-spacing:0px;writing-mode:lr-tb;text-anchor:start;display:inline;fill:#000000;fill-opacity:1;stroke:none;stroke-width:1px;stroke-linecap:butt;stroke-linejoin:miter;stroke-opacity:1"
       d="m 421.7452,688.21422 q 0.91247,0 1.47097,0.32959 0.55846,0.32654 0.79955,0.97046 0.24094,0.64392 0.24094,1.62659 0,1.01013 -0.26539,1.67236 -0.2654,0.65918 -0.82396,0.97962 -0.55542,0.32043 -1.43433,0.32043 -0.84533,0 -1.38855,-0.31433 -0.54323,-0.31433 -0.80263,-0.97351 -0.25937,-0.65918 -0.25937,-1.68457 0.0106,-1.46484 0.61338,-2.19116 0.60728,-0.72632 1.84936,-0.73548 z m -1.08946,2.92664 q 0.0319,1.02234 0.2165,1.58691 0.18319,0.56458 0.86059,0.57373 0.5005,0 0.74463,-0.30212 0.24732,-0.30518 0.31146,-0.75073 0.067,-0.44861 0.067,-1.08338 0,-0.65002 -0.0581,-1.07727 -0.0549,-0.42725 -0.29587,-0.74158 -0.24094,-0.31738 -0.73244,-0.32043 -0.69884,0 -0.90634,0.57068 -0.20764,0.57068 -0.20764,1.54419 z" />
    <path
       inkscape:connector-curvature="0"
       id="path10502"
       style="font-style:normal;font-variant:normal;font-weight:normal;font-stretch:normal;font-size:medium;line-height:125%;font-family:LilyUPC;-inkscape-font-specification:'LilyUPC, Normal';text-align:start;letter-spacing:0px;word-spacing:0px;writing-mode:lr-tb;text-anchor:start;display:inline;fill:#000000;fill-opacity:1;stroke:none;stroke-width:1px;stroke-linecap:butt;stroke-linejoin:miter;stroke-opacity:1"
       d="m 425.88949,692.88951 q 0,0.2594 0.18921,0.4303 0.1924,0.1709 0.47303,0.1709 0.46386,-0.0122 0.66225,-0.21973 0.19842,-0.20752 0.23811,-0.34485 l 0,-3.02429 0.87583,0 0,4.1626 -0.87583,0 0,-0.38757 q -0.11906,0.1007 -0.51577,0.25024 -0.39671,0.14954 -1.09559,0.14954 -0.51877,-0.0183 -0.82396,-0.31433 -0.30224,-0.29603 -0.30224,-0.83619 l 0,-3.02429 1.17492,0 0,2.98767 z" />
    <path
       inkscape:connector-curvature="0"
       id="path10504"
       style="font-style:normal;font-variant:normal;font-weight:normal;font-stretch:normal;font-size:medium;line-height:125%;font-family:LilyUPC;-inkscape-font-specification:'LilyUPC, Normal';text-align:start;letter-spacing:0px;word-spacing:0px;writing-mode:lr-tb;text-anchor:start;display:inline;fill:#000000;fill-opacity:1;stroke:none;stroke-width:1px;stroke-linecap:butt;stroke-linejoin:miter;stroke-opacity:1"
       d="m 430.63805,690.42675 0,2.41394 q 0,0.3601 0.21366,0.51269 0.15272,0.12207 0.57678,0.12207 l 0,0.58899 q -0.0365,0.003 -0.1311,0.006 -0.0978,0.006 -0.21969,0.006 -0.80263,0 -1.17492,-0.27466 -0.43944,-0.29907 -0.43944,-1.01318 l 0,-2.36206 -0.78736,0 0,-0.5249 0.78736,0 0,-1.66321 1.17492,0 0,1.66321 0.79041,0 0,0.5249 -0.79041,0 z" />
    <path
       inkscape:connector-curvature="0"
       id="path10506"
       style="font-style:normal;font-variant:normal;font-weight:normal;font-stretch:normal;font-size:medium;line-height:125%;font-family:LilyUPC;-inkscape-font-specification:'LilyUPC, Normal';text-align:start;letter-spacing:0px;word-spacing:0px;writing-mode:lr-tb;text-anchor:start;display:inline;fill:#000000;fill-opacity:1;stroke:none;stroke-width:1px;stroke-linecap:butt;stroke-linejoin:miter;stroke-opacity:1"
       d="m 432.73459,690.91503 q 0,0.24109 0.42725,0.36316 0.4303,0.11902 0.88196,0.22583 0.45167,0.10375 0.78123,0.354 0.33272,0.24719 0.34796,0.76904 0,0.76294 -0.41198,1.09558 -0.40894,0.33265 -1.1902,0.39063 -0.0978,0.0122 -0.29906,0.0122 -0.53103,0 -0.91555,-0.0824 -0.38452,-0.0854 -0.53405,-0.14039 l -0.16157,-0.72631 q 0.13748,0.0946 0.50354,0.23803 0.36623,0.14344 0.88196,0.14954 0.54932,0 0.74463,-0.16479 0.19842,-0.16785 0.20763,-0.52186 0,-0.40893 -0.27779,-0.54016 -0.27461,-0.13122 -0.89415,-0.25329 -0.61647,-0.12207 -0.9308,-0.35096 -0.31145,-0.22888 -0.31145,-0.80566 0.0457,-1.00403 1.5869,-1.07422 0.0521,0 0.14351,-0.006 0.0914,-0.006 0.1311,-0.006 0.55846,0 0.90025,0.0793 0.34193,0.0793 0.46389,0.13123 l 0.19842,0.67443 q -0.11905,-0.0763 -0.4669,-0.18616 -0.34795,-0.11291 -0.94302,-0.11291 -0.40283,0 -0.62865,0.0946 -0.22571,0.0916 -0.23492,0.39368 z" />
    <path
       inkscape:connector-curvature="0"
       id="path10637"
       style="font-style:normal;font-variant:normal;font-weight:normal;font-stretch:normal;font-size:medium;line-height:125%;font-family:LilyUPC;-inkscape-font-specification:'LilyUPC, Normal';text-align:start;letter-spacing:0px;word-spacing:0px;writing-mode:lr-tb;text-anchor:start;display:inline;fill:#000000;fill-opacity:1;stroke:none;stroke-width:1px;stroke-linecap:butt;stroke-linejoin:miter;stroke-opacity:1"
       d="m 354.94718,821.12829 -0.47608,1.38855 -0.91247,0 2.01416,-5.82581 1.4862,0 2.0508,5.82581 -1.32449,0 -0.51268,-1.38855 -2.32544,0 z m 2.05076,-0.84839 -0.88806,-2.48719 -0.85142,2.48719 1.73948,0 z" />
    <path
       inkscape:connector-curvature="0"
       id="path10639"
       style="font-style:normal;font-variant:normal;font-weight:normal;font-stretch:normal;font-size:medium;line-height:125%;font-family:LilyUPC;-inkscape-font-specification:'LilyUPC, Normal';text-align:start;letter-spacing:0px;word-spacing:0px;writing-mode:lr-tb;text-anchor:start;display:inline;fill:#000000;fill-opacity:1;stroke:none;stroke-width:1px;stroke-linecap:butt;stroke-linejoin:miter;stroke-opacity:1"
       d="m 360.48916,821.34191 q 0,0.2594 0.18921,0.4303 0.19241,0.17089 0.47304,0.17089 0.46385,-0.0121 0.6622,-0.21972 0.19843,-0.20753 0.23811,-0.34483 l 0,-3.02429 0.87587,0 0,4.16259 -0.87587,0 0,-0.38757 q -0.11905,0.1007 -0.51572,0.25023 -0.39675,0.14953 -1.09559,0.14953 -0.51881,-0.0184 -0.82396,-0.31433 -0.30225,-0.29601 -0.30225,-0.83618 l 0,-3.02429 1.17493,0 0,2.98767 z" />
    <path
       inkscape:connector-curvature="0"
       id="path10641"
       style="font-style:normal;font-variant:normal;font-weight:normal;font-stretch:normal;font-size:medium;line-height:125%;font-family:LilyUPC;-inkscape-font-specification:'LilyUPC, Normal';text-align:start;letter-spacing:0px;word-spacing:0px;writing-mode:lr-tb;text-anchor:start;display:inline;fill:#000000;fill-opacity:1;stroke:none;stroke-width:1px;stroke-linecap:butt;stroke-linejoin:miter;stroke-opacity:1"
       d="m 363.45243,818.35424 1.33668,0 0.73849,1.17492 0.79959,-1.17492 0.81177,0 -1.22376,1.76391 1.48621,2.39869 -1.3489,0 -0.86365,-1.38855 -0.9613,1.38855 -0.86364,0 1.41296,-2.01111 -1.32445,-2.15149 z" />
    <path
       inkscape:connector-curvature="0"
       id="path10643"
       style="font-style:normal;font-variant:normal;font-weight:normal;font-stretch:normal;font-size:medium;line-height:125%;font-family:LilyUPC;-inkscape-font-specification:'LilyUPC, Normal';text-align:start;letter-spacing:0px;word-spacing:0px;writing-mode:lr-tb;text-anchor:start;display:inline;fill:#000000;fill-opacity:1;stroke:none;stroke-width:1px;stroke-linecap:butt;stroke-linejoin:miter;stroke-opacity:1"
       d="m 375.29629,821.74169 0,0.77515 -4.62646,0 0,-0.73853 q 0,-0.12511 0.15271,-0.4303 0.15555,-0.30823 0.55542,-0.72632 0.40283,-0.41809 1.10473,-0.84228 0.65916,-0.39062 0.96434,-0.6073 0.30827,-0.21972 0.44557,-0.4364 0.14032,-0.21972 0.14032,-0.5188 -0.0248,-0.82092 -1.1261,-0.83618 -0.87282,0 -1.42519,0.37841 -0.55236,0.37842 -0.74767,0.63172 l 0,-1.06201 q 0,-0.0184 0.13429,-0.12816 0.13748,-0.11293 0.39065,-0.24109 0.25335,-0.13121 0.66221,-0.2289 0.40893,-0.0977 0.96133,-0.1007 0.82701,0 1.37938,0.21363 0.55541,0.21362 0.83009,0.62256 0.27779,0.40893 0.27779,0.97656 -0.0365,0.29906 -0.14952,0.52795 -0.10985,0.22582 -0.41503,0.48829 -0.30225,0.26245 -0.84841,0.55847 -1.37023,0.74768 -1.86155,1.5747 l -0.0886,0.14953 3.28978,0 z" />
    <path
       inkscape:connector-curvature="0"
       id="path10645"
       style="font-style:normal;font-variant:normal;font-weight:normal;font-stretch:normal;font-size:medium;line-height:125%;font-family:LilyUPC;-inkscape-font-specification:'LilyUPC, Normal';text-align:start;letter-spacing:0px;word-spacing:0px;writing-mode:lr-tb;text-anchor:start;display:inline;fill:#000000;fill-opacity:1;stroke:none;stroke-width:1px;stroke-linecap:butt;stroke-linejoin:miter;stroke-opacity:1"
       d="m 380.2798,818.1162 q 0,0.33265 0.54932,0.50354 0.55237,0.16785 1.11087,0.31128 0.5615,0.14343 0.97961,0.49744 0.41808,0.35096 0.43335,1.07727 0,0.72022 -0.24095,1.15967 -0.24094,0.43945 -0.67751,0.64392 -0.43335,0.2014 -1.05591,0.24413 -0.14952,0.0121 -0.42417,0.0121 -0.45471,0 -0.86059,-0.0671 -0.40284,-0.0671 -0.66529,-0.14648 -0.26256,-0.0824 -0.26256,-0.0977 l -0.22571,-0.88806 q 0.003,0 0.27177,0.11597 0.26858,0.11597 0.64392,0.21363 0.37839,0.0976 0.83619,0.10988 0.73849,0 0.99181,-0.23804 0.25653,-0.24109 0.25653,-0.72632 0,-0.57678 -0.34476,-0.75684 -0.34477,-0.18312 -1.12305,-0.34788 -0.77514,-0.16785 -1.16575,-0.48218 -0.39065,-0.31737 -0.39065,-1.11389 0.0177,-0.50659 0.28382,-0.83618 0.26539,-0.3296 0.6958,-0.48828 0.43334,-0.16175 0.97047,-0.18617 0.89416,0 1.40074,0.10375 0.50659,0.1007 0.67444,0.1709 l 0.23811,0.93689 q 0,0 -0.24414,-0.10988 -0.24413,-0.10988 -0.6256,-0.19835 -0.38148,-0.0916 -0.90638,-0.0916 -0.50964,0 -0.79955,0.12206 -0.28984,0.12207 -0.3235,0.55237 z" />
    <path
       inkscape:connector-curvature="0"
       id="path10647"
       style="font-style:normal;font-variant:normal;font-weight:normal;font-stretch:normal;font-size:medium;line-height:125%;font-family:LilyUPC;-inkscape-font-specification:'LilyUPC, Normal';text-align:start;letter-spacing:0px;word-spacing:0px;writing-mode:lr-tb;text-anchor:start;display:inline;fill:#000000;fill-opacity:1;stroke:none;stroke-width:1px;stroke-linecap:butt;stroke-linejoin:miter;stroke-opacity:1"
       d="m 384.85134,820.64306 q 0.0283,0.32959 0.22571,0.83313 0.19843,0.50354 0.72326,0.52795 0.64088,0 1.00403,-0.16175 0.36316,-0.1648 0.473,-0.27468 l -0.17717,0.72327 q 0,0.0641 -0.36315,0.17089 -0.36315,0.10375 -0.9247,0.10375 -0.22287,0 -0.34795,-0.0121 -0.90942,-0.0671 -1.33363,-0.52185 -0.42116,-0.45777 -0.4303,-1.46485 0,-1.15356 0.47913,-1.69067 0.48217,-0.53711 1.40991,-0.54627 1.11388,0 1.51062,0.58594 0.33874,0.48523 0.33874,1.31226 0,0.15566 -0.0106,0.2655 -0.0106,0.10679 -0.0142,0.14953 l -2.56347,0 z m 0.85146,-1.78833 q -0.85146,0.0276 -0.85146,1.23596 l 1.81276,0 q 0,-1.23596 -0.9613,-1.23596 z" />
    <path
       inkscape:connector-curvature="0"
       id="path10649"
       style="font-style:normal;font-variant:normal;font-weight:normal;font-stretch:normal;font-size:medium;line-height:125%;font-family:LilyUPC;-inkscape-font-specification:'LilyUPC, Normal';text-align:start;letter-spacing:0px;word-spacing:0px;writing-mode:lr-tb;text-anchor:start;display:inline;fill:#000000;fill-opacity:1;stroke:none;stroke-width:1px;stroke-linecap:butt;stroke-linejoin:miter;stroke-opacity:1"
       d="m 391.39431,819.31554 0,3.2013 -0.87584,0 0,-3.04871 q 0,-0.5249 -0.79958,-0.5249 -0.39061,0.0458 -0.56151,0.24413 -0.16795,0.19531 -0.20126,0.31738 l 0,3.01208 -1.17492,0 0,-4.1626 1.17492,0 0,0.33874 q 0.0248,-0.0152 0.16477,-0.10987 0.1435,-0.0946 0.40283,-0.17394 0.26256,-0.0793 0.60733,-0.0793 0.65002,0 0.9552,0.29909 0.30827,0.296 0.30827,0.68664 z" />
    <path
       inkscape:connector-curvature="0"
       id="path10651"
       style="font-style:normal;font-variant:normal;font-weight:normal;font-stretch:normal;font-size:medium;line-height:125%;font-family:LilyUPC;-inkscape-font-specification:'LilyUPC, Normal';text-align:start;letter-spacing:0px;word-spacing:0px;writing-mode:lr-tb;text-anchor:start;display:inline;fill:#000000;fill-opacity:1;stroke:none;stroke-width:1px;stroke-linecap:butt;stroke-linejoin:miter;stroke-opacity:1"
       d="m 395.6332,816.69103 0,5.82581 -1.1627,0 0,-0.25023 q -0.0641,0.0672 -0.29303,0.17089 -0.2289,0.10375 -0.64698,0.10375 -0.47912,-0.006 -0.86368,-0.1648 -0.38143,-0.16175 -0.63474,-0.64697 -0.25016,-0.48523 -0.25016,-1.40076 0.0142,-1.21765 0.46385,-1.60827 0.45167,-0.39063 1.14747,-0.39063 0.65611,0 1.07727,0.21058 l 0,-1.84937 1.1627,0 z m -1.1627,4.93774 0,-2.5238 q 0,-0.0366 -0.18921,-0.12511 -0.18922,-0.0885 -0.52491,-0.11293 -0.61646,0 -0.82704,0.37536 -0.21047,0.37232 -0.21047,1.07422 0,0.55848 0.0978,0.92164 0.10063,0.3601 0.33555,0.54626 0.23492,0.18312 0.62865,0.18312 0.28701,-0.0276 0.48827,-0.15871 0.20126,-0.13429 0.20126,-0.18007 z" />
    <path
       inkscape:connector-curvature="0"
       id="path10620"
       style="font-style:normal;font-variant:normal;font-weight:normal;font-stretch:normal;font-size:medium;line-height:125%;font-family:LilyUPC;-inkscape-font-specification:'LilyUPC, Normal';text-align:start;letter-spacing:0px;word-spacing:0px;writing-mode:lr-tb;text-anchor:start;display:inline;fill:#000000;fill-opacity:1;stroke:none;stroke-width:1px;stroke-linecap:butt;stroke-linejoin:miter;stroke-opacity:1"
       d="m 354.59356,762.5874 -0.47608,1.38855 -0.91247,0 2.01416,-5.8258 1.4862,0 2.0508,5.8258 -1.32449,0 -0.51268,-1.38855 -2.32544,0 z m 2.05076,-0.84839 -0.88806,-2.48718 -0.85142,2.48718 1.73948,0 z" />
    <path
       inkscape:connector-curvature="0"
       id="path10622"
       style="font-style:normal;font-variant:normal;font-weight:normal;font-stretch:normal;font-size:medium;line-height:125%;font-family:LilyUPC;-inkscape-font-specification:'LilyUPC, Normal';text-align:start;letter-spacing:0px;word-spacing:0px;writing-mode:lr-tb;text-anchor:start;display:inline;fill:#000000;fill-opacity:1;stroke:none;stroke-width:1px;stroke-linecap:butt;stroke-linejoin:miter;stroke-opacity:1"
       d="m 360.13554,762.80102 q 0,0.25941 0.18921,0.4303 0.1924,0.1709 0.47303,0.1709 0.46386,-0.0121 0.66221,-0.21972 0.19843,-0.20754 0.23811,-0.34484 l 0,-3.02429 0.87587,0 0,4.1626 -0.87587,0 0,-0.38758 q -0.11905,0.1007 -0.51573,0.25023 -0.39674,0.14953 -1.09559,0.14953 -0.51881,-0.0184 -0.82396,-0.31433 -0.30224,-0.29601 -0.30224,-0.83618 l 0,-3.02429 1.17492,0 0,2.98767 z" />
    <path
       inkscape:connector-curvature="0"
       id="path10624"
       style="font-style:normal;font-variant:normal;font-weight:normal;font-stretch:normal;font-size:medium;line-height:125%;font-family:LilyUPC;-inkscape-font-specification:'LilyUPC, Normal';text-align:start;letter-spacing:0px;word-spacing:0px;writing-mode:lr-tb;text-anchor:start;display:inline;fill:#000000;fill-opacity:1;stroke:none;stroke-width:1px;stroke-linecap:butt;stroke-linejoin:miter;stroke-opacity:1"
       d="m 363.09881,759.81335 1.33667,0 0.7385,1.17493 0.79958,-1.17493 0.81177,0 -1.22375,1.76392 1.48621,2.39868 -1.3489,0 -0.86365,-1.38855 -0.9613,1.38855 -0.86364,0 1.41296,-2.01111 -1.32445,-2.15149 z" />
    <path
       inkscape:connector-curvature="0"
       id="path10626"
       style="font-style:normal;font-variant:normal;font-weight:normal;font-stretch:normal;font-size:medium;line-height:125%;font-family:LilyUPC;-inkscape-font-specification:'LilyUPC, Normal';text-align:start;letter-spacing:0px;word-spacing:0px;writing-mode:lr-tb;text-anchor:start;display:inline;fill:#000000;fill-opacity:1;stroke:none;stroke-width:1px;stroke-linecap:butt;stroke-linejoin:miter;stroke-opacity:1"
       d="m 370.89298,758.71472 2.54824,-0.62561 0,5.88684 -1.28785,0 0,-4.776 -1.26039,0.27464 0,-0.75989 z" />
    <path
       inkscape:connector-curvature="0"
       id="path10628"
       style="font-style:normal;font-variant:normal;font-weight:normal;font-stretch:normal;font-size:medium;line-height:125%;font-family:LilyUPC;-inkscape-font-specification:'LilyUPC, Normal';text-align:start;letter-spacing:0px;word-spacing:0px;writing-mode:lr-tb;text-anchor:start;display:inline;fill:#000000;fill-opacity:1;stroke:none;stroke-width:1px;stroke-linecap:butt;stroke-linejoin:miter;stroke-opacity:1"
       d="m 379.92618,759.57532 q 0,0.33264 0.54932,0.50354 0.55237,0.16784 1.11086,0.31128 0.56151,0.14343 0.97962,0.49743 0.41808,0.35097 0.43335,1.07727 0,0.72022 -0.24095,1.15967 -0.24094,0.43945 -0.67751,0.64392 -0.43335,0.2014 -1.05591,0.24414 -0.14953,0.012 -0.4242,0.012 -0.45468,0 -0.86057,-0.0671 -0.40283,-0.0671 -0.66529,-0.14648 -0.26256,-0.0824 -0.26256,-0.0977 l -0.2257,-0.88806 q 0.003,0 0.27177,0.11598 0.26858,0.11597 0.64392,0.21362 0.37839,0.0977 0.83619,0.10988 0.73849,0 0.9918,-0.23804 0.25654,-0.24109 0.25654,-0.72632 0,-0.57678 -0.34476,-0.75684 -0.34477,-0.18311 -1.12306,-0.34791 -0.77513,-0.16785 -1.16574,-0.48218 -0.39065,-0.31737 -0.39065,-1.11389 0.0177,-0.5066 0.28382,-0.83618 0.26539,-0.3296 0.6958,-0.48828 0.43334,-0.16176 0.97047,-0.18617 0.89415,0 1.40074,0.10375 0.50659,0.1007 0.67443,0.17089 l 0.23811,0.93689 q 0,0 -0.24413,-0.10988 -0.24413,-0.10988 -0.62561,-0.19835 -0.38147,-0.0916 -0.90637,-0.0916 -0.50964,0 -0.79955,0.12207 -0.28984,0.12206 -0.3235,0.55237 z" />
    <path
       inkscape:connector-curvature="0"
       id="path10630"
       style="font-style:normal;font-variant:normal;font-weight:normal;font-stretch:normal;font-size:medium;line-height:125%;font-family:LilyUPC;-inkscape-font-specification:'LilyUPC, Normal';text-align:start;letter-spacing:0px;word-spacing:0px;writing-mode:lr-tb;text-anchor:start;display:inline;fill:#000000;fill-opacity:1;stroke:none;stroke-width:1px;stroke-linecap:butt;stroke-linejoin:miter;stroke-opacity:1"
       d="m 384.49772,762.10217 q 0.0284,0.3296 0.22571,0.83313 0.19842,0.50354 0.72326,0.52796 0.64088,0 1.00403,-0.16175 0.36315,-0.1648 0.473,-0.27465 l -0.17717,0.72327 q 0,0.0641 -0.36315,0.17089 -0.36316,0.10375 -0.9247,0.10375 -0.22287,0 -0.34795,-0.0121 -0.90943,-0.0671 -1.33363,-0.52185 -0.42116,-0.45776 -0.4303,-1.46484 0,-1.15356 0.47913,-1.69067 0.48217,-0.53711 1.40991,-0.54627 1.11388,0 1.51062,0.58594 0.33874,0.48523 0.33874,1.31225 0,0.15566 -0.0106,0.2655 -0.0106,0.10684 -0.0142,0.14953 l -2.56348,0 z m 0.85146,-1.78833 q -0.85146,0.0276 -0.85146,1.23596 l 1.81276,0 q 0,-1.23596 -0.9613,-1.23596 z" />
    <path
       inkscape:connector-curvature="0"
       id="path10632"
       style="font-style:normal;font-variant:normal;font-weight:normal;font-stretch:normal;font-size:medium;line-height:125%;font-family:LilyUPC;-inkscape-font-specification:'LilyUPC, Normal';text-align:start;letter-spacing:0px;word-spacing:0px;writing-mode:lr-tb;text-anchor:start;display:inline;fill:#000000;fill-opacity:1;stroke:none;stroke-width:1px;stroke-linecap:butt;stroke-linejoin:miter;stroke-opacity:1"
       d="m 391.04068,760.77466 0,3.20129 -0.87583,0 0,-3.0487 q 0,-0.52491 -0.79958,-0.52491 -0.39062,0.0458 -0.56151,0.24414 -0.16795,0.1953 -0.20126,0.31737 l 0,3.01209 -1.17493,0 0,-4.1626 1.17493,0 0,0.33874 q 0.0248,-0.0152 0.16476,-0.10988 0.14351,-0.0946 0.40284,-0.17394 0.26256,-0.0793 0.60732,-0.0793 0.65002,0 0.95521,0.29909 0.30827,0.296 0.30827,0.68664 z" />
    <path
       inkscape:connector-curvature="0"
       id="path10634"
       style="font-style:normal;font-variant:normal;font-weight:normal;font-stretch:normal;font-size:medium;line-height:125%;font-family:LilyUPC;-inkscape-font-specification:'LilyUPC, Normal';text-align:start;letter-spacing:0px;word-spacing:0px;writing-mode:lr-tb;text-anchor:start;display:inline;fill:#000000;fill-opacity:1;stroke:none;stroke-width:1px;stroke-linecap:butt;stroke-linejoin:miter;stroke-opacity:1"
       d="m 395.27958,758.15015 0,5.8258 -1.1627,0 0,-0.25023 q -0.0641,0.0672 -0.29303,0.1709 -0.2289,0.10375 -0.64698,0.10375 -0.47912,-0.006 -0.86368,-0.1648 -0.38144,-0.16176 -0.63475,-0.64698 -0.25015,-0.48522 -0.25015,-1.40075 0.0142,-1.21765 0.46385,-1.60828 0.45167,-0.39062 1.14747,-0.39062 0.65611,0 1.07727,0.21058 l 0,-1.84937 1.1627,0 z m -1.1627,4.93774 0,-2.52381 q 0,-0.0366 -0.18922,-0.12511 -0.18921,-0.0885 -0.5249,-0.11292 -0.61647,0 -0.82704,0.37536 -0.21048,0.37232 -0.21048,1.07422 0,0.55847 0.0978,0.92163 0.10063,0.36011 0.33555,0.54627 0.23493,0.18311 0.62866,0.18311 0.28701,-0.0276 0.48827,-0.1587 0.20126,-0.13429 0.20126,-0.18007 z" />
    <path
       inkscape:connector-curvature="0"
       id="path10599"
       style="font-style:normal;font-variant:normal;font-weight:normal;font-stretch:normal;font-size:medium;line-height:125%;font-family:LilyUPC;-inkscape-font-specification:'LilyUPC, Normal';text-align:start;letter-spacing:0px;word-spacing:0px;writing-mode:lr-tb;text-anchor:start;display:inline;fill:#000000;fill-opacity:1;stroke:none;stroke-width:1px;stroke-linecap:butt;stroke-linejoin:miter;stroke-opacity:1"
       d="m 351.94712,908.7252 -0.47608,1.38855 -0.91247,0 2.01416,-5.8258 1.4862,0 2.0508,5.8258 -1.32446,0 -0.51271,-1.38855 -2.32544,0 z m 2.0508,-0.84839 -0.88806,-2.48718 -0.85146,2.48718 1.73952,0 z" />
    <path
       inkscape:connector-curvature="0"
       id="path10601"
       style="font-style:normal;font-variant:normal;font-weight:normal;font-stretch:normal;font-size:medium;line-height:125%;font-family:LilyUPC;-inkscape-font-specification:'LilyUPC, Normal';text-align:start;letter-spacing:0px;word-spacing:0px;writing-mode:lr-tb;text-anchor:start;display:inline;fill:#000000;fill-opacity:1;stroke:none;stroke-width:1px;stroke-linecap:butt;stroke-linejoin:miter;stroke-opacity:1"
       d="m 357.48914,908.93882 q 0,0.25941 0.18921,0.4303 0.1924,0.1709 0.47303,0.1709 0.46389,-0.012 0.66224,-0.21972 0.19843,-0.20754 0.23811,-0.34484 l 0,-3.02429 0.87584,0 0,4.1626 -0.87584,0 0,-0.38758 q -0.11905,0.1007 -0.51576,0.25023 -0.39671,0.14953 -1.09555,0.14953 -0.51882,-0.0184 -0.824,-0.31433 -0.30224,-0.29601 -0.30224,-0.83618 l 0,-3.02429 1.17492,0 0,2.98767 z" />
    <path
       inkscape:connector-curvature="0"
       id="path10603"
       style="font-style:normal;font-variant:normal;font-weight:normal;font-stretch:normal;font-size:medium;line-height:125%;font-family:LilyUPC;-inkscape-font-specification:'LilyUPC, Normal';text-align:start;letter-spacing:0px;word-spacing:0px;writing-mode:lr-tb;text-anchor:start;display:inline;fill:#000000;fill-opacity:1;stroke:none;stroke-width:1px;stroke-linecap:butt;stroke-linejoin:miter;stroke-opacity:1"
       d="m 360.45237,905.95115 1.33667,0 0.73854,1.17493 0.79954,-1.17493 0.81177,0 -1.22375,1.76392 1.48621,2.39868 -1.34887,0 -0.86364,-1.38855 -0.9613,1.38855 -0.86365,0 1.41297,-2.01111 -1.32449,-2.15149 z" />
    <path
       inkscape:connector-curvature="0"
       id="path10605"
       style="font-style:normal;font-variant:normal;font-weight:normal;font-stretch:normal;font-size:medium;line-height:125%;font-family:LilyUPC;-inkscape-font-specification:'LilyUPC, Normal';text-align:start;letter-spacing:0px;word-spacing:0px;writing-mode:lr-tb;text-anchor:start;display:inline;fill:#000000;fill-opacity:1;stroke:none;stroke-width:1px;stroke-linecap:butt;stroke-linejoin:miter;stroke-opacity:1"
       d="m 368.24658,904.85252 2.5482,-0.62561 0,5.88684 -1.28785,0 0,-4.776 -1.26035,0.27464 0,-0.75988 z" />
    <path
       inkscape:connector-curvature="0"
       id="path10607"
       style="font-style:normal;font-variant:normal;font-weight:normal;font-stretch:normal;font-size:medium;line-height:125%;font-family:LilyUPC;-inkscape-font-specification:'LilyUPC, Normal';text-align:start;letter-spacing:0px;word-spacing:0px;writing-mode:lr-tb;text-anchor:start;display:inline;fill:#000000;fill-opacity:1;stroke:none;stroke-width:1px;stroke-linecap:butt;stroke-linejoin:miter;stroke-opacity:1"
       d="m 379.15355,907.52586 1.66323,2.58789 -1.53812,0 -1.7883,-3.14941 0.71408,0 q 0.0283,0 0.13748,0.006 0.10984,0.006 0.18602,0.006 1.04677,0 1.07423,-0.91248 0,-0.48218 -0.24733,-0.76599 -0.24732,-0.28382 -0.65306,-0.28382 l -1.18712,0 0,5.09949 -1.32448,0 0,-5.82581 2.6764,0 q 1.95009,0 1.95009,1.68762 -0.0283,0.6897 -0.39674,1.0315 -0.36925,0.34179 -0.81787,0.44556 -0.34193,0.0824 -0.4242,0.0824 -0.0248,0 -0.0248,-0.009 z" />
    <path
       inkscape:connector-curvature="0"
       id="path10609"
       style="font-style:normal;font-variant:normal;font-weight:normal;font-stretch:normal;font-size:medium;line-height:125%;font-family:LilyUPC;-inkscape-font-specification:'LilyUPC, Normal';text-align:start;letter-spacing:0px;word-spacing:0px;writing-mode:lr-tb;text-anchor:start;display:inline;fill:#000000;fill-opacity:1;stroke:none;stroke-width:1px;stroke-linecap:butt;stroke-linejoin:miter;stroke-opacity:1"
       d="m 382.21752,908.23997 q 0.0283,0.3296 0.22571,0.83313 0.19842,0.50354 0.72329,0.52796 0.64084,0 1.00403,-0.16175 0.36316,-0.1648 0.473,-0.27465 l -0.17681,0.72327 q 0,0.0641 -0.36316,0.17089 -0.36315,0.10375 -0.92469,0.10375 -0.22288,0 -0.34796,-0.0121 -0.90942,-0.0671 -1.33363,-0.52185 -0.42115,-0.45776 -0.43029,-1.46484 0,-1.15357 0.47912,-1.69068 0.48217,-0.5371 1.40992,-0.54626 1.11387,0 1.51062,0.58593 0.33874,0.48524 0.33874,1.31226 0,0.15566 -0.0106,0.2655 -0.0106,0.1068 -0.0142,0.14953 l -2.56348,0 z m 0.85145,-1.78833 q -0.85145,0.0276 -0.85145,1.23596 l 1.81275,0 q 0,-1.23596 -0.9613,-1.23596 z" />
    <path
       inkscape:connector-curvature="0"
       id="path10611"
       style="font-style:normal;font-variant:normal;font-weight:normal;font-stretch:normal;font-size:medium;line-height:125%;font-family:LilyUPC;-inkscape-font-specification:'LilyUPC, Normal';text-align:start;letter-spacing:0px;word-spacing:0px;writing-mode:lr-tb;text-anchor:start;display:inline;fill:#000000;fill-opacity:1;stroke:none;stroke-width:1px;stroke-linecap:butt;stroke-linejoin:miter;stroke-opacity:1"
       d="m 386.89585,906.47606 0,2.41394 q 0,0.3601 0.21366,0.51269 0.15272,0.12207 0.57678,0.12207 l 0,0.58899 q -0.0365,0.003 -0.1311,0.006 -0.0978,0.006 -0.21969,0.006 -0.80263,0 -1.17492,-0.27464 -0.43948,-0.29909 -0.43948,-1.01319 l 0,-2.36206 -0.78736,0 0,-0.5249 0.78736,0 0,-1.66321 1.17493,0 0,1.66321 0.7904,0 0,0.5249 -0.7904,0 z" />
    <path
       inkscape:connector-curvature="0"
       id="path10613"
       style="font-style:normal;font-variant:normal;font-weight:normal;font-stretch:normal;font-size:medium;line-height:125%;font-family:LilyUPC;-inkscape-font-specification:'LilyUPC, Normal';text-align:start;letter-spacing:0px;word-spacing:0px;writing-mode:lr-tb;text-anchor:start;display:inline;fill:#000000;fill-opacity:1;stroke:none;stroke-width:1px;stroke-linecap:butt;stroke-linejoin:miter;stroke-opacity:1"
       d="m 389.12976,908.93882 q 0,0.25941 0.18922,0.4303 0.1924,0.1709 0.47303,0.1709 0.46389,-0.012 0.66224,-0.21972 0.19843,-0.20754 0.23811,-0.34484 l 0,-3.02429 0.87584,0 0,4.1626 -0.87584,0 0,-0.38758 q -0.11905,0.1007 -0.51576,0.25023 -0.39671,0.14953 -1.09559,0.14953 -0.51878,-0.0184 -0.82396,-0.31433 -0.30225,-0.29601 -0.30225,-0.83618 l 0,-3.02429 1.17496,0 0,2.98767 z" />
    <path
       inkscape:connector-curvature="0"
       id="path10615"
       style="font-style:normal;font-variant:normal;font-weight:normal;font-stretch:normal;font-size:medium;line-height:125%;font-family:LilyUPC;-inkscape-font-specification:'LilyUPC, Normal';text-align:start;letter-spacing:0px;word-spacing:0px;writing-mode:lr-tb;text-anchor:start;display:inline;fill:#000000;fill-opacity:1;stroke:none;stroke-width:1px;stroke-linecap:butt;stroke-linejoin:miter;stroke-opacity:1"
       d="m 392.12963,910.11375 0,-4.1626 1.17493,0 0,0.5127 q 0.007,-0.006 0.0702,-0.0855 0.067,-0.0824 0.19842,-0.17089 0.13111,-0.0885 0.35706,-0.16785 0.24095,-0.1007 0.61342,-0.1007 0.28701,0 0.36011,0.0245 l 0.10063,0.6012 q -0.21367,-0.0519 -0.3998,-0.0519 -0.40588,0 -0.67443,0.15258 -0.30225,0.14953 -0.46386,0.40894 -0.16157,0.2594 -0.16157,0.47607 l 0,2.56348 -1.17492,0 z" />
    <path
       inkscape:connector-curvature="0"
       id="path10617"
       style="font-style:normal;font-variant:normal;font-weight:normal;font-stretch:normal;font-size:medium;line-height:125%;font-family:LilyUPC;-inkscape-font-specification:'LilyUPC, Normal';text-align:start;letter-spacing:0px;word-spacing:0px;writing-mode:lr-tb;text-anchor:start;display:inline;fill:#000000;fill-opacity:1;stroke:none;stroke-width:1px;stroke-linecap:butt;stroke-linejoin:miter;stroke-opacity:1"
       d="m 398.94114,906.91246 0,3.20129 -0.87583,0 0,-3.0487 q 0,-0.52491 -0.79958,-0.52491 -0.39062,0.0458 -0.56151,0.24414 -0.16795,0.1953 -0.20162,0.31737 l 0,3.01209 -1.17492,0 0,-4.1626 1.17492,0 0,0.33874 q 0.0248,-0.0152 0.16477,-0.10988 0.1435,-0.0946 0.40284,-0.17394 0.26256,-0.0793 0.60728,-0.0793 0.65006,0 0.95521,0.29905 0.30827,0.29601 0.30827,0.68664 z" />
    <path
       inkscape:connector-curvature="0"
       id="path10578"
       style="font-style:normal;font-variant:normal;font-weight:normal;font-stretch:normal;font-size:medium;line-height:125%;font-family:LilyUPC;-inkscape-font-specification:'LilyUPC, Normal';text-align:start;letter-spacing:0px;word-spacing:0px;writing-mode:lr-tb;text-anchor:start;display:inline;fill:#000000;fill-opacity:1;stroke:none;stroke-width:1px;stroke-linecap:butt;stroke-linejoin:miter;stroke-opacity:1"
       d="m 352.17548,974.00947 -0.47608,1.38855 -0.91247,0 2.01416,-5.82581 1.4862,0 2.05076,5.82581 -1.32445,0 -0.51268,-1.38855 -2.32544,0 z m 2.05076,-0.84839 -0.88806,-2.48718 -0.85142,2.48718 1.73948,0 z" />
    <path
       inkscape:connector-curvature="0"
       id="path10580"
       style="font-style:normal;font-variant:normal;font-weight:normal;font-stretch:normal;font-size:medium;line-height:125%;font-family:LilyUPC;-inkscape-font-specification:'LilyUPC, Normal';text-align:start;letter-spacing:0px;word-spacing:0px;writing-mode:lr-tb;text-anchor:start;display:inline;fill:#000000;fill-opacity:1;stroke:none;stroke-width:1px;stroke-linecap:butt;stroke-linejoin:miter;stroke-opacity:1"
       d="m 357.71746,974.22309 q 0,0.25941 0.18921,0.4303 0.1924,0.17089 0.47303,0.17089 0.46386,-0.012 0.66221,-0.21972 0.19843,-0.20753 0.23811,-0.34483 l 0,-3.02429 0.87587,0 0,4.1626 -0.87587,0 0,-0.38758 q -0.11905,0.1007 -0.51573,0.25023 -0.39674,0.14953 -1.09559,0.14953 -0.51881,-0.0184 -0.82396,-0.31433 -0.30224,-0.29601 -0.30224,-0.83618 l 0,-3.02429 1.17492,0 0,2.98767 z" />
    <path
       inkscape:connector-curvature="0"
       id="path10582"
       style="font-style:normal;font-variant:normal;font-weight:normal;font-stretch:normal;font-size:medium;line-height:125%;font-family:LilyUPC;-inkscape-font-specification:'LilyUPC, Normal';text-align:start;letter-spacing:0px;word-spacing:0px;writing-mode:lr-tb;text-anchor:start;display:inline;fill:#000000;fill-opacity:1;stroke:none;stroke-width:1px;stroke-linecap:butt;stroke-linejoin:miter;stroke-opacity:1"
       d="m 360.68073,971.23542 1.33667,0 0.7385,1.17493 0.79958,-1.17493 0.81177,0 -1.22375,1.76392 1.48621,2.39868 -1.3489,0 -0.86365,-1.38855 -0.9613,1.38855 -0.86364,0 1.41296,-2.01111 -1.32445,-2.15149 z" />
    <path
       inkscape:connector-curvature="0"
       id="path10584"
       style="font-style:normal;font-variant:normal;font-weight:normal;font-stretch:normal;font-size:medium;line-height:125%;font-family:LilyUPC;-inkscape-font-specification:'LilyUPC, Normal';text-align:start;letter-spacing:0px;word-spacing:0px;writing-mode:lr-tb;text-anchor:start;display:inline;fill:#000000;fill-opacity:1;stroke:none;stroke-width:1px;stroke-linecap:butt;stroke-linejoin:miter;stroke-opacity:1"
       d="m 372.52458,974.62287 0,0.77515 -4.62646,0 0,-0.73853 q 0,-0.12511 0.15272,-0.43029 0.15555,-0.30824 0.55545,-0.72632 0.4028,-0.41809 1.10473,-0.84229 0.65916,-0.39062 0.96435,-0.6073 0.30827,-0.21972 0.44557,-0.4364 0.14031,-0.21972 0.14031,-0.5188 -0.0248,-0.82092 -1.12609,-0.83618 -0.87279,0 -1.42516,0.37842 -0.55236,0.37841 -0.74767,0.63171 l 0,-1.06201 q 0,-0.0184 0.13429,-0.12816 0.13748,-0.11293 0.39065,-0.24109 0.25335,-0.13121 0.66221,-0.22886 0.40893,-0.0977 0.9613,-0.1007 0.82704,0 1.37941,0.21363 0.55541,0.21362 0.83009,0.62255 0.27779,0.40894 0.27779,0.97657 -0.0365,0.29909 -0.14953,0.52795 -0.10984,0.22582 -0.41502,0.48828 -0.30225,0.26246 -0.84841,0.55847 -1.37023,0.74768 -1.86155,1.57471 l -0.0886,0.14953 3.28978,0 z" />
    <path
       inkscape:connector-curvature="0"
       id="path10586"
       style="font-style:normal;font-variant:normal;font-weight:normal;font-stretch:normal;font-size:medium;line-height:125%;font-family:LilyUPC;-inkscape-font-specification:'LilyUPC, Normal';text-align:start;letter-spacing:0px;word-spacing:0px;writing-mode:lr-tb;text-anchor:start;display:inline;fill:#000000;fill-opacity:1;stroke:none;stroke-width:1px;stroke-linecap:butt;stroke-linejoin:miter;stroke-opacity:1"
       d="m 379.38187,972.81013 1.66323,2.58789 -1.53808,0 -1.78834,-3.14942 0.71412,0 q 0.0283,0 0.13748,0.006 0.10984,0.006 0.18602,0.006 1.04677,0 1.07423,-0.91247 0,-0.48218 -0.24733,-0.76599 -0.24732,-0.28382 -0.65306,-0.28382 l -1.18715,0 0,5.09949 -1.32445,0 0,-5.82581 2.6764,0 q 1.95006,0 1.95006,1.68762 -0.0283,0.6897 -0.39675,1.0315 -0.36925,0.34178 -0.81786,0.44555 -0.34193,0.0824 -0.42417,0.0824 -0.0248,0 -0.0248,-0.009 z" />
    <path
       inkscape:connector-curvature="0"
       id="path10588"
       style="font-style:normal;font-variant:normal;font-weight:normal;font-stretch:normal;font-size:medium;line-height:125%;font-family:LilyUPC;-inkscape-font-specification:'LilyUPC, Normal';text-align:start;letter-spacing:0px;word-spacing:0px;writing-mode:lr-tb;text-anchor:start;display:inline;fill:#000000;fill-opacity:1;stroke:none;stroke-width:1px;stroke-linecap:butt;stroke-linejoin:miter;stroke-opacity:1"
       d="m 382.44584,973.52424 q 0.0284,0.3296 0.22571,0.83313 0.19843,0.50354 0.72326,0.52795 0.64088,0 1.00403,-0.16175 0.36315,-0.1648 0.47303,-0.27464 l -0.17716,0.72327 q 0,0.0641 -0.36316,0.17089 -0.36315,0.10375 -0.92466,0.10375 -0.22287,0 -0.34795,-0.0121 -0.90943,-0.0671 -1.33363,-0.52185 -0.42112,-0.45776 -0.4303,-1.46484 0,-1.15357 0.47913,-1.69068 0.48221,-0.53711 1.40991,-0.54626 1.11391,0 1.51062,0.58594 0.33874,0.48523 0.33874,1.31225 0,0.15566 -0.0106,0.2655 -0.0106,0.1068 -0.0142,0.14953 l -2.56347,0 z m 0.85146,-1.78833 q -0.85146,0.0276 -0.85146,1.23596 l 1.81276,0 q 0,-1.23596 -0.9613,-1.23596 z" />
    <path
       inkscape:connector-curvature="0"
       id="path10590"
       style="font-style:normal;font-variant:normal;font-weight:normal;font-stretch:normal;font-size:medium;line-height:125%;font-family:LilyUPC;-inkscape-font-specification:'LilyUPC, Normal';text-align:start;letter-spacing:0px;word-spacing:0px;writing-mode:lr-tb;text-anchor:start;display:inline;fill:#000000;fill-opacity:1;stroke:none;stroke-width:1px;stroke-linecap:butt;stroke-linejoin:miter;stroke-opacity:1"
       d="m 387.12421,971.76032 0,2.41394 q 0,0.36011 0.21366,0.5127 0.15272,0.12207 0.57678,0.12207 l 0,0.58899 q -0.0365,0.003 -0.1311,0.006 -0.0978,0.006 -0.21969,0.006 -0.80259,0 -1.17492,-0.27465 -0.43944,-0.29908 -0.43944,-1.01317 l 0,-2.36206 -0.78736,0 0,-0.5249 0.78736,0 0,-1.66321 1.17492,0 0,1.66321 0.79041,0 0,0.5249 -0.79041,0 z" />
    <path
       inkscape:connector-curvature="0"
       id="path10592"
       style="font-style:normal;font-variant:normal;font-weight:normal;font-stretch:normal;font-size:medium;line-height:125%;font-family:LilyUPC;-inkscape-font-specification:'LilyUPC, Normal';text-align:start;letter-spacing:0px;word-spacing:0px;writing-mode:lr-tb;text-anchor:start;display:inline;fill:#000000;fill-opacity:1;stroke:none;stroke-width:1px;stroke-linecap:butt;stroke-linejoin:miter;stroke-opacity:1"
       d="m 389.35809,974.22309 q 0,0.25941 0.18921,0.4303 0.1924,0.17089 0.47303,0.17089 0.46386,-0.012 0.66221,-0.21972 0.19843,-0.20753 0.23811,-0.34483 l 0,-3.02429 0.87587,0 0,4.1626 -0.87587,0 0,-0.38758 q -0.11905,0.1007 -0.51573,0.25023 -0.39674,0.14953 -1.09559,0.14953 -0.51881,-0.0184 -0.82399,-0.31433 -0.30225,-0.29601 -0.30225,-0.83618 l 0,-3.02429 1.17493,0 0,2.98767 z" />
    <path
       inkscape:connector-curvature="0"
       id="path10594"
       style="font-style:normal;font-variant:normal;font-weight:normal;font-stretch:normal;font-size:medium;line-height:125%;font-family:LilyUPC;-inkscape-font-specification:'LilyUPC, Normal';text-align:start;letter-spacing:0px;word-spacing:0px;writing-mode:lr-tb;text-anchor:start;display:inline;fill:#000000;fill-opacity:1;stroke:none;stroke-width:1px;stroke-linecap:butt;stroke-linejoin:miter;stroke-opacity:1"
       d="m 392.35796,975.39802 0,-4.1626 1.17492,0 0,0.5127 q 0.007,-0.006 0.0702,-0.0855 0.067,-0.0824 0.19843,-0.17089 0.1311,-0.0885 0.35702,-0.16785 0.24095,-0.1007 0.61342,-0.1007 0.28701,0 0.3601,0.0244 l 0.10063,0.6012 q -0.21366,-0.0519 -0.39975,-0.0519 -0.40589,0 -0.67447,0.15258 -0.30224,0.14952 -0.46385,0.40893 -0.16193,0.25941 -0.16193,0.47607 l 0,2.56348 -1.17493,0 z" />
    <path
       inkscape:connector-curvature="0"
       id="path10596"
       style="font-style:normal;font-variant:normal;font-weight:normal;font-stretch:normal;font-size:medium;line-height:125%;font-family:LilyUPC;-inkscape-font-specification:'LilyUPC, Normal';text-align:start;letter-spacing:0px;word-spacing:0px;writing-mode:lr-tb;text-anchor:start;display:inline;fill:#000000;fill-opacity:1;stroke:none;stroke-width:1px;stroke-linecap:butt;stroke-linejoin:miter;stroke-opacity:1"
       d="m 399.1695,972.19672 0,3.2013 -0.87587,0 0,-3.04871 q 0,-0.5249 -0.79954,-0.5249 -0.39065,0.0458 -0.56155,0.24413 -0.16795,0.19531 -0.20126,0.31738 l 0,3.01209 -1.17492,0 0,-4.1626 1.17492,0 0,0.33874 q 0.0248,-0.0152 0.16477,-0.10988 0.1435,-0.0946 0.4028,-0.17394 0.26256,-0.0793 0.60732,-0.0793 0.65002,0 0.95521,0.29906 0.30827,0.29601 0.30827,0.68665 z" />
    <path
       inkscape:connector-curvature="0"
       id="path10734"
       style="font-style:normal;font-variant:normal;font-weight:normal;font-stretch:normal;font-size:medium;line-height:125%;font-family:LilyUPC;-inkscape-font-specification:'LilyUPC, Normal';text-align:start;letter-spacing:0px;word-spacing:0px;writing-mode:lr-tb;text-anchor:start;display:inline;fill:#000000;fill-opacity:1;stroke:none;stroke-width:1px;stroke-linecap:butt;stroke-linejoin:miter;stroke-opacity:1"
       d="m 16.148058,838.60552 q 0,0.71716 -0.289917,1.10473 -0.286866,0.38453 -0.744629,0.50965 -0.454712,0.12511 -1.080323,0.12511 l -1.19934,0 0,2.39869 -1.324464,0 0,-5.82581 2.676392,0 q 0.918579,0 1.431275,0.36926 0.512695,0.36926 0.531006,1.31836 z m -1.251221,-0.0366 q -0.0091,-0.44251 -0.247192,-0.6836 -0.234985,-0.24109 -0.616455,-0.24109 l -1.199341,0 0,1.9867 1.16272,0 q 0.445557,0 0.671387,-0.2289 0.22888,-0.22886 0.22888,-0.83313 z" />
    <path
       inkscape:connector-curvature="0"
       id="path10736"
       style="font-style:normal;font-variant:normal;font-weight:normal;font-stretch:normal;font-size:medium;line-height:125%;font-family:LilyUPC;-inkscape-font-specification:'LilyUPC, Normal';text-align:start;letter-spacing:0px;word-spacing:0px;writing-mode:lr-tb;text-anchor:start;display:inline;fill:#000000;fill-opacity:1;stroke:none;stroke-width:1px;stroke-linecap:butt;stroke-linejoin:miter;stroke-opacity:1"
       d="m 18.961778,842.7437 0,-0.4364 q -0.04883,0.11292 -0.329591,0.28077 -0.27771,0.16785 -0.946045,0.16785 -0.570679,-0.0213 -0.949097,-0.29296 -0.378418,-0.2716 -0.387573,-0.85755 0,-0.62866 0.448609,-0.94299 0.45166,-0.31433 1.351928,-0.38147 0.41504,-0.0337 0.637818,-0.21058 0.225829,-0.18007 0.225829,-0.40283 0,-0.22582 -0.207521,-0.38758 -0.204466,-0.16175 -0.55542,-0.16175 -0.723266,0 -1.126098,0.26855 -0.399781,0.2655 -0.524903,0.44556 l 0.173952,-0.82703 q 0,-0.0213 0.189209,-0.13124 0.19226,-0.10988 0.534057,-0.20445 0.341798,-0.0977 0.81482,-0.1007 0.964355,0 1.394653,0.3296 0.430298,0.32655 0.430298,0.85754 l 0,2.98767 -1.174927,0 z m -0.57373,-0.65002 q 0.57373,-0.15566 0.57373,-0.50049 l 0,-0.9491 q -0.0031,0.009 -0.04272,0.0885 -0.03967,0.0763 -0.180053,0.15258 -0.140382,0.0763 -0.427246,0.10987 -0.488281,0.0672 -0.744629,0.21972 -0.256348,0.14953 -0.256348,0.51575 0.03967,0.4242 0.677491,0.4242 0.192259,0 0.39978,-0.061 z" />
    <path
       inkscape:connector-curvature="0"
       id="path10738"
       style="font-style:normal;font-variant:normal;font-weight:normal;font-stretch:normal;font-size:medium;line-height:125%;font-family:LilyUPC;-inkscape-font-specification:'LilyUPC, Normal';text-align:start;letter-spacing:0px;word-spacing:0px;writing-mode:lr-tb;text-anchor:start;display:inline;fill:#000000;fill-opacity:1;stroke:none;stroke-width:1px;stroke-linecap:butt;stroke-linejoin:miter;stroke-opacity:1"
       d="m 24.238268,839.54241 0,3.20129 -0.875855,0 0,-3.0487 q 0,-0.52491 -0.79956,-0.52491 -0.390625,0.0458 -0.561524,0.24414 -0.167846,0.1953 -0.201416,0.31737 l 0,3.01209 -1.174927,0 0,-4.1626 1.174927,0 0,0.33874 q 0.02441,-0.0152 0.164796,-0.10988 0.143433,-0.0946 0.402832,-0.17394 0.262452,-0.0793 0.6073,-0.0793 0.650024,0 0.9552,0.29906 0.308229,0.296 0.308229,0.68664 z" />
    <path
       inkscape:connector-curvature="0"
       id="path10725"
       style="font-style:normal;font-variant:normal;font-weight:normal;font-stretch:normal;font-size:medium;line-height:125%;font-family:LilyUPC;-inkscape-font-specification:'LilyUPC, Normal';text-align:start;letter-spacing:0px;word-spacing:0px;writing-mode:lr-tb;text-anchor:start;display:inline;fill:#000000;fill-opacity:1;stroke:none;stroke-width:1px;stroke-linecap:butt;stroke-linejoin:miter;stroke-opacity:1"
       d="m 8.7356721,931.92011 -0.4760744,1.38854 -0.9124754,0 2.0141602,-5.8258 1.4862065,0 2.05078,5.8258 -1.324462,0 -0.512695,-1.38854 -2.3254399,0 z m 2.0507819,-0.8484 -0.8880622,-2.48718 -0.8514406,2.48718 1.7395028,0 z" />
    <path
       inkscape:connector-curvature="0"
       id="path10727"
       style="font-style:normal;font-variant:normal;font-weight:normal;font-stretch:normal;font-size:medium;line-height:125%;font-family:LilyUPC;-inkscape-font-specification:'LilyUPC, Normal';text-align:start;letter-spacing:0px;word-spacing:0px;writing-mode:lr-tb;text-anchor:start;display:inline;fill:#000000;fill-opacity:1;stroke:none;stroke-width:1px;stroke-linecap:butt;stroke-linejoin:miter;stroke-opacity:1"
       d="m 14.277664,932.13373 q 0,0.2594 0.189209,0.43029 0.19226,0.1709 0.473023,0.1709 0.463867,-0.012 0.662231,-0.21972 0.198365,-0.20753 0.238036,-0.34484 l 0,-3.02429 0.875854,0 0,4.1626 -0.875854,0 0,-0.38758 q -0.11902,0.1007 -0.515747,0.25027 -0.396729,0.14952 -1.095581,0.14952 -0.518799,-0.0184 -0.823975,-0.31432 -0.302124,-0.29601 -0.302124,-0.83618 l 0,-3.0243 1.174927,0 0,2.98768 z" />
    <path
       inkscape:connector-curvature="0"
       id="path10729"
       style="font-style:normal;font-variant:normal;font-weight:normal;font-stretch:normal;font-size:medium;line-height:125%;font-family:LilyUPC;-inkscape-font-specification:'LilyUPC, Normal';text-align:start;letter-spacing:0px;word-spacing:0px;writing-mode:lr-tb;text-anchor:start;display:inline;fill:#000000;fill-opacity:1;stroke:none;stroke-width:1px;stroke-linecap:butt;stroke-linejoin:miter;stroke-opacity:1"
       d="m 17.240921,929.14606 1.33667,0 0.738525,1.17492 0.799561,-1.17492 0.811768,0 -1.223755,1.76391 1.486206,2.39868 -1.348877,0 -0.863648,-1.38854 -0.961304,1.38854 -0.863647,0 1.412964,-2.0111 -1.324463,-2.15149 z" />
    <path
       inkscape:connector-curvature="0"
       id="path10731"
       style="font-style:normal;font-variant:normal;font-weight:normal;font-stretch:normal;font-size:medium;line-height:125%;font-family:LilyUPC;-inkscape-font-specification:'LilyUPC, Normal';text-align:start;letter-spacing:0px;word-spacing:0px;writing-mode:lr-tb;text-anchor:start;display:inline;fill:#000000;fill-opacity:1;stroke:none;stroke-width:1px;stroke-linecap:butt;stroke-linejoin:miter;stroke-opacity:1"
       d="m 29.084794,932.53351 0,0.77514 -4.626465,0 0,-0.73852 q 0,-0.12511 0.152588,-0.4303 0.15564,-0.30823 0.55542,-0.72632 0.402832,-0.41809 1.104737,-0.84228 0.65918,-0.39063 0.964355,-0.6073 0.308229,-0.21972 0.445557,-0.4364 0.140382,-0.21972 0.140382,-0.5188 -0.02441,-0.82093 -1.126098,-0.83618 -0.872803,0 -1.425171,0.37841 -0.552369,0.37842 -0.747681,0.63172 l 0,-1.06202 q 0,-0.0184 0.134277,-0.12816 0.137328,-0.11292 0.390625,-0.24108 0.253297,-0.13125 0.662231,-0.22887 0.408936,-0.0977 0.961304,-0.1007 0.827027,0 1.379395,0.21363 0.555419,0.21363 0.830078,0.62256 0.27771,0.40893 0.27771,0.97656 -0.03662,0.29909 -0.149538,0.52795 -0.109864,0.22582 -0.415039,0.48829 -0.302124,0.26245 -0.848389,0.55847 -1.370239,0.74768 -1.861572,1.5747 l -0.0885,0.14953 3.289795,0 z" />
    <path
       inkscape:connector-curvature="0"
       id="path10718"
       style="font-style:normal;font-variant:normal;font-weight:normal;font-stretch:normal;font-size:medium;line-height:125%;font-family:LilyUPC;-inkscape-font-specification:'LilyUPC, Normal';text-align:start;letter-spacing:0px;word-spacing:0px;writing-mode:lr-tb;text-anchor:start;display:inline;fill:#000000;fill-opacity:1;stroke:none;stroke-width:1px;stroke-linecap:butt;stroke-linejoin:miter;stroke-opacity:1"
       d="m 14.277087,785.02731 -2.761842,-5.88684 1.376343,0 1.611329,3.39966 1.287841,-3.39966 0.823975,0 -2.337646,5.88684 z" />
    <path
       inkscape:connector-curvature="0"
       id="path10720"
       style="font-style:normal;font-variant:normal;font-weight:normal;font-stretch:normal;font-size:medium;line-height:125%;font-family:LilyUPC;-inkscape-font-specification:'LilyUPC, Normal';text-align:start;letter-spacing:0px;word-spacing:0px;writing-mode:lr-tb;text-anchor:start;display:inline;fill:#000000;fill-opacity:1;stroke:none;stroke-width:1px;stroke-linecap:butt;stroke-linejoin:miter;stroke-opacity:1"
       d="m 18.769274,780.77926 q 0.726318,0 1.159668,0.23499 0.436401,0.235 0.62561,0.69581 0.189209,0.46081 0.189209,1.16882 0,1.10779 -0.46997,1.62353 -0.469971,0.51269 -1.531983,0.51269 -1.00708,-0.009 -1.486206,-0.51575 -0.476074,-0.50659 -0.476074,-1.60827 0.01831,-2.11182 1.989746,-2.11182 z m -0.827026,2.09961 q 0.02137,0.54016 0.06103,0.82092 0.04272,0.27773 0.222778,0.50354 0.180053,0.22585 0.55542,0.22585 0.524903,0 0.662232,-0.39673 0.137328,-0.39978 0.137328,-1.12915 0,-0.71716 -0.140382,-1.1322 -0.137328,-0.41809 -0.65918,-0.41809 -0.537109,0.0152 -0.689697,0.41809 -0.149538,0.39978 -0.149538,1.10779 z" />
    <path
       inkscape:connector-curvature="0"
       id="path10722"
       style="font-style:normal;font-variant:normal;font-weight:normal;font-stretch:normal;font-size:medium;line-height:125%;font-family:LilyUPC;-inkscape-font-specification:'LilyUPC, Normal';text-align:start;letter-spacing:0px;word-spacing:0px;writing-mode:lr-tb;text-anchor:start;display:inline;fill:#000000;fill-opacity:1;stroke:none;stroke-width:1px;stroke-linecap:butt;stroke-linejoin:miter;stroke-opacity:1"
       d="m 21.152697,784.96627 0,-5.8258 1.150512,0 0,5.8258 -1.150512,0 z" />
    <path
       inkscape:connector-curvature="0"
       id="path10709"
       style="font-style:normal;font-variant:normal;font-weight:normal;font-stretch:normal;font-size:medium;line-height:125%;font-family:LilyUPC;-inkscape-font-specification:'LilyUPC, Normal';text-align:start;letter-spacing:0px;word-spacing:0px;writing-mode:lr-tb;text-anchor:start;display:inline;fill:#000000;fill-opacity:1;stroke:none;stroke-width:1px;stroke-linecap:butt;stroke-linejoin:miter;stroke-opacity:1"
       d="m 8.9453738,903.17497 -0.476074,1.38855 -0.9124758,0 2.0141603,-5.82581 1.4862067,0 2.050781,5.82581 -1.324464,0 -0.512694,-1.38855 -2.3254402,0 z m 2.0507812,-0.84839 -0.888061,-2.48718 -0.8514407,2.48718 1.7395017,0 z" />
    <path
       inkscape:connector-curvature="0"
       id="path10711"
       style="font-style:normal;font-variant:normal;font-weight:normal;font-stretch:normal;font-size:medium;line-height:125%;font-family:LilyUPC;-inkscape-font-specification:'LilyUPC, Normal';text-align:start;letter-spacing:0px;word-spacing:0px;writing-mode:lr-tb;text-anchor:start;display:inline;fill:#000000;fill-opacity:1;stroke:none;stroke-width:1px;stroke-linecap:butt;stroke-linejoin:miter;stroke-opacity:1"
       d="m 14.487366,903.38859 q 0,0.2594 0.189209,0.4303 0.19226,0.17089 0.473022,0.17089 0.463868,-0.0121 0.662232,-0.21972 0.198365,-0.20753 0.238036,-0.34483 l 0,-3.0243 0.875854,0 0,4.1626 -0.875854,0 0,-0.38757 q -0.11902,0.1007 -0.515747,0.25023 -0.396729,0.14952 -1.095581,0.14952 -0.518799,-0.0184 -0.823975,-0.31432 -0.302124,-0.29601 -0.302124,-0.83619 l 0,-3.02429 1.174927,0 0,2.98767 z" />
    <path
       inkscape:connector-curvature="0"
       id="path10713"
       style="font-style:normal;font-variant:normal;font-weight:normal;font-stretch:normal;font-size:medium;line-height:125%;font-family:LilyUPC;-inkscape-font-specification:'LilyUPC, Normal';text-align:start;letter-spacing:0px;word-spacing:0px;writing-mode:lr-tb;text-anchor:start;display:inline;fill:#000000;fill-opacity:1;stroke:none;stroke-width:1px;stroke-linecap:butt;stroke-linejoin:miter;stroke-opacity:1"
       d="m 17.450623,900.40092 1.336669,0 0.738526,1.17493 0.799561,-1.17493 0.811767,0 -1.223755,1.76392 1.486207,2.39868 -1.348878,0 -0.863647,-1.38855 -0.961304,1.38855 -0.863647,0 1.412964,-2.01111 -1.324463,-2.15149 z" />
    <path
       inkscape:connector-curvature="0"
       id="path10715"
       style="font-style:normal;font-variant:normal;font-weight:normal;font-stretch:normal;font-size:medium;line-height:125%;font-family:LilyUPC;-inkscape-font-specification:'LilyUPC, Normal';text-align:start;letter-spacing:0px;word-spacing:0px;writing-mode:lr-tb;text-anchor:start;display:inline;fill:#000000;fill-opacity:1;stroke:none;stroke-width:1px;stroke-linecap:butt;stroke-linejoin:miter;stroke-opacity:1"
       d="m 25.244812,899.30228 2.548219,-0.62561 0,5.88685 -1.287842,0 0,-4.776 -1.260377,0.27464 0,-0.75989 z" />
    <path
       inkscape:connector-curvature="0"
       id="path10700"
       style="font-style:normal;font-variant:normal;font-weight:normal;font-stretch:normal;font-size:medium;line-height:125%;font-family:LilyUPC;-inkscape-font-specification:'LilyUPC, Normal';text-align:start;letter-spacing:0px;word-spacing:0px;writing-mode:lr-tb;text-anchor:start;display:inline;fill:#000000;fill-opacity:1;stroke:none;stroke-width:1px;stroke-linecap:butt;stroke-linejoin:miter;stroke-opacity:1"
       d="m 14.247101,962.29579 -1.638793,4.01301 -1.699829,-4.01301 0,3.90011 -0.9368899,0 0,-5.82576 1.4739989,0 1.364136,3.05175 1.312255,-3.05175 1.449585,0 0,5.82576 -1.324463,0 0,-3.90011 z" />
    <path
       inkscape:connector-curvature="0"
       id="path10702"
       style="font-style:normal;font-variant:normal;font-weight:normal;font-stretch:normal;font-size:medium;line-height:125%;font-family:LilyUPC;-inkscape-font-specification:'LilyUPC, Normal';text-align:start;letter-spacing:0px;word-spacing:0px;writing-mode:lr-tb;text-anchor:start;display:inline;fill:#000000;fill-opacity:1;stroke:none;stroke-width:1px;stroke-linecap:butt;stroke-linejoin:miter;stroke-opacity:1"
       d="m 17.36905,965.02101 q 0,0.25941 0.189209,0.4303 0.19226,0.17089 0.473022,0.17089 0.463868,-0.012 0.662232,-0.21972 0.198365,-0.20753 0.238036,-0.34483 l 0,-3.02429 0.875854,0 0,4.16254 -0.875854,0 0,-0.38752 q -0.11902,0.1007 -0.515747,0.25022 -0.396729,0.1496 -1.095582,0.1496 -0.518798,-0.018 -0.823974,-0.31435 -0.302124,-0.29601 -0.302124,-0.83619 l 0,-3.02429 1.174927,0 0,2.98767 z" />
    <path
       inkscape:connector-curvature="0"
       id="path10704"
       style="font-style:normal;font-variant:normal;font-weight:normal;font-stretch:normal;font-size:medium;line-height:125%;font-family:LilyUPC;-inkscape-font-specification:'LilyUPC, Normal';text-align:start;letter-spacing:0px;word-spacing:0px;writing-mode:lr-tb;text-anchor:start;display:inline;fill:#000000;fill-opacity:1;stroke:none;stroke-width:1px;stroke-linecap:butt;stroke-linejoin:miter;stroke-opacity:1"
       d="m 22.117585,962.55824 0,2.41395 q 0,0.3601 0.213623,0.51269 0.152589,0.12207 0.576782,0.12207 l 0,0.58895 q -0.03662,0 -0.131226,0.01 -0.09766,0.01 -0.219728,0.01 -0.802612,0 -1.174927,-0.2746 -0.439453,-0.29905 -0.439453,-1.01318 l 0,-2.36206 -0.787354,0 0,-0.5249 0.787354,0 0,-1.66321 1.174927,0 0,1.66321 0.790405,0 0,0.5249 -0.790405,0 z" />
    <path
       inkscape:connector-curvature="0"
       id="path10706"
       style="font-style:normal;font-variant:normal;font-weight:normal;font-stretch:normal;font-size:medium;line-height:125%;font-family:LilyUPC;-inkscape-font-specification:'LilyUPC, Normal';text-align:start;letter-spacing:0px;word-spacing:0px;writing-mode:lr-tb;text-anchor:start;display:inline;fill:#000000;fill-opacity:1;stroke:none;stroke-width:1px;stroke-linecap:butt;stroke-linejoin:miter;stroke-opacity:1"
       d="m 24.22635,964.32216 q 0.02746,0.3296 0.225829,0.83313 0.198365,0.50354 0.723267,0.52796 0.64087,0 1.004029,-0.16176 0.363159,-0.1648 0.473022,-0.27464 l -0.177002,0.72327 q 0,0.0641 -0.36316,0.17088 -0.363159,0.1038 -0.924682,0.1038 -0.222779,0 -0.3479,-0.012 -0.909423,-0.067 -1.333618,-0.52204 -0.421142,-0.45776 -0.430298,-1.46484 0,-1.15357 0.479127,-1.69068 0.482177,-0.53711 1.409912,-0.54626 1.113891,0 1.51062,0.58594 0.338744,0.48522 0.338744,1.31225 0,0.15566 -0.0091,0.2655 -0.0091,0.1068 -0.01527,0.14953 l -2.563476,0 z m 0.851441,-1.78833 q -0.851441,0.0276 -0.851441,1.23596 l 1.812745,0 q 0,-1.23596 -0.961304,-1.23596 z" />
    <path
       inkscape:connector-curvature="0"
       id="path10560"
       style="font-style:normal;font-variant:normal;font-weight:normal;font-stretch:normal;font-size:medium;line-height:125%;font-family:LilyUPC;-inkscape-font-specification:'LilyUPC, Normal';text-align:start;letter-spacing:0px;word-spacing:0px;writing-mode:lr-tb;text-anchor:start;display:inline;fill:#000000;fill-opacity:1;stroke:none;stroke-width:1px;stroke-linecap:butt;stroke-linejoin:miter;stroke-opacity:1"
       d="m 16.148058,838.60552 q 0,0.71716 -0.289917,1.10473 -0.286866,0.38453 -0.744629,0.50965 -0.454712,0.12511 -1.080323,0.12511 l -1.19934,0 0,2.39869 -1.324464,0 0,-5.82581 2.676392,0 q 0.918579,0 1.431275,0.36926 0.512695,0.36926 0.531006,1.31836 z m -1.251221,-0.0366 q -0.0091,-0.44251 -0.247192,-0.6836 -0.234985,-0.24109 -0.616455,-0.24109 l -1.199341,0 0,1.9867 1.16272,0 q 0.445557,0 0.671387,-0.2289 0.22888,-0.22886 0.22888,-0.83313 z" />
    <path
       inkscape:connector-curvature="0"
       id="path10562"
       style="font-style:normal;font-variant:normal;font-weight:normal;font-stretch:normal;font-size:medium;line-height:125%;font-family:LilyUPC;-inkscape-font-specification:'LilyUPC, Normal';text-align:start;letter-spacing:0px;word-spacing:0px;writing-mode:lr-tb;text-anchor:start;display:inline;fill:#000000;fill-opacity:1;stroke:none;stroke-width:1px;stroke-linecap:butt;stroke-linejoin:miter;stroke-opacity:1"
       d="m 18.961778,842.7437 0,-0.4364 q -0.04883,0.11292 -0.329591,0.28077 -0.27771,0.16785 -0.946045,0.16785 -0.570679,-0.0213 -0.949097,-0.29296 -0.378418,-0.2716 -0.387573,-0.85755 0,-0.62866 0.448609,-0.94299 0.45166,-0.31433 1.351928,-0.38147 0.41504,-0.0337 0.637818,-0.21058 0.225829,-0.18007 0.225829,-0.40283 0,-0.22582 -0.207521,-0.38758 -0.204466,-0.16175 -0.55542,-0.16175 -0.723266,0 -1.126098,0.26855 -0.399781,0.2655 -0.524903,0.44556 l 0.173952,-0.82703 q 0,-0.0213 0.189209,-0.13124 0.19226,-0.10988 0.534057,-0.20445 0.341798,-0.0977 0.81482,-0.1007 0.964355,0 1.394653,0.3296 0.430298,0.32655 0.430298,0.85754 l 0,2.98767 -1.174927,0 z m -0.57373,-0.65002 q 0.57373,-0.15566 0.57373,-0.50049 l 0,-0.9491 q -0.0031,0.009 -0.04272,0.0885 -0.03967,0.0763 -0.180053,0.15258 -0.140382,0.0763 -0.427246,0.10987 -0.488281,0.0672 -0.744629,0.21972 -0.256348,0.14953 -0.256348,0.51575 0.03967,0.4242 0.677491,0.4242 0.192259,0 0.39978,-0.061 z" />
    <path
       inkscape:connector-curvature="0"
       id="path10564"
       style="font-style:normal;font-variant:normal;font-weight:normal;font-stretch:normal;font-size:medium;line-height:125%;font-family:LilyUPC;-inkscape-font-specification:'LilyUPC, Normal';text-align:start;letter-spacing:0px;word-spacing:0px;writing-mode:lr-tb;text-anchor:start;display:inline;fill:#000000;fill-opacity:1;stroke:none;stroke-width:1px;stroke-linecap:butt;stroke-linejoin:miter;stroke-opacity:1"
       d="m 24.238268,839.54241 0,3.20129 -0.875855,0 0,-3.0487 q 0,-0.52491 -0.79956,-0.52491 -0.390625,0.0458 -0.561524,0.24414 -0.167846,0.1953 -0.201416,0.31737 l 0,3.01209 -1.174927,0 0,-4.1626 1.174927,0 0,0.33874 q 0.02441,-0.0152 0.164796,-0.10988 0.143433,-0.0946 0.402832,-0.17394 0.262452,-0.0793 0.6073,-0.0793 0.650024,0 0.9552,0.29906 0.308229,0.296 0.308229,0.68664 z" />
    <path
       inkscape:connector-curvature="0"
       id="path10672"
       style="font-style:normal;font-variant:normal;font-weight:normal;font-stretch:normal;font-size:medium;line-height:125%;font-family:LilyUPC;-inkscape-font-specification:'LilyUPC, Normal';text-align:start;letter-spacing:0px;word-spacing:0px;writing-mode:lr-tb;text-anchor:start;display:inline;fill:#000000;fill-opacity:1;stroke:none;stroke-width:1px;stroke-linecap:butt;stroke-linejoin:miter;stroke-opacity:1"
       d="m 15.203785,745.56945 0,5.82581 -1.324463,0 0,-5.82581 1.324463,0 z" />
    <path
       inkscape:connector-curvature="0"
       id="path10674"
       style="font-style:normal;font-variant:normal;font-weight:normal;font-stretch:normal;font-size:medium;line-height:125%;font-family:LilyUPC;-inkscape-font-specification:'LilyUPC, Normal';text-align:start;letter-spacing:0px;word-spacing:0px;writing-mode:lr-tb;text-anchor:start;display:inline;fill:#000000;fill-opacity:1;stroke:none;stroke-width:1px;stroke-linecap:butt;stroke-linejoin:miter;stroke-opacity:1"
       d="m 19.418263,748.19396 0,3.2013 -0.875855,0 0,-3.04871 q 0,-0.5249 -0.799561,-0.5249 -0.390625,0.0458 -0.561523,0.24413 -0.167846,0.19531 -0.201416,0.31737 l 0,3.01209 -1.174926,0 0,-4.1626 1.174926,0 0,0.33874 q 0.02441,-0.0152 0.164796,-0.10988 0.143433,-0.0946 0.402832,-0.17394 0.262453,-0.0793 0.6073,-0.0793 0.650024,0 0.9552,0.29909 0.308229,0.296 0.308229,0.68664 z" />
  </g>
</svg>
